<?xml version="1.0" encoding="UTF-8" standalone="no"?>
<!-- Created with Inkscape (http://www.inkscape.org/) -->

<svg
   xmlns:dc="http://purl.org/dc/elements/1.1/"
   xmlns:cc="http://creativecommons.org/ns#"
   xmlns:rdf="http://www.w3.org/1999/02/22-rdf-syntax-ns#"
   xmlns:svg="http://www.w3.org/2000/svg"
   xmlns="http://www.w3.org/2000/svg"
   xmlns:sodipodi="http://sodipodi.sourceforge.net/DTD/sodipodi-0.dtd"
   xmlns:inkscape="http://www.inkscape.org/namespaces/inkscape"
   version="1.1"
   width="4212.9922"
   height="2979.9211"
   id="svg4239"
   inkscape:version="0.48.1 r9760"
   sodipodi:docname="bandiera-bebas-definitivo-nera.svg"
   inkscape:export-filename="/home/mrk25/Desktop/mrkProcedures/pirati/bitmaps/bandiera-bebas-definitivo-nera.png"
   inkscape:export-xdpi="90"
   inkscape:export-ydpi="90">
  <sodipodi:namedview
     pagecolor="#000000"
     bordercolor="#666666"
     borderopacity="1"
     objecttolerance="10"
     gridtolerance="10"
     guidetolerance="10"
     inkscape:pageopacity="1"
     inkscape:pageshadow="2"
     inkscape:window-width="1440"
     inkscape:window-height="832"
     id="namedview30"
     showgrid="false"
     inkscape:zoom="0.12828938"
     inkscape:cx="3278.2932"
     inkscape:cy="1473.3784"
     inkscape:window-x="0"
     inkscape:window-y="24"
     inkscape:window-maximized="1"
     inkscape:current-layer="svg4239" />
  <defs
     id="defs4241" />
  <metadata
     id="metadata4245">
    <rdf:RDF>
      <cc:Work
         rdf:about="">
        <dc:format>image/svg+xml</dc:format>
        <dc:type
           rdf:resource="http://purl.org/dc/dcmitype/StillImage" />
        <dc:title />
      </cc:Work>
    </rdf:RDF>
  </metadata>
  <g
     id="g3858"
     transform="matrix(5.0225284,-0.66122836,0.66122836,5.0225284,-910.58142,-55.381645)">
    <g
       transform="translate(0,-28.712963)"
       id="g3836">
      <rect
         transform="scale(1,-1)"
         width="571.35486"
         height="50"
         x="353.60574"
         y="-469.46332"
         id="rect3822"
         style="fill:#ff6600;fill-opacity:1;stroke:none" />
      <rect
         style="fill:#ffffff;fill-opacity:1;stroke:none"
         id="rect11832"
         y="308.69385"
         x="369.19507"
         height="110.75058"
         width="555.76508" />
      <text
         sodipodi:linespacing="125%"
         style="font-size:95.71328735px;font-style:normal;font-variant:normal;font-weight:normal;font-stretch:normal;text-align:start;line-height:125%;letter-spacing:0px;word-spacing:0px;writing-mode:lr-tb;text-anchor:start;fill:#ffffff;fill-opacity:1;stroke:none;font-family:Bebas Neue;-inkscape-font-specification:Bebas Neue"
         xml:space="preserve"
         id="text11834"
         y="397.56873"
         x="456.18552"><tspan
           id="tspan11836"
           y="397.56873"
           x="456.18552"><tspan
             style="fill:#ff6600;fill-opacity:1"
             id="tspan11838">PARTITO</tspan><tspan
             style="fill:#000000"
             id="tspan2997"> PIRATA</tspan></tspan></text>
      <text
         x="458.69162"
         y="456.03033"
         id="text3852"
         xml:space="preserve"
         style="font-size:33.04864502px;font-style:normal;font-variant:normal;font-weight:normal;font-stretch:normal;text-align:start;line-height:125%;letter-spacing:0px;word-spacing:0px;writing-mode:lr-tb;text-anchor:start;fill:#ffffff;fill-opacity:1;stroke:none;font-family:Bebas Neue;-inkscape-font-specification:Bebas Neue"
         sodipodi:linespacing="125%"><tspan
           style="fill:#ffffff"
           x="458.69162"
           y="456.03033"
           id="tspan3854">Democrazia ~ trasparenza ~ diritti civili</tspan></text>
    </g>
    <g
       id="g3843">
      <path
         inkscape:connector-curvature="0"
         style="fill:#ffffff;fill-opacity:1;stroke:#000000;stroke-width:4;stroke-miterlimit:4;stroke-dasharray:none"
         id="path11840"
         d="m 442.45786,360.36562 a 134.14323,134.14323 0 1 1 -268.28643,0 134.14323,134.14323 0 1 1 268.28643,0 z" />
      <g
         id="g11842"
         transform="matrix(3.290984,0,0,3.290984,-14307.964,-6169.8521)">
        <g
           id="g3108"
           transform="matrix(0.99144486,-0.13052619,0.13052619,0.99144486,-221.00386,596.68295)">
          <path
             transform="matrix(0.83956102,0.1105303,-0.1105303,0.83956102,982.2354,-188.20607)"
             d="m 4432.1452,2010.3737 c 0,26.1651 -21.211,47.3761 -47.3762,47.3761 -26.1651,0 -47.3761,-21.211 -47.3761,-47.3761 0,-26.1652 21.211,-47.3762 47.3761,-47.3762 26.1652,0 47.3762,21.211 47.3762,47.3762 z"
             sodipodi:ry="47.376156"
             sodipodi:rx="47.376156"
             sodipodi:cy="2010.3737"
             sodipodi:cx="4384.769"
             id="path11840-2"
             style="fill:#ffffff;fill-opacity:1;stroke:none"
             sodipodi:type="arc" />
          <path
             transform="matrix(0.74357953,0.0978941,-0.0978941,0.74357953,1377.6888,60.159421)"
             d="m 4432.1452,2010.3737 c 0,26.1651 -21.211,47.3761 -47.3762,47.3761 -26.1651,0 -47.3761,-21.211 -47.3761,-47.3761 0,-26.1652 21.211,-47.3762 47.3761,-47.3762 26.1652,0 47.3762,21.211 47.3762,47.3762 z"
             sodipodi:ry="47.376156"
             sodipodi:rx="47.376156"
             sodipodi:cy="2010.3737"
             sodipodi:cx="4384.769"
             id="path11844"
             style="fill:#ffffff;fill-opacity:1;stroke:#000000;stroke-width:4.21121407;stroke-miterlimit:4;stroke-opacity:1;stroke-dasharray:none"
             sodipodi:type="arc" />
          <path
             d="m 4429.2569,1955.4614 -0.5319,4.04 c -3.5078,0.761 -6.0962,2.0713 -6.9504,3.7726 1.2586,-0.1149 3.6763,-0.1675 6.4405,0.1005 l -3.7759,28.6813 c -10.3713,6.4132 1.2041,18.9765 1.2041,18.9765 0,0 -6.5507,-16.39 7.1986,-16.7493 5.7042,-0.9521 29.9409,4.1243 33.8003,-10.598 5.51,-19.8365 -18.842,-26.1576 -33.9366,-24.7464 l 0.3912,-2.9714 -3.8399,-0.5055 z m 2.7893,8.4856 c 7.2831,1.5006 14.7411,5.673 10.6983,16.5241 -2.5637,6.9769 -9.8761,8.4203 -14.1577,9.753 l 3.4594,-26.2769 z"
             id="path11846"
             inkscape:connector-curvature="0" />
        </g>
      </g>
    </g>
  </g>
</svg>
