<?xml version="1.0" encoding="UTF-8" standalone="no"?>
<!-- Created with Inkscape (http://www.inkscape.org/) -->

<svg
   xmlns:dc="http://purl.org/dc/elements/1.1/"
   xmlns:cc="http://creativecommons.org/ns#"
   xmlns:rdf="http://www.w3.org/1999/02/22-rdf-syntax-ns#"
   xmlns:svg="http://www.w3.org/2000/svg"
   xmlns="http://www.w3.org/2000/svg"
   xmlns:sodipodi="http://sodipodi.sourceforge.net/DTD/sodipodi-0.dtd"
   xmlns:inkscape="http://www.inkscape.org/namespaces/inkscape"
   width="297mm"
   height="210mm"
   id="svg4239"
   version="1.1"
   inkscape:version="0.48.1 r9760"
   sodipodi:docname="logo-bebas-definitivo.svg"
   inkscape:export-filename="/home/mrk25/Desktop/mrkProcedures/pirati/bitmaps/logo-bebas-definitivo.png"
   inkscape:export-xdpi="90"
   inkscape:export-ydpi="90">
  <defs
     id="defs4241" />
  <sodipodi:namedview
     inkscape:document-units="mm"
     pagecolor="#dddddd"
     bordercolor="#666666"
     borderopacity="1.0"
     inkscape:pageopacity="1"
     inkscape:pageshadow="2"
     inkscape:zoom="0.86831672"
     inkscape:cx="400.01563"
     inkscape:cy="351.37408"
     inkscape:current-layer="g11842"
     id="namedview4243"
     showgrid="false"
     inkscape:window-width="1440"
     inkscape:window-height="832"
     inkscape:window-x="0"
     inkscape:window-y="24"
     inkscape:window-maximized="1"
     units="mm"
     showguides="true"
     inkscape:guide-bbox="true"
     inkscape:snap-global="true" />
  <metadata
     id="metadata4245">
    <rdf:RDF>
      <cc:Work
         rdf:about="">
        <dc:format>image/svg+xml</dc:format>
        <dc:type
           rdf:resource="http://purl.org/dc/dcmitype/StillImage" />
        <dc:title />
      </cc:Work>
    </rdf:RDF>
  </metadata>
  <g
     inkscape:label="Layer 1"
     inkscape:groupmode="layer"
     id="layer1">
    <g
       id="g11877"
       transform="translate(0,5.076483)">
      <g
         id="g10998"
         transform="matrix(2.640167,0,0,2.640167,-11184.254,-5035.3731)">
        <rect
           y="1964.6368"
           x="4387.1011"
           height="41.948322"
           width="190.57492"
           id="rect12598"
           style="fill:#000000;fill-opacity:1;stroke:none" />
        <text
           sodipodi:linespacing="125%"
           id="text12606"
           y="1998.2994"
           x="4400.1211"
           style="font-size:36.25273895px;font-style:normal;font-variant:normal;font-weight:normal;font-stretch:normal;text-align:start;line-height:125%;letter-spacing:0px;word-spacing:0px;writing-mode:lr-tb;text-anchor:start;fill:#ffffff;fill-opacity:1;stroke:none;font-family:Bebas Neue;-inkscape-font-specification:Bebas Neue"
           xml:space="preserve"><tspan
             y="1998.2994"
             x="4400.1211"
             id="tspan12608"
             sodipodi:role="line"
             style="fill:#ffffff">PARTITO PIRATA</tspan></text>
        <path
           transform="matrix(1.0724512,0,0,1.0724512,-358.3379,-171.81948)"
           d="m 4432.1452,2010.3737 c 0,26.1651 -21.211,47.3761 -47.3762,47.3761 -26.1651,0 -47.3761,-21.211 -47.3761,-47.3761 0,-26.1652 21.211,-47.3762 47.3761,-47.3762 26.1652,0 47.3762,21.211 47.3762,47.3762 z"
           sodipodi:ry="47.376156"
           sodipodi:rx="47.376156"
           sodipodi:cy="2010.3737"
           sodipodi:cx="4384.769"
           id="path12612"
           style="fill:#ffffff;fill-opacity:1;stroke:none"
           sodipodi:type="arc" />
        <g
           transform="translate(-65.0538,2e-6)"
           id="g12614">
          <path
             transform="matrix(0.9498449,0,0,0.9498449,244.31619,74.664987)"
             d="m 4432.1452,2010.3737 a 47.376156,47.376156 0 1 1 -94.7523,0 47.376156,47.376156 0 1 1 94.7523,0 z"
             sodipodi:ry="47.376156"
             sodipodi:rx="47.376156"
             sodipodi:cy="2010.3737"
             sodipodi:cx="4384.769"
             id="path12616"
             style="fill:#ffffff;fill-opacity:1;stroke:#000000;stroke-width:4.21121407;stroke-miterlimit:4;stroke-opacity:1;stroke-dasharray:none"
             sodipodi:type="arc" />
          <path
             d="m 4389.2703,1950.0212 0,5.1606 c -4.2788,1.5354 -7.3122,3.6085 -8.1036,5.886 1.5614,-0.3523 4.5884,-0.818 8.1036,-0.9385 l 0,36.6374 c -11.9623,9.767 4.6489,23.6284 4.6489,23.6284 0,0 -10.9347,-19.4969 6.27,-22.2209 7.005,-2.1384 38.2766,0.2291 40.6888,-18.8946 3.6395,-25.8182 -27.9827,-29.7297 -46.7026,-25.4625 l 0,-3.7956 -4.9051,0 z m 4.9051,10.1936 c 9.3929,0.6803 19.4471,4.6865 16.1646,18.9797 -2.0657,9.1842 -11.0088,12.2054 -16.1646,14.5866 l 0,-33.566 z"
             id="path12618"
             inkscape:connector-curvature="0" />
        </g>
      </g>
      <g
         transform="matrix(2.640167,0,0,2.640167,-11184.254,-4707.9672)"
         id="g11830">
        <rect
           style="fill:#000000;fill-opacity:1;stroke:none"
           id="rect11832"
           width="190.57492"
           height="41.948322"
           x="4387.1011"
           y="1964.6368" />
        <text
           xml:space="preserve"
           style="font-size:36.25273895px;font-style:normal;font-variant:normal;font-weight:normal;font-stretch:normal;text-align:start;line-height:125%;letter-spacing:0px;word-spacing:0px;writing-mode:lr-tb;text-anchor:start;fill:#ffffff;fill-opacity:1;stroke:none;font-family:Bebas Neue;-inkscape-font-specification:Bebas Neue"
           x="4400.1211"
           y="1998.2994"
           id="text11834"
           sodipodi:linespacing="125%"><tspan
             sodipodi:role="line"
             id="tspan11836"
             x="4400.1211"
             y="1998.2994"><tspan
   id="tspan11838"
   style="fill:#ff6600;fill-opacity:1">PARTITO</tspan> PIRATA</tspan></text>
        <path
           sodipodi:type="arc"
           style="fill:#ffffff;fill-opacity:1;stroke:none"
           id="path11840"
           sodipodi:cx="4384.769"
           sodipodi:cy="2010.3737"
           sodipodi:rx="47.376156"
           sodipodi:ry="47.376156"
           d="m 4432.1452,2010.3737 c 0,26.1651 -21.211,47.3761 -47.3762,47.3761 -26.1651,0 -47.3761,-21.211 -47.3761,-47.3761 0,-26.1652 21.211,-47.3762 47.3761,-47.3762 26.1652,0 47.3762,21.211 47.3762,47.3762 z"
           transform="matrix(1.0724512,0,0,1.0724512,-358.3379,-171.81948)" />
        <g
           id="g11842"
           transform="translate(-65.0538,2e-6)">
          <path
             sodipodi:type="arc"
             style="fill:#ffffff;fill-opacity:1;stroke:#000000;stroke-width:4.21121407;stroke-miterlimit:4;stroke-opacity:1;stroke-dasharray:none"
             id="path11844"
             sodipodi:cx="4384.769"
             sodipodi:cy="2010.3737"
             sodipodi:rx="47.376156"
             sodipodi:ry="47.376156"
             d="m 4432.1452,2010.3737 a 47.376156,47.376156 0 1 1 -94.7523,0 47.376156,47.376156 0 1 1 94.7523,0 z"
             transform="matrix(0.9498449,0,0,0.9498449,244.31619,74.664987)" />
          <path
             inkscape:connector-curvature="0"
             id="path11846"
             d="m 4389.2703,1950.0212 0,5.1606 c -4.2788,1.5354 -7.3122,3.6085 -8.1036,5.886 1.5614,-0.3523 4.5884,-0.818 8.1036,-0.9385 l 0,36.6374 c -11.9623,9.767 4.6489,23.6284 4.6489,23.6284 0,0 -10.9347,-19.4969 6.27,-22.2209 7.005,-2.1384 38.2766,0.2291 40.6888,-18.8946 3.6395,-25.8182 -27.9827,-29.7297 -46.7026,-25.4625 l 0,-3.7956 -4.9051,0 z m 4.9051,10.1936 c 9.3929,0.6803 19.4471,4.6865 16.1646,18.9797 -2.0657,9.1842 -11.0088,12.2054 -16.1646,14.5866 l 0,-33.566 z" />
        </g>
      </g>
    </g>
  </g>
</svg>
