<?xml version="1.0" encoding="UTF-8" standalone="no"?>
<!-- Created with Inkscape (http://www.inkscape.org/) -->
<svg xmlns:dc="http://purl.org/dc/elements/1.1/" xmlns:cc="http://creativecommons.org/ns#" xmlns:rdf="http://www.w3.org/1999/02/22-rdf-syntax-ns#" xmlns:svg="http://www.w3.org/2000/svg" xmlns="http://www.w3.org/2000/svg" xmlns:xlink="http://www.w3.org/1999/xlink" xmlns:sodipodi="http://sodipodi.sourceforge.net/DTD/sodipodi-0.dtd" xmlns:inkscape="http://www.inkscape.org/namespaces/inkscape" id="svg2460" sodipodi:version="0.32" inkscape:version="0.48.3.1 r9886" width="1325.5211" height="387.86639" version="1.0" sodipodi:docname="bebaslogo.svg" inkscape:output_extension="org.inkscape.output.svg.inkscape" inkscape:export-filename="/RAM/bebaslogo.png" inkscape:export-xdpi="52.759998" inkscape:export-ydpi="52.759998">
  <metadata id="metadata2465">
    <rdf:RDF>
      <cc:Work rdf:about="">
        <dc:format>image/svg+xml</dc:format>
        <dc:type rdf:resource="http://purl.org/dc/dcmitype/StillImage"/>
        <dc:title/>
      </cc:Work>
    </rdf:RDF>
  </metadata>
  <defs id="defs2463">
    <inkscape:perspective sodipodi:type="inkscape:persp3d" inkscape:vp_x="0 : 526.18109 : 1" inkscape:vp_y="0 : 1000 : 0" inkscape:vp_z="744.09448 : 526.18109 : 1" inkscape:persp3d-origin="372.04724 : 350.78739 : 1" id="perspective2467"/>
    <clipPath id="clipPath4124" clipPathUnits="userSpaceOnUse">
      <path id="path4126" d="m 11.4038,405.826 257.3102,0 0,-383.0408 -257.3102,0 0,383.0408 z" inkscape:connector-curvature="0"/>
    </clipPath>
    <clipPath id="clipPath4116" clipPathUnits="userSpaceOnUse">
      <path id="path4118" d="m 0,425.2 283.46,0 L 283.46,0 0,0 0,425.2 z" inkscape:connector-curvature="0"/>
    </clipPath>
    <inkscape:perspective id="perspective4108" inkscape:persp3d-origin="372.04724 : 350.78739 : 1" inkscape:vp_z="744.09448 : 526.18109 : 1" inkscape:vp_y="0 : 1000 : 0" inkscape:vp_x="0 : 526.18109 : 1" sodipodi:type="inkscape:persp3d"/>
    <inkscape:perspective sodipodi:type="inkscape:persp3d" inkscape:vp_x="0 : 231.5 : 1" inkscape:vp_y="0 : 1000 : 0" inkscape:vp_z="463 : 231.5 : 1" inkscape:persp3d-origin="231.5 : 154.33333 : 1" id="perspective2538"/>
    <inkscape:perspective sodipodi:type="inkscape:persp3d" inkscape:vp_x="0 : 231.5 : 1" inkscape:vp_y="0 : 1000 : 0" inkscape:vp_z="463 : 231.5 : 1" inkscape:persp3d-origin="231.5 : 154.33333 : 1" id="perspective3813"/>
    <inkscape:perspective id="perspective2461" inkscape:persp3d-origin="231.5 : 154.33333 : 1" inkscape:vp_z="463 : 231.5 : 1" inkscape:vp_y="0 : 1000 : 0" inkscape:vp_x="0 : 231.5 : 1" sodipodi:type="inkscape:persp3d"/>
    <inkscape:perspective sodipodi:type="inkscape:persp3d" inkscape:vp_x="0 : 231.5 : 1" inkscape:vp_y="0 : 1000 : 0" inkscape:vp_z="463 : 231.5 : 1" inkscape:persp3d-origin="231.5 : 154.33333 : 1" id="perspective3638"/>
    <inkscape:perspective sodipodi:type="inkscape:persp3d" inkscape:vp_x="0 : 197.6095 : 1" inkscape:vp_y="0 : 1000 : 0" inkscape:vp_z="3390.47 : 197.6095 : 1" inkscape:persp3d-origin="1695.235 : 131.73966 : 1" id="perspective3521"/>
    <inkscape:perspective sodipodi:type="inkscape:persp3d" inkscape:vp_x="0 : 526.18109 : 1" inkscape:vp_y="0 : 1000 : 0" inkscape:vp_z="744.09448 : 526.18109 : 1" inkscape:persp3d-origin="372.04724 : 350.78739 : 1" id="perspective2434"/>
    <inkscape:perspective id="perspective2508" inkscape:persp3d-origin="231.5 : 154.33333 : 1" inkscape:vp_z="463 : 231.5 : 1" inkscape:vp_y="0 : 1000 : 0" inkscape:vp_x="0 : 231.5 : 1" sodipodi:type="inkscape:persp3d"/>
    <inkscape:perspective id="perspective2471" inkscape:persp3d-origin="231.5 : 154.33333 : 1" inkscape:vp_z="463 : 231.5 : 1" inkscape:vp_y="0 : 1000 : 0" inkscape:vp_x="0 : 231.5 : 1" sodipodi:type="inkscape:persp3d"/>
    <inkscape:perspective sodipodi:type="inkscape:persp3d" inkscape:vp_x="0 : 315 : 1" inkscape:vp_y="0 : 1000 : 0" inkscape:vp_z="945 : 315 : 1" inkscape:persp3d-origin="472.5 : 210 : 1" id="perspective2846"/>
    <g id="g2849">
      <g id="g2851">
        <path inkscape:connector-curvature="0" id="path2853" d="M 0,0 0,1 0.5,1 0,0 z" transform="matrix(0.9510565,0.309017,-0.309017,0.9510565,0,-1)"/>
        <use height="463" width="463" y="0" x="0" xlink:href="#t" transform="scale(-1,1)" id="use2812"/>
      </g>
      <use height="463" width="463" y="0" x="0" xlink:href="#c" transform="matrix(0.309017,0.9510565,-0.9510565,0.309017,0,0)" id="use2814"/>
      <use height="463" width="463" y="0" x="0" xlink:href="#c" transform="matrix(-0.809017,0.5877853,-0.5877853,-0.809017,0,0)" id="use2816"/>
      <use height="463" width="463" y="0" x="0" xlink:href="#c" transform="matrix(-0.809017,-0.5877853,0.5877853,-0.809017,0,0)" id="use2818"/>
      <use height="463" width="463" y="0" x="0" xlink:href="#c" transform="matrix(0.309017,-0.9510565,0.9510565,0.309017,0,0)" id="use2820"/>
    </g>
    <inkscape:perspective sodipodi:type="inkscape:persp3d" inkscape:vp_x="0 : 315 : 1" inkscape:vp_y="0 : 1000 : 0" inkscape:vp_z="945 : 315 : 1" inkscape:persp3d-origin="472.5 : 210 : 1" id="perspective2632"/>
    <g id="s">
      <g id="c">
        <path inkscape:connector-curvature="0" id="t" d="M 0,0 0,1 0.5,1 0,0 z" transform="matrix(0.9510565,0.309017,-0.309017,0.9510565,0,-1)"/>
        <use height="463" width="463" y="0" x="0" xlink:href="#t" transform="scale(-1,1)" id="use2598"/>
      </g>
      <use height="463" width="463" y="0" x="0" xlink:href="#c" transform="matrix(0.309017,0.9510565,-0.9510565,0.309017,0,0)" id="use2600"/>
      <use height="463" width="463" y="0" x="0" xlink:href="#c" transform="matrix(-0.809017,0.5877853,-0.5877853,-0.809017,0,0)" id="use2602"/>
      <use height="463" width="463" y="0" x="0" xlink:href="#c" transform="matrix(-0.809017,-0.5877853,0.5877853,-0.809017,0,0)" id="use2604"/>
      <use height="463" width="463" y="0" x="0" xlink:href="#c" transform="matrix(0.309017,-0.9510565,0.9510565,0.309017,0,0)" id="use2606"/>
    </g>
    <inkscape:perspective id="perspective10" inkscape:persp3d-origin="231.5 : 154.33333 : 1" inkscape:vp_z="463 : 231.5 : 1" inkscape:vp_y="0 : 1000 : 0" inkscape:vp_x="0 : 231.5 : 1" sodipodi:type="inkscape:persp3d"/>
    <filter inkscape:collect="always" id="filter3855" x="-0.24400705" width="1.4880141" y="-0.24400705" height="1.4880141" color-interpolation-filters="sRGB">
      <feGaussianBlur inkscape:collect="always" stdDeviation="8.4940863" id="feGaussianBlur3857"/>
    </filter>
    <filter inkscape:collect="always" id="filter3488" x="-0.86041504" width="2.72083" y="-0.21662501" height="1.43325" color-interpolation-filters="sRGB">
      <feGaussianBlur inkscape:collect="always" stdDeviation="193.7629" id="feGaussianBlur3490"/>
    </filter>
    <filter inkscape:collect="always" id="filter3580" color-interpolation-filters="sRGB">
      <feGaussianBlur inkscape:collect="always" stdDeviation="5.6520987" id="feGaussianBlur3582"/>
    </filter>
    <filter inkscape:collect="always" id="filter5457" x="-0.82812369" width="2.6562474" y="-0.23954444" height="1.4790889" color-interpolation-filters="sRGB">
      <feGaussianBlur inkscape:collect="always" stdDeviation="171.62672" id="feGaussianBlur5459"/>
    </filter>
    <clipPath id="clipPath2679" clipPathUnits="userSpaceOnUse">
      <path id="path2681" d="m 0,841.89 595.28,0 L 595.28,0 0,0 0,841.89 z" inkscape:connector-curvature="0"/>
    </clipPath>
    <inkscape:perspective id="perspective2671" inkscape:persp3d-origin="372.04724 : 350.78739 : 1" inkscape:vp_z="744.09448 : 526.18109 : 1" inkscape:vp_y="0 : 1000 : 0" inkscape:vp_x="0 : 526.18109 : 1" sodipodi:type="inkscape:persp3d"/>
    <filter inkscape:collect="always" id="filter4089" color-interpolation-filters="sRGB">
      <feGaussianBlur inkscape:collect="always" stdDeviation="3.4152778" id="feGaussianBlur4091"/>
    </filter>
  </defs>
  <sodipodi:namedview inkscape:window-height="1005" inkscape:window-width="1392" inkscape:pageshadow="2" inkscape:pageopacity="0.0" guidetolerance="10.0" gridtolerance="10.0" objecttolerance="10.0" borderopacity="1" bordercolor="#ff0000" pagecolor="#ffffff" id="base" showgrid="false" borderlayer="true" inkscape:showpageshadow="false" showborder="true" showguides="true" inkscape:guide-bbox="true" inkscape:zoom="0.83363439" inkscape:cx="723.52891" inkscape:cy="193.93318" inkscape:window-x="0" inkscape:window-y="24" inkscape:current-layer="layer1" units="px" inkscape:window-maximized="0" fit-margin-top="0" fit-margin-left="0" fit-margin-right="0" fit-margin-bottom="0"/>
  <rect style="opacity:0.22999998;fill:#ffffff;fill-opacity:1;fill-rule:nonzero;stroke:none;display:none" id="rect2516" width="482.60242" height="334.18506" x="786.60876" y="-127.47316"/>
  <g id="g4939" style="display:none" transform="translate(-271.70462,-1622.557)">
    <path inkscape:export-ydpi="37.5" inkscape:export-xdpi="37.5" inkscape:export-filename="/i/perso2/ToDO/pirates/rect3169.png" style="fill:#ffffff;stroke:#ffffff;stroke-width:14.84367657;stroke-miterlimit:4;stroke-opacity:1;stroke-dasharray:none" id="path2391" d="m 557.2425,1988.6139 c -90.28782,0 -163.48026,-73.0612 -163.48026,-163.1873 0,-90.1252 73.19244,-163.1872 163.48026,-163.1872 90.28782,0 163.48026,73.062 163.48026,163.1872 0,90.1269 -73.19244,163.1873 -163.48026,163.1873 l 0,0 z" inkscape:connector-curvature="0"/>
    <rect y="1801.3087" x="790.55072" height="163.52356" width="753.81781" id="rect3161" style="fill:#ffffff;fill-opacity:1;fill-rule:evenodd;stroke:none"/>
    <text xml:space="preserve" style="font-size:126.24524689px;font-style:normal;font-weight:normal;line-height:125%;letter-spacing:0px;word-spacing:0px;fill:#000000;fill-opacity:1;stroke:none;font-family:Sans" x="818.49652" y="1949.9065" id="text3051" sodipodi:linespacing="125%"><tspan dy="0 0 0 -1.0225983 1.0225983 -1.0225983" sodipodi:role="line" id="tspan3053" x="818.49652" y="1949.9065" style="font-style:normal;font-variant:normal;font-weight:normal;font-stretch:normal;font-family:ReservoirGrunge;-inkscape-font-specification:ReservoirGrunge" dx="4.3463231e-08 3.9055655 6.8306298 -12.416888 -26.80761 -27.771671">PIRATA</tspan></text>
    <path inkscape:export-ydpi="566.22858" inkscape:export-xdpi="566.22858" inkscape:export-filename="foo.png" d="m 557.36202,1974.1725 c -81.79447,0 -148.10181,-66.3072 -148.10181,-148.1017 0,-81.7938 66.30734,-148.1019 148.10181,-148.1019 81.79446,0 148.10171,66.3081 148.10171,148.1019 0,81.7951 -66.30725,148.1017 -148.10171,148.1017 z" id="thickc" style="fill:#ffffff;stroke:#000000;stroke-width:17.47064018;stroke-miterlimit:4;stroke-opacity:1;stroke-dasharray:none" inkscape:connector-curvature="0"/>
    <path inkscape:connector-curvature="0" inkscape:export-ydpi="566.22858" inkscape:export-xdpi="566.22858" inkscape:export-filename="foo.png" sodipodi:nodetypes="ccscccc" id="path8" d="m 470.1855,1752.0053 c 20.16183,-4.5504 113.10696,-14.7483 95.99372,59.7709 -7.40202,32.9104 -41.72188,41.8168 -57.49557,50.0947 -60.90546,31.9623 3.48131,85.5906 3.48131,85.5906 0,0 -36.05238,-64.2588 20.61169,-73.2302 23.07207,-7.0426 126.11181,0.8391 134.05619,-62.1412 16.34515,-115.9595 -183.47158,-98.0082 -196.64734,-60.0848 z"/>
    <rect inkscape:export-ydpi="566.22858" inkscape:export-xdpi="566.22858" inkscape:export-filename="foo.png" id="rect10" y="1715.7181" x="496.90295" height="165.9196" width="16.08613"/>
    <rect y="1685.663" x="743.31006" height="139.99196" width="604.88318" id="rect3072" style="fill:#000000;fill-opacity:1;stroke:#ffffff;stroke-width:0;stroke-miterlimit:4;stroke-opacity:1;stroke-dasharray:none"/>
    <text inkscape:export-ydpi="37.5" inkscape:export-xdpi="37.5" inkscape:export-filename="/i/perso2/ToDO/pirates/rect3169.png" sodipodi:linespacing="110%" id="text2393-6" y="1800.1165" x="800.53833" style="font-size:40.70846939px;font-style:normal;font-variant:normal;font-weight:normal;font-stretch:normal;text-align:start;line-height:110.00000238%;writing-mode:lr-tb;text-anchor:start;fill:#ffffff;fill-opacity:1;stroke:none;font-family:UnDotum;-inkscape-font-specification:UnDotum" xml:space="preserve"><tspan dx="-29.711765 -13.842286 3.4218481 3.1863909 4.2500887 4.2500887 -0.90059137" style="font-size:83.74602509px;font-style:normal;font-variant:normal;font-weight:bold;font-stretch:normal;fill:#ffffff;fill-opacity:1;font-family:ReservoirGrunge;-inkscape-font-specification:ReservoirGrunge Bold" y="1800.1165" x="800.53833" id="tspan2395-5" sodipodi:role="line">PARTITO</tspan><tspan id="tspan2407-6" style="font-size:83.74602509px;font-style:normal;font-variant:normal;font-weight:bold;font-stretch:normal;fill:#000000;fill-opacity:1;stroke:none;font-family:ReservoirGrunge;-inkscape-font-specification:ReservoirGrunge Bold" y="1892.2371" x="800.53833" sodipodi:role="line"/></text>
  </g>
  <g inkscape:groupmode="layer" id="layer1" inkscape:label="One" style="display:inline" transform="translate(-271.70462,-1622.557)">
    <text xml:space="preserve" style="font-size:72px;font-style:normal;font-variant:normal;font-weight:normal;font-stretch:normal;text-align:start;line-height:110.00000238%;writing-mode:lr-tb;text-anchor:start;fill:#000000;fill-opacity:1;stroke:none;display:inline;font-family:Bebas Neue;-inkscape-font-specification:Bebas Neue" x="762.23724" y="2024.672" id="text3038" sodipodi:linespacing="110%" transform="matrix(0.9969701,-0.07778566,0.07778566,0.9969701,0,0)"><tspan id="tspan2951" sodipodi:role="line" x="762.23724" y="2024.672">www.partito-pirata.it</tspan></text>
    <path inkscape:connector-curvature="0" d="m 466.08734,1994.3004 c -90.0143,7.0231 -168.6681,-60.1234 -175.6786,-149.9765 -7.0104,-89.8521 60.2771,-168.386 150.2913,-175.4091 90.0143,-7.0231 168.6681,60.1242 175.6786,149.9763 7.0106,89.8538 -60.2771,168.3862 -150.2913,175.4093 l 0,0 0,0 z" id="path4083" style="opacity:0.5;fill:#000000;stroke:#000000;stroke-width:14.84399986;stroke-miterlimit:4;stroke-opacity:1;stroke-dasharray:none;display:inline;filter:url(#filter4089)" inkscape:export-filename="/i/perso2/ToDO/pirates/rect3169.png" inkscape:export-xdpi="37.5" inkscape:export-ydpi="37.5"/>
    <rect style="fill:#000000;fill-opacity:1;fill-rule:evenodd;stroke:none" id="rect4956" width="1141.796" height="224.64374" x="302.91278" y="1737.5848" transform="matrix(0.99712454,-0.07578025,0.07984348,0.99680741,0,0)"/>
    <text xml:space="preserve" style="font-size:72px;font-style:normal;font-variant:normal;font-weight:normal;font-stretch:normal;text-align:start;line-height:110.00000238%;writing-mode:lr-tb;text-anchor:start;fill:#ff6600;fill-opacity:1;stroke:none;font-family:Bebas Neue;-inkscape-font-specification:Bebas Neue" x="514.6214" y="1922.368" id="text4987" sodipodi:linespacing="110%" transform="matrix(0.99697011,-0.07778566,0.07778566,0.99697011,0,0)"><tspan dx="0 0 0 0 0 0 0" sodipodi:role="line" id="tspan4989" x="514.6214" y="1922.368" style="font-size:200px;fill:#ff6600;fill-opacity:1"><tspan dx="0 -9.5965338 -4.7982664 -3.5986998 -1.1995666 -1.1995666 -3.5986998 10.796101 -4.5596394e-08 -3.5986998 -9.8846798 -14.682947 -14.394801" style="fill:#ffffff" id="tspan3444"><tspan style="fill:#ff6600;fill-opacity:1" id="tspan3501">partito</tspan>pirata</tspan></tspan></text>
    <path inkscape:connector-curvature="0" d="m 455.30669,1988.3027 c -90.01426,7.0231 -168.66805,-60.1234 -175.67857,-149.9765 -7.01044,-89.8521 60.27705,-168.386 150.29131,-175.4091 90.01426,-7.0231 168.66811,60.1242 175.67856,149.9763 7.01058,89.8538 -60.27705,168.3862 -150.2913,175.4093 l 0,0 0,0 z" id="path4954" style="fill:#ffffff;stroke:#ffffff;stroke-width:14.84367657;stroke-miterlimit:4;stroke-opacity:1;stroke-dasharray:none" inkscape:export-filename="/i/perso2/ToDO/pirates/rect3169.png" inkscape:export-xdpi="37.5" inkscape:export-ydpi="37.5"/>
    <path inkscape:connector-curvature="0" style="fill:#ffffff;stroke:#000000;stroke-width:17.47064018;stroke-miterlimit:4;stroke-opacity:1;stroke-dasharray:none" id="path4962" d="m 454.30251,1973.8957 c -81.54664,6.3625 -152.81082,-54.5861 -159.17326,-136.1327 -6.36239,-81.546 54.58623,-152.8109 136.13287,-159.1734 81.54663,-6.3624 152.81079,54.587 159.17318,136.133 6.36249,81.5473 -54.58616,152.8107 -136.13279,159.1731 l 0,0 z" inkscape:export-filename="foo.png" inkscape:export-xdpi="566.22858" inkscape:export-ydpi="566.22858"/>
    <path d="m 350.1087,1759.1828 c 19.74679,-6.1049 111.61706,-23.5017 100.35219,52.1228 -4.81963,33.3865 -38.34272,44.9355 -53.42471,54.4153 -58.23472,36.603 10.12848,85.0605 10.12848,85.0605 0,0 -40.94156,-61.2598 14.85298,-74.6117 22.45435,-8.8159 125.79497,-8.9731 128.81632,-72.3805 7.27564,-116.8796 -190.53931,-83.4398 -200.72526,-44.6064 l 0,0 z" id="path4964" sodipodi:nodetypes="ccscccc" inkscape:export-filename="foo.png" inkscape:export-xdpi="566.22858" inkscape:export-ydpi="566.22858" inkscape:connector-curvature="0"/>
    <rect width="16.08613" height="165.9196" x="238.92616" y="1744.799" id="rect4966" inkscape:export-filename="foo.png" inkscape:export-xdpi="566.22858" inkscape:export-ydpi="566.22858" transform="matrix(0.9969701,-0.07778566,0.07778566,0.9969701,0,0)"/>
  </g>
</svg>