<?xml version="1.0" encoding="UTF-8" standalone="no"?>
<!-- Created with Inkscape (http://www.inkscape.org/) -->
<svg xmlns:dc="http://purl.org/dc/elements/1.1/" xmlns:cc="http://creativecommons.org/ns#" xmlns:rdf="http://www.w3.org/1999/02/22-rdf-syntax-ns#" xmlns:svg="http://www.w3.org/2000/svg" xmlns="http://www.w3.org/2000/svg" xmlns:sodipodi="http://sodipodi.sourceforge.net/DTD/sodipodi-0.dtd" xmlns:inkscape="http://www.inkscape.org/namespaces/inkscape" width="1052.3622" height="744.09448" id="svg2" version="1.1" inkscape:version="0.48.1 r9760" sodipodi:docname="loghi_PP_IT.svg" inkscape:export-filename="/home/mrk25/Desktop/loghi_PP_IT.png" inkscape:export-xdpi="90" inkscape:export-ydpi="90">
  <defs id="defs4">
    <inkscape:path-effect effect="sketch" id="path-effect3190" is_visible="true" nbiter_approxstrokes="8" strokelength="70" strokelength_rdm="0.3;1" strokeoverlap="1" strokeoverlap_rdm="0.5;1" ends_tolerance="1;1" parallel_offset="10;1" tremble_size="5;1" tremble_frequency="1" nbtangents="10" tgt_places_rdmness="1;1" tgtscale="10" tgtlength="100" tgtlength_rdm="0.3;1"/>
    <inkscape:path-effect effect="rough_hatches" id="path-effect3188" is_visible="true" direction="1682.8594,239.07812 , 220.6328,0" dist_rdm="75;1" growth="0" do_bend="true" bender="1682.8594,244.07812 , 5,0" bottom_edge_variation="88.253125;1" top_edge_variation="88.253125;1" bottom_tgt_variation="0;1" top_tgt_variation="0;1" scale_bf="1" scale_bb="1" scale_tf="1" scale_tb="1" top_smth_variation="0;1" bottom_smth_variation="0;1" fat_output="true" stroke_width_top="1" stroke_width_bottom="1" front_thickness="1" back_thickness="0.25"/>
    <inkscape:path-effect effect="envelope" id="path-effect4273" is_visible="true" yy="true" xx="true" bendpath1="m 1360.5467,575.59644 118.8469,7.60695" bendpath2="m 1459.4328,573.12538 c 16.4159,45.00446 22.6489,125.34902 13.5951,176.90467" bendpath3="m 1375.6485,732.50684 83.1412,5.32467" bendpath4="m 1360.5439,576.31073 c 14.5409,54.00726 19.5378,119.40592 3.6091,173.29422" bendpath1-nodetypes="cc" bendpath2-nodetypes="cc" bendpath4-nodetypes="cc" bendpath3-nodetypes="cc"/>
    <inkscape:path-effect effect="bend_path" id="path-effect4240" is_visible="true" bendpath="m 1358.6112,652.45344 c 41.889,3.69846 87.9135,17.44217 116.0416,25.3993" prop_scale="1" scale_y_rel="false" vertical="false" bendpath-nodetypes="cc"/>
    <filter inkscape:collect="always" id="filter4802">
      <feGaussianBlur inkscape:collect="always" stdDeviation="7.475" id="feGaussianBlur4804"/>
    </filter>
  </defs>
  <sodipodi:namedview id="base" pagecolor="#f0f0f0" bordercolor="#666666" borderopacity="1.0" inkscape:pageopacity="1" inkscape:pageshadow="2" inkscape:zoom="0.70710678" inkscape:cx="590.84086" inkscape:cy="413.45535" inkscape:document-units="px" inkscape:current-layer="layer1" showgrid="true" inkscape:window-width="1440" inkscape:window-height="832" inkscape:window-x="0" inkscape:window-y="24" inkscape:window-maximized="1" showguides="true" inkscape:guide-bbox="true" inkscape:snap-global="false">
    <inkscape:grid type="xygrid" id="grid3113" empspacing="5" visible="true" enabled="true" snapvisiblegridlinesonly="true"/>
    <sodipodi:guide orientation="0,1" position="-680,800" id="guide3115"/>
    <sodipodi:guide orientation="1,0" position="240,920" id="guide3117"/>
  </sodipodi:namedview>
  <metadata id="metadata7">
    <rdf:RDF>
      <cc:Work rdf:about="">
        <dc:format>image/svg+xml</dc:format>
        <dc:type rdf:resource="http://purl.org/dc/dcmitype/StillImage"/>
        <dc:title/>
      </cc:Work>
    </rdf:RDF>
  </metadata>
  <g inkscape:label="Layer 1" inkscape:groupmode="layer" id="layer1" transform="translate(0,-308.2677)">
    <rect style="fill:#e6e6e6;fill-opacity:1;stroke:#000000;stroke-width:2;stroke-miterlimit:4;stroke-dasharray:none;opacity:0.92" id="rect3279" width="744.09448" height="1052.3622" x="-1052.3622" y="0" transform="matrix(0,-1,1,0,0,0)"/>
    <g id="g4210" transform="translate(223.49349,-1438.4572)">
      <path sodipodi:type="arc" style="fill:none;stroke:#000000" id="path4103" sodipodi:cx="364.28571" sodipodi:cy="-385.90552" sodipodi:rx="121.42857" sodipodi:ry="118.57143" d="m 485.71428,-385.90552 c 0,65.48519 -54.36543,118.57143 -121.42857,118.57143 -67.06315,0 -121.42858,-53.08624 -121.42858,-118.57143 0,-65.48519 54.36543,-118.57142 121.42858,-118.57142 67.06314,0 121.42857,53.08623 121.42857,118.57142 z" transform="matrix(2.405528,0,0,2.405528,826.8436,954.11759)"/>
      <path id="path4105" transform="translate(0,308.2677)" d="m 1702.5938,-507.03125 c -13.4327,0 -26.5943,1.20195 -39.375,3.5 l 5.6874,31.46875 c 10.9267,-1.9472 22.1909,-2.96875 33.6876,-2.96875 29.5603,0 57.5178,6.69361 82.4374,18.6875 5.6815,-8.98898 11.4067,-18.01708 17.125,-27.0625 -29.9561,-15.10625 -63.7831,-23.625 -99.5624,-23.625 z m 124.9374,38.59375 c -4.9813,9.48787 -9.9573,18.98174 -14.9062,28.40625 44.9488,31.95532 75.3127,83.02891 79.3438,141.46875 10.6449,0.42808 21.3816,0.85106 32.125,1.28125 -3.8126,-71.04054 -41.2153,-133.3005 -96.5626,-171.15625 z m -124.9374,8.875 c -10.5541,0 -20.8947,0.94193 -30.9376,2.75 l 5.6876,31.46875 c 8.1894,-1.45727 16.6319,-2.21875 25.25,-2.21875 20.1802,0 39.3529,4.16206 56.7187,11.6875 5.5704,-8.6804 11.425,-17.86606 17.3125,-27.15625 -22.4885,-10.60035 -47.5794,-16.53125 -74.0312,-16.53125 z M 1805.2812,-426 c -5.1077,9.7562 -10.1726,19.42405 -14.9062,28.59375 29.4309,23.05036 49.516,57.48172 53.7188,96.75 10.3116,0.49199 21.2351,0.9784 32.2812,1.4375 -4.1508,-51.98381 -31.2347,-97.61797 -71.0938,-126.78125 z m -102.6874,15.9375 c -7.5409,0 -14.9467,0.67643 -22.125,1.96875 l 5.6562,31.46875 c 5.3361,-0.94573 10.8511,-1.4375 16.4688,-1.4375 10.0906,0 19.795,1.58444 28.875,4.53125 5.5232,-8.09347 11.6665,-17.33146 18.1562,-27.3125 -14.5312,-5.9464 -30.4052,-9.21875 -47.0312,-9.21875 z m 79.5312,28.71875 c -5.4423,10.70316 -10.4332,20.69643 -14.6875,29.5625 13.1166,12.77865 22.452,29.40466 26.1875,48.125 9.7169,0.76219 20.7705,1.47731 32.75,2.125 -4.1992,-31.94908 -20.5514,-60.16244 -44.25,-79.8125 z m 141.5625,113.75 c -10.7643,0.43083 -21.527,0.821 -32.1875,1.25 -5.6138,57.027 -36.3508,106.55066 -81.0312,137.40625 4.9167,9.36913 9.9285,18.83641 14.9062,28.3125 55.0416,-36.72273 92.8017,-97.37242 98.3125,-166.96875 z m -47.8437,1.90625 c -11.1213,0.46292 -22.1019,0.94071 -32.4688,1.4375 -5.5536,37.85211 -25.9277,70.77511 -55.0625,92.75 4.7004,9.13425 9.7284,18.77928 14.8437,28.5625 39.5798,-28.05078 67.0119,-72.16661 72.6876,-122.75 z m -50.3438,2.34375 c -12.1954,0.66417 -23.3852,1.37079 -33.1875,2.15625 -4.5765,17.24933 -13.9627,32.49319 -26.6563,44.21875 4.1416,8.75113 9.0137,18.65647 14.4688,29.4375 23.3532,-18.56998 39.9379,-45.29877 45.375,-75.8125 z m -97.1875,67.375 c -8.163,2.33122 -16.7847,3.59375 -25.7187,3.59375 -5.2702,0 -10.4441,-0.44664 -15.4688,-1.28125 l -5.6875,31.4375 c 6.8763,1.18146 13.9512,1.8125 21.1563,1.8125 15.5243,0 30.3916,-2.87631 44.125,-8.09375 -6.6742,-10.21187 -12.8617,-19.46496 -18.4063,-27.46875 z m 28.1875,42.5625 c -16.618,6.78059 -34.8058,10.53125 -53.9062,10.53125 -8.2808,0 -16.394,-0.71481 -24.2813,-2.0625 l -5.6875,31.46875 c 9.7387,1.69559 19.7536,2.5625 29.9688,2.5625 25.3791,0 49.5034,-5.4794 71.2812,-15.28125 -5.937,-9.3561 -11.7965,-18.55412 -17.375,-27.21875 z m 25.8438,40.53125 c -24.2385,11.2082 -51.2438,17.46875 -79.75,17.46875 -11.1579,0 -22.0955,-0.97476 -32.7188,-2.8125 l -5.6875,31.4375 c 12.4773,2.18679 25.312,3.34375 38.4063,3.34375 34.7071,0 67.5931,-8.009104 96.875,-22.28125 -5.734,-9.074709 -11.4541,-18.18955 -17.125,-27.15625 z" style="fill:#000000;stroke:none" inkscape:connector-curvature="0"/>
    </g>
    <g id="g4200" transform="translate(272.45047,-1436.4369)">
      <path transform="matrix(2.405528,0,0,2.405528,30.843386,952.09728)" d="m 485.71428,-385.90552 c 0,65.48519 -54.36543,118.57143 -121.42857,118.57143 -67.06315,0 -121.42858,-53.08624 -121.42858,-118.57143 0,-65.48519 54.36543,-118.57142 121.42858,-118.57142 67.06314,0 121.42857,53.08623 121.42857,118.57142 z" sodipodi:ry="118.57143" sodipodi:rx="121.42857" sodipodi:cy="-385.90552" sodipodi:cx="364.28571" id="path4088" style="fill:none;stroke:#000000" sodipodi:type="arc"/>
      <path id="path4084" d="m 906.59375,-200.7948 c -13.43259,0 -26.59416,1.20195 -39.375,3.5 l 5.6875,31.46875 c 10.92664,-1.9472 22.19084,-2.96875 33.6875,-2.96875 105.01505,0 189.84375,84.76616 189.84375,189.78125 0,105.01509 -84.8287,189.84375 -189.84375,189.84375 -11.15785,0 -22.09547,-0.97476 -32.71875,-2.8125 l -5.6875,31.4375 c 12.47729,2.18679 25.31207,3.34375 38.40625,3.34375 122.30915,0 221.81255,-99.50332 221.81245,-221.8125 0,-122.30917 -99.5033,-221.78125 -221.81245,-221.78125 z m 0,47.46875 c -10.55393,0 -20.89457,0.94193 -30.9375,2.75 l 5.6875,31.46875 c 8.1895,-1.45727 16.63189,-2.21875 25.25,-2.21875 78.79417,0 142.31255,63.54958 142.31245,142.34375 0,78.79418 -63.51828,142.34375 -142.31245,142.34375 -8.28074,0 -16.39394,-0.71481 -24.28125,-2.0625 l -5.6875,31.46875 c 9.73872,1.69559 19.75373,2.5625 29.96875,2.5625 96.08825,0 174.34375,-78.22425 174.34375,-174.3125 0,-96.08825 -78.2555,-174.34375 -174.34375,-174.34375 z m 0,49.5 c -7.54091,0 -14.94667,0.67643 -22.125,1.96875 l 5.65625,31.46875 c 5.33611,-0.94573 10.85117,-1.4375 16.46875,-1.4375 51.45748,0 92.84375,41.38627 92.84375,92.84375 0,51.45748 -41.38627,92.84375 -92.84375,92.84375 -5.27021,0 -10.44405,-0.44664 -15.46875,-1.28125 l -5.6875,31.4375 c 6.87632,1.18146 13.95126,1.8125 21.15625,1.8125 68.75156,0 124.84375,-56.06094 124.84375,-124.8125 0,-68.75157 -56.09219,-124.84375 -124.84375,-124.84375 z" style="fill:#000000;stroke:none" inkscape:connector-curvature="0"/>
      <path transform="translate(9.9999674,302.55342)" d="m 1086.1521,-606.13627 c 14.2951,8.25331 -148.15648,284.72708 -139.90318,299.02222 8.2533,14.29514 328.91238,11.84476 328.91238,28.35137 0,16.5066 -320.65908,14.05626 -328.91238,28.3514 -8.2533,14.29514 154.19838,290.768896 139.90318,299.022198 C 1071.857,56.86422 913.64949,-222.0599 897.14288,-222.0599 c -16.5066,0 -174.71407,278.924138 -189.00921,270.670837 -14.29514,-8.253302 148.15648,-284.727077 139.90318,-299.022217 -8.25331,-14.29514 -328.91243,-11.84476 -328.91243,-28.35137 0,-16.5066 320.65913,-14.05626 328.91243,-28.3514 8.2533,-14.29514 -154.19835,-290.7689 -139.90321,-299.0222 14.29513,-8.2533 172.50264,270.67082 189.00924,270.67082 16.50661,0 174.71412,-278.92414 189.00922,-270.67084 z" inkscape:randomized="0" inkscape:rounded="0.05" inkscape:flatsided="false" sodipodi:arg2="-0.52359878" sodipodi:arg1="-1.0471976" sodipodi:r2="56.702766" sodipodi:r1="378.01846" sodipodi:cy="-278.76266" sodipodi:cx="897.14288" sodipodi:sides="6" id="path4097" style="fill:#000000;fill-opacity:1;stroke:#000000;stroke-width:1;stroke-linecap:butt;stroke-linejoin:round;stroke-miterlimit:4;stroke-opacity:1;stroke-dasharray:none;stroke-dashoffset:0" sodipodi:type="star"/>
    </g>
    <g id="g4593">
      <g transform="translate(-1342.0567,-811.69146)" id="g3079">
        <path inkscape:connector-curvature="0" d="M 231.17299,451.91098 C 109.39398,451.91098 10.673,353.19001 10.673,231.411 c 0,-121.77795 98.72098,-220.500001 220.49999,-220.500001 121.77901,0 220.49999,98.722051 220.49999,220.500001 0,121.78007 -98.72098,220.49998 -220.49999,220.49998 z" id="path2827" style="fill:#ffffff;stroke:#000000;stroke-width:22;stroke-miterlimit:4;stroke-opacity:1;stroke-dasharray:none"/>
        <path inkscape:connector-curvature="0" d="m 120.805,110.043 c 24.267,-7.07 126.586,6.86 105.678,105.837 -7.609,36.019 -49.357,53.566 -69.592,68.72 -47.901,35.873 -6.648,121.071 -6.648,121.071 0,0 -22.318,-66.267 27.382,-97.619 C 223.352,279.206 380.998,292.759 380.456,203.786 379.417,33.321 113.795,94.816 120.805,110.043 z" id="path8"/>
        <rect width="20.208" height="250.63" x="141.205" y="61.290001" id="rect10"/>
      </g>
      <g transform="translate(-126.30279,-1148.3588)" id="g4383">
        <path sodipodi:type="arc" style="fill:#ffffff;fill-opacity:1;stroke:#000000;stroke-width:24;stroke-linecap:butt;stroke-linejoin:miter;stroke-miterlimit:4;stroke-opacity:1;stroke-dasharray:none;stroke-dashoffset:0" id="path3111" sodipodi:cx="-531.42859" sodipodi:cy="643.79077" sodipodi:rx="154.28572" sodipodi:ry="154.28572" d="m -428.19129,758.44741 c -32.4947,29.25835 -75.87816,43.35449 -119.36455,38.78389" transform="translate(11.172866,-75.712459)" sodipodi:start="0.83775804" sodipodi:end="1.6755161" sodipodi:open="true"/>
        <path transform="translate(11.172866,-75.712459)" sodipodi:open="true" sodipodi:end="5.4454273" sodipodi:start="4.6076692" d="m -547.55584,490.35024 c 43.48639,-4.5706 86.86986,9.52554 119.36455,38.7839" sodipodi:ry="154.28572" sodipodi:rx="154.28572" sodipodi:cy="643.79077" sodipodi:cx="-531.42859" id="path3887" style="fill:#ffffff;fill-opacity:1;stroke:#000000;stroke-width:24;stroke-linecap:butt;stroke-linejoin:miter;stroke-miterlimit:4;stroke-opacity:1;stroke-dasharray:none;stroke-dashoffset:0" sodipodi:type="arc"/>
        <path sodipodi:type="arc" style="fill:#ffffff;fill-opacity:1;stroke:#000000;stroke-width:24;stroke-linecap:butt;stroke-linejoin:miter;stroke-miterlimit:4;stroke-opacity:1;stroke-dasharray:none;stroke-dashoffset:0" id="path3889" sodipodi:cx="-531.42859" sodipodi:cy="643.79077" sodipodi:rx="154.28572" sodipodi:ry="154.28572" d="m -390.48157,581.03712 c 17.78494,39.94561 17.78494,85.56169 0,125.5073" sodipodi:start="5.8643063" sodipodi:end="6.7020643" sodipodi:open="true" transform="translate(11.172866,-75.712459)"/>
        <path transform="translate(11.172866,-75.712459)" d="m -377.14287,643.79077 c 0,85.20965 -69.07607,154.28572 -154.28572,154.28572 -85.20965,0 -154.28572,-69.07607 -154.28572,-154.28572 0,-85.20965 69.07607,-154.28572 154.28572,-154.28572 85.20965,0 154.28572,69.07607 154.28572,154.28572 z" sodipodi:ry="154.28572" sodipodi:rx="154.28572" sodipodi:cy="643.79077" sodipodi:cx="-531.42859" id="path3891" style="fill:none;stroke:#000000;stroke-width:1;stroke-linecap:round;stroke-linejoin:round;stroke-miterlimit:4;stroke-opacity:1;stroke-dasharray:none;stroke-dashoffset:0" sodipodi:type="arc"/>
        <path sodipodi:open="true" sodipodi:end="1.6755161" sodipodi:start="0.83775804" transform="matrix(0.66037288,0,0,0.66037288,-166.68258,142.93635)" d="m -428.19129,758.44741 c -32.4947,29.25835 -75.87816,43.35449 -119.36455,38.78389" sodipodi:ry="154.28572" sodipodi:rx="154.28572" sodipodi:cy="643.79077" sodipodi:cx="-531.42859" id="path3901" style="fill:#ffffff;fill-opacity:1;stroke:#000000;stroke-width:36.34310532;stroke-linecap:butt;stroke-linejoin:miter;stroke-miterlimit:4;stroke-opacity:1;stroke-dasharray:none;stroke-dashoffset:0" sodipodi:type="arc"/>
        <path sodipodi:type="arc" style="fill:#ffffff;fill-opacity:1;stroke:#000000;stroke-width:36.34310532;stroke-linecap:butt;stroke-linejoin:miter;stroke-miterlimit:4;stroke-opacity:1;stroke-dasharray:none;stroke-dashoffset:0" id="path3903" sodipodi:cx="-531.42859" sodipodi:cy="643.79077" sodipodi:rx="154.28572" sodipodi:ry="154.28572" d="m -547.55584,490.35024 c 43.48639,-4.5706 86.86986,9.52554 119.36455,38.7839" sodipodi:start="4.6076692" sodipodi:end="5.4454273" sodipodi:open="true" transform="matrix(0.66037288,0,0,0.66037288,-166.68258,142.93635)"/>
        <path transform="matrix(0.66037288,0,0,0.66037288,-166.68258,142.93635)" sodipodi:open="true" sodipodi:end="6.7020643" sodipodi:start="5.8643063" d="m -390.48157,581.03712 c 17.78494,39.94561 17.78494,85.56169 0,125.5073" sodipodi:ry="154.28572" sodipodi:rx="154.28572" sodipodi:cy="643.79077" sodipodi:cx="-531.42859" id="path3905" style="fill:#ffffff;fill-opacity:1;stroke:#000000;stroke-width:36.34310532;stroke-linecap:butt;stroke-linejoin:miter;stroke-miterlimit:4;stroke-opacity:1;stroke-dasharray:none;stroke-dashoffset:0" sodipodi:type="arc"/>
        <path sodipodi:type="arc" style="fill:none;stroke:#000000;stroke-width:1.51429594;stroke-linecap:round;stroke-linejoin:round;stroke-miterlimit:4;stroke-opacity:1;stroke-dasharray:none;stroke-dashoffset:0" id="path3907" sodipodi:cx="-531.42859" sodipodi:cy="643.79077" sodipodi:rx="154.28572" sodipodi:ry="154.28572" d="m -377.14287,643.79077 c 0,85.20965 -69.07607,154.28572 -154.28572,154.28572 -85.20965,0 -154.28572,-69.07607 -154.28572,-154.28572 0,-85.20965 69.07607,-154.28572 154.28572,-154.28572 85.20965,0 154.28572,69.07607 154.28572,154.28572 z" transform="matrix(0.66037288,0,0,0.66037288,-166.68258,142.93635)"/>
        <path sodipodi:type="arc" style="fill:#ffffff;fill-opacity:1;stroke:#000000;stroke-width:73.51091003;stroke-linecap:butt;stroke-linejoin:miter;stroke-miterlimit:4;stroke-opacity:1;stroke-dasharray:none;stroke-dashoffset:0" id="path3911" sodipodi:cx="-531.42859" sodipodi:cy="643.79077" sodipodi:rx="154.28572" sodipodi:ry="154.28572" d="m -428.19129,758.44741 c -32.4947,29.25835 -75.87816,43.35449 -119.36455,38.78389" transform="matrix(0.32648216,0,0,0.32648216,-340.20318,357.89211)" sodipodi:start="0.83775804" sodipodi:end="1.6755161" sodipodi:open="true"/>
        <path transform="matrix(0.32648216,0,0,0.32648216,-340.20318,357.89211)" sodipodi:open="true" sodipodi:end="5.4454273" sodipodi:start="4.6076692" d="m -547.55584,490.35024 c 43.48639,-4.5706 86.86986,9.52554 119.36455,38.7839" sodipodi:ry="154.28572" sodipodi:rx="154.28572" sodipodi:cy="643.79077" sodipodi:cx="-531.42859" id="path3913" style="fill:#ffffff;fill-opacity:1;stroke:#000000;stroke-width:73.51091003;stroke-linecap:butt;stroke-linejoin:miter;stroke-miterlimit:4;stroke-opacity:1;stroke-dasharray:none;stroke-dashoffset:0" sodipodi:type="arc"/>
        <path sodipodi:type="arc" style="fill:#ffffff;fill-opacity:1;stroke:#000000;stroke-width:73.51091003;stroke-linecap:butt;stroke-linejoin:miter;stroke-miterlimit:4;stroke-opacity:1;stroke-dasharray:none;stroke-dashoffset:0" id="path3915" sodipodi:cx="-531.42859" sodipodi:cy="643.79077" sodipodi:rx="154.28572" sodipodi:ry="154.28572" d="m -390.48157,581.03712 c 17.78494,39.94561 17.78494,85.56169 0,125.5073" sodipodi:start="5.8643063" sodipodi:end="6.7020643" sodipodi:open="true" transform="matrix(0.32648216,0,0,0.32648216,-340.20318,357.89211)"/>
        <path transform="matrix(0.32648216,0,0,0.32648216,-340.20318,357.89211)" d="m -377.14287,643.79077 c 0,85.20965 -69.07607,154.28572 -154.28572,154.28572 -85.20965,0 -154.28572,-69.07607 -154.28572,-154.28572 0,-85.20965 69.07607,-154.28572 154.28572,-154.28572 85.20965,0 154.28572,69.07607 154.28572,154.28572 z" sodipodi:ry="154.28572" sodipodi:rx="154.28572" sodipodi:cy="643.79077" sodipodi:cx="-531.42859" id="path3917" style="fill:none;stroke:#000000;stroke-width:3.06295443;stroke-linecap:round;stroke-linejoin:round;stroke-miterlimit:4;stroke-opacity:1;stroke-dasharray:none;stroke-dashoffset:0" sodipodi:type="arc"/>
        <path sodipodi:open="true" sodipodi:end="1.6755161" sodipodi:start="0.83775804" transform="translate(11.172866,-75.712459)" d="m -428.19129,758.44741 c -32.4947,29.25835 -75.87816,43.35449 -119.36455,38.78389" sodipodi:ry="154.28572" sodipodi:rx="154.28572" sodipodi:cy="643.79077" sodipodi:cx="-531.42859" id="path3921" style="fill:#ffffff;fill-opacity:1;stroke:#000000;stroke-width:24;stroke-linecap:butt;stroke-linejoin:miter;stroke-miterlimit:4;stroke-opacity:1;stroke-dasharray:none;stroke-dashoffset:0" sodipodi:type="arc"/>
        <path sodipodi:type="arc" style="fill:#ffffff;fill-opacity:1;stroke:#000000;stroke-width:24;stroke-linecap:butt;stroke-linejoin:miter;stroke-miterlimit:4;stroke-opacity:1;stroke-dasharray:none;stroke-dashoffset:0" id="path3923" sodipodi:cx="-531.42859" sodipodi:cy="643.79077" sodipodi:rx="154.28572" sodipodi:ry="154.28572" d="m -547.55584,490.35024 c 43.48639,-4.5706 86.86986,9.52554 119.36455,38.7839" sodipodi:start="4.6076692" sodipodi:end="5.4454273" sodipodi:open="true" transform="translate(11.172866,-75.712459)"/>
        <path transform="translate(11.172866,-75.712459)" sodipodi:open="true" sodipodi:end="6.7020643" sodipodi:start="5.8643063" d="m -390.48157,581.03712 c 17.78494,39.94561 17.78494,85.56169 0,125.5073" sodipodi:ry="154.28572" sodipodi:rx="154.28572" sodipodi:cy="643.79077" sodipodi:cx="-531.42859" id="path3925" style="fill:#000000;fill-opacity:1;stroke:#000000;stroke-width:24;stroke-linecap:butt;stroke-linejoin:miter;stroke-miterlimit:4;stroke-opacity:1;stroke-dasharray:none;stroke-dashoffset:0" sodipodi:type="arc"/>
        <path sodipodi:type="arc" style="fill:none;stroke:#000000;stroke-width:1;stroke-linecap:round;stroke-linejoin:round;stroke-miterlimit:4;stroke-opacity:1;stroke-dasharray:none;stroke-dashoffset:0" id="path3927" sodipodi:cx="-531.42859" sodipodi:cy="643.79077" sodipodi:rx="154.28572" sodipodi:ry="154.28572" d="m -377.14287,643.79077 c 0,85.20965 -69.07607,154.28572 -154.28572,154.28572 -85.20965,0 -154.28572,-69.07607 -154.28572,-154.28572 0,-85.20965 69.07607,-154.28572 154.28572,-154.28572 85.20965,0 154.28572,69.07607 154.28572,154.28572 z" transform="translate(11.172866,-75.712459)"/>
      </g>
      <g transform="translate(-81.303587,-1074.1368)" id="g4038">
        <path style="font-size:medium;font-style:normal;font-variant:normal;font-weight:normal;font-stretch:normal;text-indent:0;text-align:start;text-decoration:none;line-height:normal;letter-spacing:normal;word-spacing:normal;text-transform:none;direction:ltr;block-progression:tb;writing-mode:lr-tb;text-anchor:start;baseline-shift:baseline;color:#000000;fill:#000000;fill-opacity:1;stroke:none;stroke-width:31.18333435;marker:none;visibility:visible;display:inline;overflow:visible;enable-background:accumulate;font-family:Sans;-inkscape-font-specification:Sans" d="m -99.12253,319.53539 c -96.08825,0 -174.32387,78.23562 -174.32387,174.32387 0,96.08825 78.23562,174.32387 174.32387,174.32387 96.088253,0 174.323874,-78.23562 174.323874,-174.32387 0,-96.08825 -78.235621,-174.32387 -174.323874,-174.32387 z m 0,32.00427 c 78.794175,0 142.319601,63.52543 142.319601,142.3196 0,78.79418 -63.525426,142.35167 -142.319601,142.35167 -78.79418,0 -142.3196,-63.55749 -142.3196,-142.35167 0,-78.79417 63.52542,-142.3196 142.3196,-142.3196 z" id="path3923-1" inkscape:connector-curvature="0"/>
        <path style="font-size:medium;font-style:normal;font-variant:normal;font-weight:normal;font-stretch:normal;text-indent:0;text-align:start;text-decoration:none;line-height:normal;letter-spacing:normal;word-spacing:normal;text-transform:none;direction:ltr;block-progression:tb;writing-mode:lr-tb;text-anchor:start;baseline-shift:baseline;color:#000000;fill:#000000;fill-opacity:1;stroke:none;stroke-width:45.36611938;marker:none;visibility:visible;display:inline;overflow:visible;enable-background:accumulate;font-family:Sans;-inkscape-font-specification:Sans" d="m -99.119693,369.03351 c -68.751567,0 -124.828837,56.07727 -124.828837,124.82884 0,68.75156 56.07727,124.82883 124.828837,124.82883 68.751562,0 124.828835,-56.07727 124.828835,-124.82883 0,-68.75157 -56.077273,-124.82884 -124.828835,-124.82884 z m 0,32.00627 c 51.457479,0 92.8446143,41.36509 92.8446143,92.82257 0,51.45748 -41.3871353,92.84461 -92.8446143,92.84461 -51.457477,0 -92.822567,-41.38713 -92.822567,-92.84461 0,-51.45748 41.36509,-92.82257 92.822567,-92.82257 z" id="path4022" inkscape:connector-curvature="0"/>
        <path style="font-size:medium;font-style:normal;font-variant:normal;font-weight:normal;font-stretch:normal;text-indent:0;text-align:start;text-decoration:none;line-height:normal;letter-spacing:normal;word-spacing:normal;text-transform:none;direction:ltr;block-progression:tb;writing-mode:lr-tb;text-anchor:start;baseline-shift:baseline;color:#000000;fill:#000000;fill-opacity:1;stroke:none;stroke-width:23.98959732;marker:none;visibility:visible;display:inline;overflow:visible;enable-background:accumulate;font-family:Sans;-inkscape-font-specification:Sans" d="m -99.125283,272.05187 c -122.309177,0 -221.804467,99.4953 -221.804467,221.80447 0,122.30918 99.49529,221.80447 221.804467,221.80447 122.309174,0 221.804473,-99.49529 221.804473,-221.80447 0,-122.30917 -99.495299,-221.80447 -221.804473,-221.80447 z m 0,32.01388 c 105.015091,0 189.832281,84.7755 189.832281,189.79059 0,105.01509 -84.81719,189.83228 -189.832281,189.83228 -105.015087,0 -189.790597,-84.81719 -189.790597,-189.83228 0,-105.01509 84.77551,-189.79059 189.790597,-189.79059 z" id="path4024" inkscape:connector-curvature="0"/>
      </g>
      <g transform="translate(171.28909,-615.49979)" id="g4205">
        <path sodipodi:type="arc" style="fill:#b3b3b3;stroke:none" id="path4075" sodipodi:cx="364.28571" sodipodi:cy="-385.90552" sodipodi:rx="121.42857" sodipodi:ry="118.57143" d="m 343.19986,-502.67558 c 66.04431,-11.37138 129.02426,31.69003 140.66965,96.18036 11.64539,64.49032 -32.45365,125.98838 -98.49796,137.35976 -13.94964,2.40182 -28.22206,2.40182 -42.1717,0 l 21.08586,-116.77006 z" transform="matrix(2.405528,0,0,2.405528,-634.8709,963.52585)" sodipodi:start="4.5378561" sodipodi:end="8.0285146"/>
        <path style="font-size:medium;font-style:normal;font-variant:normal;font-weight:normal;font-stretch:normal;text-indent:0;text-align:start;text-decoration:none;line-height:normal;letter-spacing:normal;word-spacing:normal;text-transform:none;direction:ltr;block-progression:tb;writing-mode:lr-tb;text-anchor:start;baseline-shift:baseline;color:#000000;fill:#000000;fill-opacity:1;stroke:none;stroke-width:31.18333435;marker:none;visibility:visible;display:inline;overflow:visible;enable-background:accumulate;font-family:Sans;-inkscape-font-specification:Sans" d="m 240.87054,-189.36623 c -122.30918,0 -221.812504,99.472081 -221.812504,221.781251 0,122.309179 99.503324,221.812499 221.812504,221.812499 122.30917,0 221.8125,-99.50332 221.8125,-221.812499 0,-122.30917 -99.50333,-221.781251 -221.8125,-221.781251 z m 0,32 c 105.01509,0 189.84375,84.766161 189.84375,189.781251 0,105.015089 -84.82866,189.843749 -189.84375,189.843749 -105.01509,0 -189.781254,-84.82866 -189.781254,-189.843749 0,-105.01509 84.766164,-189.781251 189.781254,-189.781251 z m 0,15.46875 c -96.08825,0 -174.312504,78.255501 -174.312504,174.343751 0,96.088249 78.224254,174.312499 174.312504,174.312499 96.08825,0 174.34375,-78.22425 174.34375,-174.312499 0,-96.08825 -78.2555,-174.343751 -174.34375,-174.343751 z m 0,32 c 78.79417,0 142.3125,63.549581 142.3125,142.343751 0,78.794179 -63.51833,142.343749 -142.3125,142.343749 -78.79418,0 -142.312504,-63.54957 -142.312504,-142.343749 0,-78.79417 63.518324,-142.343751 142.312504,-142.343751 z m 0,17.500001 c -68.75157,0 -124.8125,56.09218 -124.8125,124.84375 0,68.751559 56.06093,124.812499 124.8125,124.812499 68.75156,0 124.84375,-56.06094 124.84375,-124.812499 0,-68.75157 -56.09219,-124.84375 -124.84375,-124.84375 z m 0,32 c 51.45748,0 92.84375,41.38627 92.84375,92.84375 0,51.45748 -41.38627,92.843749 -92.84375,92.843749 -51.45748,0 -92.8125,-41.386269 -92.8125,-92.843749 0,-51.45748 41.35502,-92.84375 92.8125,-92.84375 z" id="path4045" inkscape:connector-curvature="0"/>
        <path transform="matrix(2.405528,0,0,2.405528,-634.8709,963.52585)" d="m 485.71428,-385.90552 c 0,65.48519 -54.36543,118.57143 -121.42857,118.57143 -67.06315,0 -121.42858,-53.08624 -121.42858,-118.57143 0,-65.48519 54.36543,-118.57142 121.42858,-118.57142 67.06314,0 121.42857,53.08623 121.42857,118.57142 z" sodipodi:ry="118.57143" sodipodi:rx="121.42857" sodipodi:cy="-385.90552" sodipodi:cx="364.28571" id="path4082" style="fill:none;stroke:#000000" sodipodi:type="arc"/>
      </g>
      <g transform="translate(-1375.314,-595.99)" id="g4214">
        <path transform="matrix(2.405528,0,0,2.405528,1576.3768,944.01606)" d="m 485.71428,-385.90552 c 0,65.48519 -54.36543,118.57143 -121.42857,118.57143 -67.06315,0 -121.42858,-53.08624 -121.42858,-118.57143 0,-65.48519 54.36543,-118.57142 121.42858,-118.57142 67.06314,0 121.42857,53.08623 121.42857,118.57142 z" sodipodi:ry="118.57143" sodipodi:rx="121.42857" sodipodi:cy="-385.90552" sodipodi:cx="364.28571" id="path4117" style="fill:none;stroke:#000000" sodipodi:type="arc"/>
        <path inkscape:connector-curvature="0" id="path4119" d="m 2452.1272,-208.87602 c -13.4326,0 -26.5942,1.20195 -39.375,3.5 l 5.6875,31.46875 c 10.9266,-1.9472 22.1908,-2.96875 33.6875,-2.96875 105.015,0 189.8437,84.76616 189.8437,189.78125 0,105.01509 -84.8287,189.84375 -189.8437,189.84375 -11.1579,0 -22.0955,-0.97476 -32.7188,-2.8125 l -5.6875,31.4375 c 12.4773,2.18679 25.3121,3.34375 38.4063,3.34375 122.3091,0 221.8125,-99.50332 221.8124,-221.8125 0,-122.30917 -99.5033,-221.78125 -221.8125,-221.78125 z m 0,47.46875 c -10.554,0 -20.8946,0.94193 -30.9375,2.75 l 5.6875,31.46875 c 8.1894,-1.45727 16.6318,-2.21875 25.25,-2.21875 78.7941,0 142.3125,63.54958 142.3124,142.34375 0,78.79418 -63.5183,142.34375 -142.3125,142.34375 -8.2807,0 -16.3939,-0.71481 -24.2812,-2.0625 l -5.6875,31.46875 c 9.7387,1.69559 19.7537,2.5625 29.9688,2.5625 96.0882,0 174.3437,-78.22425 174.3437,-174.3125 0,-96.08825 -78.2555,-174.34375 -174.3437,-174.34375 z m 0,49.5 c -7.541,0 -14.9467,0.67643 -22.125,1.96875 l 5.6562,31.46875 c 5.3361,-0.94573 10.8512,-1.4375 16.4688,-1.4375 51.4574,0 92.8437,41.38627 92.8437,92.84375 0,51.45748 -41.3863,92.84375 -92.8437,92.84375 -5.2703,0 -10.4441,-0.44664 -15.4688,-1.28125 l -5.6875,31.4375 c 6.8763,1.18146 13.9513,1.8125 21.1563,1.8125 68.7515,0 124.8437,-56.06094 124.8437,-124.8125 0,-68.75157 -56.0922,-124.84375 -124.8437,-124.84375 z" style="fill:#000000;stroke:none"/>
        <path transform="matrix(0.8660254,-0.5,0.5,0.8660254,1815.1091,705.69653)" style="fill:#000000;fill-opacity:1;stroke:#000000;stroke-width:1;stroke-linecap:butt;stroke-linejoin:round;stroke-miterlimit:4;stroke-opacity:1;stroke-dashoffset:0" d="m 946.24892,-307.11405 c 8.2533,14.29514 328.91238,11.84476 328.91238,28.35137 0,16.5066 -320.65908,14.05626 -328.91238,28.3514 -8.2533,14.29514 154.19838,290.768896 139.90318,299.022198 C 1071.857,56.86422 913.64949,-222.0599 897.14288,-222.0599 z" id="path4121" inkscape:connector-curvature="0" sodipodi:nodetypes="cssscc"/>
      </g>
      <g transform="translate(-1391.1067,-598.01031)" id="g4219">
        <path sodipodi:type="arc" style="fill:none;stroke:#000000" id="path4126" sodipodi:cx="364.28571" sodipodi:cy="-385.90552" sodipodi:rx="121.42857" sodipodi:ry="118.57143" d="m 485.71428,-385.90552 c 0,65.48519 -54.36543,118.57143 -121.42857,118.57143 -67.06315,0 -121.42858,-53.08624 -121.42858,-118.57143 0,-65.48519 54.36543,-118.57142 121.42858,-118.57142 67.06314,0 121.42857,53.08623 121.42857,118.57142 z" transform="matrix(2.405528,0,0,2.405528,2291.5648,946.03637)"/>
        <path inkscape:connector-curvature="0" style="fill:#000000;stroke:none" d="m 3167.3125,-515.125 c -13.4326,0 -26.5942,1.20195 -39.375,3.5 l 5.6875,31.46875 c 10.9266,-1.9472 22.1908,-2.96875 33.6875,-2.96875 65.5938,0 123.3161,33.08033 157.4063,83.5 9.3887,-4.92962 18.821,-9.90759 28.2812,-14.875 -39.6457,-60.54429 -108.0615,-100.625 -185.6875,-100.625 z m 0,47.46875 c -10.554,0 -20.8946,0.94193 -30.9375,2.75 l 5.6875,31.46875 c 8.1894,-1.45727 16.6318,-2.21875 25.25,-2.21875 47.271,0 89.0481,22.87258 114.9063,58.1875 9.1266,-4.70928 18.7822,-9.75719 28.5,-14.84375 -31.505,-45.47465 -84.0541,-75.34375 -143.4063,-75.34375 z m 0,49.5 c -7.541,0 -14.9467,0.67643 -22.125,1.96875 l 5.6563,31.46875 c 5.336,-0.94573 10.8511,-1.4375 16.4687,-1.4375 27.8382,0 52.734,12.10778 69.7187,31.375 8.767,-4.20459 18.6432,-9.12571 29.2188,-14.5 -22.8605,-29.6838 -58.7283,-48.875 -98.9375,-48.875 z m 200.2187,29.40625 c -9.0754,5.73637 -18.1535,11.46512 -27.1562,17.15625 10.777,23.8446 16.7812,50.33053 16.7812,78.25 0,29.61008 -6.7422,57.61116 -18.7812,82.5625 8.9496,5.65926 18.0161,11.37717 27.0625,17.09375 15.1375,-29.97773 23.6875,-63.8421 23.6875,-99.65625 0,-34.14138 -7.7555,-66.4906 -21.5938,-95.40625 z m -40.5,25.625 c -9.3539,5.93027 -18.6009,11.80966 -27.3124,17.40625 6.3898,16.20635 9.9062,33.88909 9.9062,52.40625 0,20.21515 -4.1717,39.4199 -11.7188,56.8125 8.6612,5.5718 17.8554,11.39255 27.1876,17.3125 10.6252,-22.50659 16.5624,-47.6401 16.5624,-74.125 0,-24.80984 -5.231,-48.42042 -14.625,-69.8125 z m -42.4062,27.15625 c -10.1756,6.62827 -19.4965,12.85698 -27.625,18.4375 2.0649,7.71916 3.1562,15.8283 3.1562,24.21875 0,10.0801 -1.5903,19.77198 -4.5312,28.84375 7.9947,5.51365 17.1917,11.63325 27.2812,18.21875 5.9549,-14.5372 9.25,-30.42404 9.25,-47.0625 0,-14.96991 -2.6609,-29.33507 -7.5312,-42.65625 z M 3233.4375,-228 c -16.8091,17.01777 -40.1893,27.53125 -66.125,27.53125 -5.2703,0 -10.4441,-0.44664 -15.4687,-1.28125 l -5.6876,31.4375 c 6.8763,1.18146 13.9513,1.8125 21.1563,1.8125 38.3941,0 72.8473,-17.49285 95.7813,-44.90625 -10.8611,-5.49765 -20.8451,-10.42249 -29.6563,-14.59375 z m 45.75,22.84375 c -26.0253,33.03663 -66.4099,54.1875 -111.875,54.1875 -8.2807,0 -16.3939,-0.71481 -24.2813,-2.0625 l -5.6874,31.46875 c 9.7386,1.69559 19.7536,2.5625 29.9687,2.5625 57.582,0 108.7604,-28.08805 140.5313,-71.28125 -9.8116,-5.13093 -19.4912,-10.15726 -28.6563,-14.875 z m 42.6875,22.21875 c -34.4034,48.12478 -90.7623,79.4375 -154.5625,79.4375 -11.1579,0 -22.0955,-0.97476 -32.7187,-2.8125 l -5.6876,31.4375 c 12.4774,2.18679 25.3121,3.34375 38.4063,3.34375 75.8457,0 142.9207,-38.26284 182.9375,-96.5 -9.4921,-4.98584 -18.9848,-9.97808 -28.375,-14.90625 z" transform="translate(0,308.2677)" id="path4128"/>
      </g>
    </g>
    <g id="g4137" transform="matrix(0.5,0,0,0.5,-30.732265,369.00385)">
      <g id="g3103" transform="translate(186.68415,529.52262)">
        <path style="fill:#ffffff;stroke:#000000;stroke-width:44;stroke-miterlimit:4;stroke-opacity:1;stroke-dasharray:none" id="path3105" d="M 231.17299,451.91098 C 109.39398,451.91098 10.673,353.19001 10.673,231.411 c 0,-121.77795 98.72098,-220.500001 220.49999,-220.500001 121.77901,0 220.49999,98.722051 220.49999,220.500001 0,121.78007 -98.72098,220.49998 -220.49999,220.49998 z" inkscape:connector-curvature="0"/>
        <path id="path3107" d="m 120.805,110.043 c 24.267,-7.07 126.586,6.86 105.678,105.837 -7.609,36.019 -49.357,53.566 -69.592,68.72 -47.901,35.873 -6.648,121.071 -6.648,121.071 0,0 -22.318,-66.267 27.382,-97.619 C 223.352,279.206 380.998,292.759 380.456,203.786 379.417,33.321 113.795,94.816 120.805,110.043 z" inkscape:connector-curvature="0"/>
        <rect id="rect3109" y="61.290001" x="141.205" height="250.63" width="20.208"/>
      </g>
      <path id="path4135" d="m 464.56925,637.49321 c -4.74241,0 -9.38915,0.42536 -13.90142,1.23863 l 2.00798,11.13656 c 3.85765,-0.6891 7.83451,-1.05063 11.89344,-1.05063 23.15801,0 43.537,11.70687 55.57259,29.55 3.31471,-1.74454 6.6448,-3.5062 9.98475,-5.26413 -13.99699,-21.42618 -38.15134,-35.61043 -65.55734,-35.61043 z m 0,16.79883 c -3.72611,0 -7.37689,0.33334 -10.92256,0.97322 l 2.008,11.13654 c 2.89127,-0.51571 5.87187,-0.78519 8.91456,-0.78519 16.68911,0 31.4386,8.09443 40.56789,20.5921 3.22217,-1.66656 6.63109,-3.45299 10.06198,-5.2531 -11.1229,-16.09313 -29.67546,-26.66357 -50.62987,-26.66357 z m 0,17.51768 c -2.66237,0 -5.27697,0.23937 -7.81129,0.69672 l 1.99699,11.13655 c 1.88387,-0.33467 3.83099,-0.50871 5.8143,-0.50871 9.82833,0 18.61785,4.28485 24.61432,11.10336 3.0952,-1.48798 6.58201,-3.22952 10.31575,-5.13143 -8.07093,-10.50487 -20.73413,-17.29649 -34.93007,-17.29649 z m 70.68761,10.40663 c -3.20408,2.03007 -6.40913,4.05743 -9.58755,6.07149 3.80483,8.43841 5.92464,17.81158 5.92464,27.69207 0,10.47877 -2.38036,20.38815 -6.63075,29.21825 3.15968,2.00275 6.36064,4.02627 9.55449,6.04933 5.34431,-10.60888 8.3629,-22.59322 8.3629,-35.26758 0,-12.08239 -2.73809,-23.5305 -7.62373,-33.76356 z m -14.29861,9.06851 c -3.30241,2.09868 -6.56709,4.17934 -9.64271,6.15994 2.25595,5.7353 3.49741,11.99309 3.49741,18.54616 0,7.15399 -1.47282,13.95041 -4.13733,20.1055 3.05785,1.97184 6.30387,4.03175 9.59863,6.12678 3.75124,-7.96492 5.84738,-16.85947 5.84738,-26.23228 0,-8.78001 -1.84681,-17.13561 -5.16338,-24.7061 z m -14.9716,9.61038 c -3.59251,2.34569 -6.88328,4.55 -9.75306,6.52489 0.72902,2.73176 1.1143,5.60152 1.1143,8.57083 0,3.56728 -0.56146,6.99717 -1.59975,10.20759 2.82256,1.95124 6.06957,4.11692 9.63169,6.44748 2.10239,-5.14461 3.26574,-10.76684 3.26574,-16.65507 0,-5.29773 -0.93944,-10.38145 -2.65892,-15.09572 z m -18.07184,38.20932 c -5.93448,6.02246 -14.18893,9.7431 -23.34556,9.7431 -1.86069,0 -3.68731,-0.15805 -5.46125,-0.45343 l -2.00803,11.1255 c 2.4277,0.4181 4.92553,0.64143 7.46928,0.64143 13.5551,0 25.71888,-6.19058 33.81577,-15.89198 -3.83453,-1.94558 -7.3594,-3.68844 -10.47021,-5.16462 z m 16.15213,8.08423 c -9.18829,11.69141 -23.44615,19.17654 -39.49769,19.17654 -2.92352,0 -5.7879,-0.25297 -8.57256,-0.72991 l -2.00795,11.13658 c 3.43822,0.60001 6.97404,0.90685 10.58051,0.90685 20.32943,0 38.39806,-9.94017 49.61485,-25.22592 -3.46401,-1.81578 -6.88141,-3.59456 -10.11716,-5.26414 z m 15.0709,7.86305 c -12.14619,17.03097 -32.04381,28.11233 -54.56859,28.11233 -3.93933,0 -7.80087,-0.34497 -11.5514,-0.99531 l -2.00802,11.12548 c 4.40515,0.77386 8.93648,1.18332 13.55942,1.18332 26.77748,0 50.45843,-13.54093 64.58644,-34.15062 -3.3512,-1.76445 -6.70261,-3.53116 -10.01785,-5.2752 z" style="fill:#ffffff;stroke:none" inkscape:connector-curvature="0"/>
    </g>
    <g id="g4446" transform="translate(29.446713,-214.82861)">
      <g transform="matrix(0.5,0,0,0.5,274.40392,698.34865)" id="g4146">
        <path inkscape:connector-curvature="0" d="M 231.17299,451.91098 C 109.39398,451.91098 10.673,353.19001 10.673,231.411 c 0,-121.77795 98.72098,-220.500001 220.49999,-220.500001 121.77901,0 220.49999,98.722051 220.49999,220.500001 0,121.78007 -98.72098,220.49998 -220.49999,220.49998 z" id="path4148" style="fill:#ffffff;stroke:#000000;stroke-width:44;stroke-miterlimit:4;stroke-opacity:1;stroke-dasharray:none"/>
        <path inkscape:connector-curvature="0" d="m 120.805,110.043 c 24.267,-7.07 126.586,6.86 105.678,105.837 -7.609,36.019 -49.357,53.566 -69.592,68.72 -47.901,35.873 -6.648,121.071 -6.648,121.071 0,0 -22.318,-66.267 27.382,-97.619 C 223.352,279.206 380.998,292.759 380.456,203.786 379.417,33.321 113.795,94.816 120.805,110.043 z" id="path4150"/>
        <rect width="20.208" height="250.63" x="141.205" y="61.290001" id="rect4152"/>
      </g>
      <g transform="matrix(0.5,0,0,0.46255192,5.295305,490.37915)" id="g4187">
        <path inkscape:connector-curvature="0" id="path4172" d="m 815.10449,572.43173 c -4.88935,0 -9.68006,0.43854 -14.33214,1.27701 l 2.07019,11.48161 c 3.97718,-0.71045 8.07726,-1.08318 12.26195,-1.08318 23.87555,0 44.88596,12.0696 57.29447,30.46559 3.41741,-1.7986 6.85068,-3.61484 10.29412,-5.42724 -14.43068,-22.09005 -39.33343,-36.71379 -67.58859,-36.71379 z" style="fill:#ff0000;stroke:none"/>
        <path inkscape:connector-curvature="0" id="path4170" d="m 815.10449,589.75106 c -3.84156,0 -7.60545,0.34366 -11.26098,1.00337 l 2.07021,11.4816 c 2.98086,-0.53169 6.05381,-0.80952 9.19077,-0.80952 17.20621,0 32.41271,8.34523 41.82486,21.23013 3.32201,-1.7182 6.83655,-3.55998 10.37374,-5.41586 -11.46753,-16.59177 -30.59493,-27.48972 -52.1986,-27.48972 z" style="fill:#ffffff;stroke:none"/>
        <path inkscape:connector-curvature="0" id="path4168" d="m 815.10449,607.81151 c -2.74486,0 -5.44047,0.24679 -8.05331,0.71831 l 2.05886,11.4816 c 1.94224,-0.34504 3.94969,-0.52447 5.99445,-0.52447 10.13286,0 19.19471,4.41761 25.37698,11.44739 3.1911,-1.53408 6.78595,-3.32958 10.63538,-5.29042 -8.32101,-10.83036 -21.37657,-17.83241 -36.01236,-17.83241 z" style="fill:#00d400;stroke:none"/>
        <path inkscape:connector-curvature="0" id="path4166" d="m 887.98231,618.54058 c -3.30336,2.09297 -6.60772,4.18315 -9.88462,6.25961 3.92272,8.69987 6.10821,18.36346 6.10821,28.55009 0,10.80345 -2.45411,21.01986 -6.8362,30.12355 3.25758,2.06481 6.55772,4.15103 9.85053,6.23677 5.5099,-10.93759 8.62202,-23.29326 8.62202,-36.36032 0,-12.45675 -2.82293,-24.25958 -7.85994,-34.8097 z" style="fill:#ff0000;stroke:none"/>
        <path inkscape:connector-curvature="0" id="path4164" d="m 873.24066,627.89007 c -3.40473,2.16371 -6.77056,4.30884 -9.94148,6.3508 2.32585,5.91301 3.60578,12.36469 3.60578,19.1208 0,7.37565 -1.51846,14.38265 -4.26553,20.72846 3.1526,2.03293 6.4992,4.15667 9.89604,6.31661 3.86747,-8.21171 6.02856,-17.38185 6.02856,-27.04507 0,-9.05205 -1.90403,-17.66654 -5.32337,-25.4716 z" style="fill:#ffffff;stroke:none"/>
        <path inkscape:connector-curvature="0" id="path4162" d="m 857.80518,637.79822 c -3.70382,2.41837 -7.09655,4.69098 -10.05525,6.72706 0.75161,2.8164 1.14883,5.77508 1.14883,8.83639 0,3.67781 -0.57886,7.21397 -1.64932,10.52387 2.91001,2.01169 6.25763,4.24448 9.93012,6.64725 2.16753,-5.30402 3.36692,-11.10045 3.36692,-17.17112 0,-5.46188 -0.96854,-10.70311 -2.7413,-15.56345 z" style="fill:#00d400;stroke:none"/>
        <path inkscape:connector-curvature="0" id="path4160" d="m 839.1734,677.19143 c -6.11836,6.20906 -14.62856,10.04498 -24.06891,10.04498 -1.91834,0 -3.80156,-0.16295 -5.63046,-0.46748 l -2.07025,11.47022 c 2.50292,0.43105 5.07815,0.6613 7.70071,0.6613 13.9751,0 26.51576,-6.38239 34.86353,-16.38438 -3.95334,-2.00586 -7.58743,-3.80272 -10.79462,-5.32464 z" style="fill:#00d400;stroke:none"/>
        <path inkscape:connector-curvature="0" id="path4158" d="m 855.82599,685.52614 c -9.47298,12.05366 -24.17261,19.77071 -40.7215,19.77071 -3.0141,0 -5.96723,-0.2608 -8.83817,-0.75252 l -2.07017,11.48164 c 3.54476,0.6186 7.19013,0.93494 10.90834,0.93494 20.95933,0 39.5878,-10.24815 51.15213,-26.00752 -3.57134,-1.87204 -7.09462,-3.70594 -10.43063,-5.42725 z" style="fill:#ffffff;stroke:none"/>
        <path inkscape:connector-curvature="0" id="path4154" d="m 871.36385,693.63282 c -12.52253,17.55867 -33.03666,28.98337 -56.25936,28.98337 -4.06138,0 -8.04257,-0.35566 -11.90931,-1.02615 l -2.07024,11.4702 c 4.54165,0.79784 9.21338,1.21998 13.97955,1.21998 27.60716,0 52.02185,-13.96048 66.58761,-35.20875 -3.45504,-1.81912 -6.91029,-3.64057 -10.32825,-5.43865 z" style="fill:#ff0000;stroke:none"/>
      </g>
    </g>
    <g id="g4275" transform="matrix(0.5,0,0,0.5,-227.4771,541.76756)">
      <g id="g4263" transform="translate(1113.7748,469.7503)">
        <path style="fill:#ffffff;stroke:#000000;stroke-width:44;stroke-miterlimit:4;stroke-opacity:1;stroke-dasharray:none" id="path4265" d="M 231.17299,451.91098 C 109.39398,451.91098 10.673,353.19001 10.673,231.411 c 0,-121.77795 98.72098,-220.500001 220.49999,-220.500001 121.77901,0 220.49999,98.722051 220.49999,220.500001 0,121.78007 -98.72098,220.49998 -220.49999,220.49998 z" inkscape:connector-curvature="0"/>
        <path id="path4267" d="m 120.805,110.043 c 24.267,-7.07 126.586,6.86 105.678,105.837 -7.609,36.019 -49.357,53.566 -69.592,68.72 -47.901,35.873 -6.648,121.071 -6.648,121.071 0,0 -22.318,-66.267 27.382,-97.619 C 223.352,279.206 380.998,292.759 380.456,203.786 379.417,33.321 113.795,94.816 120.805,110.043 z" inkscape:connector-curvature="0"/>
        <rect id="rect4269" y="61.290001" x="141.205" height="250.63" width="20.208"/>
      </g>
      <path id="path4271" d="m 1385.8379,576.78612 c -5.9455,-0.60858 -11.7202,-0.75277 -17.0618,-0.43616 1.0694,3.86388 2.1941,7.75476 3.3391,11.67599 4.2849,-0.39098 8.904,-0.36197 13.6966,0.077 5.8334,0.53424 11.616,1.64452 17.0926,3.1986 5.4766,1.55408 10.6474,3.54989 15.4117,5.89254 4.7643,2.34265 9.1271,5.03126 13.1026,8.0371 3.9755,3.00584 7.5697,6.33264 10.8255,9.9959 0,0 0,0 0,0 2.2347,2.51333 4.3054,5.17963 6.2082,7.99971 3.5909,-1.68001 7.1425,-3.44799 10.5805,-5.32682 -0.6951,-1.04311 -1.4053,-2.06525 -2.1304,-3.06681 0,0 0,0 0,0 -3.7105,-5.12591 -7.7751,-9.68694 -12.3432,-13.78984 -4.5682,-4.10291 -9.6598,-7.76871 -15.4918,-11.03765 -5.832,-3.26895 -12.4267,-6.1388 -19.7282,-8.42111 -7.3015,-2.28231 -15.3123,-3.9602 -23.5014,-4.79842 0,0 0,-10e-6 0,-10e-6 z m 0.1925,16.87778 c -4.2858,-0.36099 -8.4062,-0.33706 -12.242,0.0844 1.1579,3.95133 2.3215,7.93453 3.4662,11.95084 2.9947,-0.42151 6.1924,-0.52159 9.5267,-0.30026 5.0177,0.33308 10.0191,1.36673 14.7703,2.94057 4.7513,1.57384 9.2529,3.68808 13.3817,6.24284 6.7852,4.19352 12.5629,9.56015 17.0532,15.83816 3.5463,-1.47877 7.314,-3.08061 11.0756,-4.75056 -2.6051,-3.79706 -5.5636,-7.30871 -8.8583,-10.52274 -5.9807,-5.83828 -13.0813,-10.69296 -21.2556,-14.40626 -4.0872,-1.85665 -8.4367,-3.42079 -12.9637,-4.62653 -4.5271,-1.20574 -9.2316,-2.05265 -13.9541,-2.45044 0,0 0,0 0,0 z m 1.2616,18.29166 c -2.8519,-0.15948 -5.5945,-0.0316 -8.1718,0.37795 0.1653,0.60082 0.33,1.20235 0.4941,1.80458 0.9384,3.45384 1.8494,6.92232 2.7217,10.39997 1.8731,-0.3375 3.852,-0.47338 5.9032,-0.40005 5.0824,0.1817 10.0974,1.62176 14.6215,3.95789 4.524,2.33613 8.5599,5.57256 11.8016,9.43933 3.2962,-1.33752 7.0599,-2.8775 11.1391,-4.55438 -3.256,-4.36435 -7.2347,-8.22122 -11.7695,-11.42249 -4.5348,-3.20128 -9.636,-5.75224 -15.0451,-7.4389 -3.7987,-1.18638 -7.7443,-1.94299 -11.6948,-2.1639 0,0 0,0 0,0 z m 77.4142,15.58914 c -3.3052,2.26166 -6.7358,4.39818 -10.195,6.4409 3.5755,7.74816 5.9941,16.38856 6.4503,25.44451 0.031,0.60829 0.052,1.21817 0.064,1.82943 0.024,1.11795 0.017,2.24081 -0.023,3.36718 -0.2038,5.78448 -1.2693,11.34398 -3.1188,16.50953 -1.8495,5.16556 -4.4797,9.93391 -7.6569,14.19603 3.2855,2.5421 6.6729,5.13458 10.1496,7.73375 4.3283,-5.09418 7.914,-10.93572 10.3403,-17.32575 2.4264,-6.39003 3.6872,-13.32206 3.7269,-20.50356 0.01,-1.39753 -0.03,-2.78948 -0.1089,-4.17357 -0.036,-0.62575 -0.08,-1.24991 -0.1325,-1.87229 -0.4846,-5.74438 -1.6692,-11.33186 -3.3221,-16.63727 -1.6529,-5.3054 -3.7687,-10.32802 -6.1743,-15.00889 z m -15.3586,9.42685 c -3.6408,2.05577 -7.2728,4.02727 -10.6839,5.88362 1.9334,5.10067 3.1022,10.56073 3.2936,16.1873 0.02,0.59337 0.029,1.18837 0.027,1.78471 -0,0.75573 -0.021,1.51383 -0.058,2.27373 -0.3819,7.68926 -2.6517,14.77802 -6.2491,20.8633 3.0658,2.41666 6.3417,4.97677 9.7142,7.60973 2.7019,-3.86618 4.9343,-8.14059 6.5235,-12.74062 1.5893,-4.60002 2.533,-9.52344 2.7558,-14.6433 0.044,-1.00557 0.06,-2.00852 0.048,-3.00772 -0.01,-0.60537 -0.021,-1.20948 -0.047,-1.8121 -0.3321,-7.89322 -2.2905,-15.48358 -5.3247,-22.39865 0,0 0,0 0,0 z m -16.5798,9.10137 c -3.9618,2.18154 -7.5536,4.2339 -10.6512,6.10131 0.4919,2.04081 0.7975,4.13772 0.9013,6.27334 0.028,0.58635 0.041,1.17546 0.039,1.76696 0,0 0,0 0,0 -0,0.39966 -0.01,0.80048 -0.024,1.20234 -0.1442,3.79861 -0.9292,7.38815 -2.2237,10.68709 2.8036,2.28545 6.0267,4.85361 9.5772,7.66601 2.7441,-5.14806 4.4649,-10.99715 4.7661,-17.29099 0.03,-0.63114 0.046,-1.26092 0.048,-1.88897 0,0 0,0 0,0 0,-0.5932 -0.01,-1.18498 -0.029,-1.77504 -0.164,-4.39208 -1.0028,-8.67751 -2.4036,-12.74205 z m -20.9812,38.96569 c -3.2493,2.95553 -6.9885,5.32822 -11.0282,7.06869 -4.0397,1.74047 -8.3895,2.85667 -12.9144,3.2022 -1.8389,0.14041 -3.6357,0.14168 -5.3718,0.0145 -0.8817,3.22075 -1.8066,6.40518 -2.7633,9.54388 -0.2087,0.684 -0.4187,1.36562 -0.63,2.04482 2.4385,0.10658 4.9454,0.0426 7.4928,-0.19653 6.5914,-0.61882 12.8027,-2.27314 18.5815,-4.76487 6.1203,-2.63614 11.8056,-6.24576 16.6577,-10.92146 -3.6719,-2.30914 -7.0433,-4.31935 -10.0243,-5.99123 0,0 0,0 0,0 z m 15.4715,9.49808 c -2.8766,2.77073 -6.0181,5.19055 -9.3203,7.29035 -4.7357,3.01448 -9.7854,5.37411 -15.1164,7.18915 -5.331,1.81504 -10.9723,3.09981 -16.9858,3.72447 -2.9546,0.30692 -5.8767,0.43115 -8.7368,0.36547 -1.2178,3.71586 -2.4611,7.35082 -3.6892,10.90017 3.7285,-0.0379 7.4787,-0.3143 11.1962,-0.77228 5.0109,-0.61734 9.6973,-1.53177 14.1526,-2.66212 4.4553,-1.13035 8.6911,-2.47925 12.825,-4.08871 4.1339,-1.60946 8.1724,-3.48471 12.1175,-5.7302 3.945,-2.24549 7.7947,-4.86675 11.4014,-7.94712 0,0 0,0 0,0 0.6557,-0.55953 1.303,-1.13375 1.9404,-1.72286 -3.3801,-2.30524 -6.6759,-4.51484 -9.7846,-6.54632 z m 14.649,9.87993 c -4.1407,3.72986 -8.6222,6.83747 -13.1778,9.43987 -4.5555,2.6024 -9.1784,4.70926 -13.8589,6.50351 -4.6806,1.79425 -9.4292,3.28566 -14.4686,4.57124 -5.0393,1.28557 -10.3912,2.37057 -16.2582,3.15051 -4.1043,0.54563 -8.2943,0.90632 -12.5,1.02402 -1.2,3.46302 -2.36,6.83999 -3.4162,10.13275 5.3618,-0.314 10.5621,-0.90791 15.4949,-1.6639 7.143,-1.09473 13.3078,-2.42571 18.995,-3.84494 5.6872,-1.41923 10.9443,-2.93635 16.2962,-4.76131 5.352,-1.82497 10.8198,-3.97638 16.4135,-6.80966 5.5938,-2.83327 11.2952,-6.36821 16.5823,-10.80245 -3.4585,-2.35367 -6.8245,-4.68107 -10.1022,-6.93964 0,0 0,0 0,0 z" style="fill:#ffffff;stroke:none" inkscape:connector-curvature="0" inkscape:path-effect="#path-effect4273" inkscape:original-d="m 1382.9208,575.79572 c -4.8816,-0.27518 -9.6894,-0.10693 -14.3813,0.46835 l 1.4207,11.57993 c 4.0109,-0.48549 8.1255,-0.62686 12.3035,-0.39133 23.8378,1.34378 44.1356,14.57677 55.489,33.64199 3.5132,-1.60342 7.0433,-3.22354 10.5832,-4.83927 -13.1645,-22.86722 -37.2046,-38.86938 -65.4151,-40.45966 z m -0.9747,17.29188 c -3.8355,-0.21622 -7.6128,-0.0849 -11.2997,0.36799 l 1.4207,11.57991 c 3.0062,-0.36308 6.0898,-0.46752 9.2218,-0.29096 17.179,0.96842 31.8916,10.15628 40.5637,23.5505 3.4135,-1.5285 7.026,-3.16956 10.6621,-4.82341 -10.5155,-17.21088 -28.9992,-29.16811 -50.5686,-30.38403 z m -1.0165,18.03183 c -2.7406,-0.15449 -5.4458,-0.0598 -8.081,0.26391 l 1.4094,11.57927 c 1.9586,-0.23517 3.9729,-0.30134 6.0144,-0.18625 10.1169,0.57031 18.9156,5.49094 24.6925,12.85753 3.2724,-1.35204 6.9626,-2.94238 10.9163,-4.68345 -7.6983,-11.28153 -20.3391,-19.00727 -34.9516,-19.83101 z m 72.1584,14.81381 c -3.4159,1.90374 -6.8326,3.80462 -10.2212,5.69336 3.4268,8.90686 5.065,18.67813 4.4916,28.84862 -0.6081,10.78632 -3.6333,20.84842 -8.5208,29.69104 3.1362,2.24488 6.3137,4.51354 9.4839,6.7813 6.1167,-10.61015 9.9194,-22.77106 10.6549,-35.81741 0.701,-12.43701 -1.4532,-24.38001 -5.8884,-35.19691 z m -15.2445,8.50497 c -3.5212,1.96866 -7.0023,3.92095 -10.2831,5.78121 1.9892,6.03453 2.9041,12.54803 2.5239,19.29343 -0.4152,7.36396 -2.3256,14.27439 -5.4255,20.45552 3.0332,2.20715 6.2549,4.51588 9.5248,6.86358 4.3236,-7.98102 6.9973,-17.015 7.5412,-26.6629 0.5095,-9.03769 -0.9067,-17.7457 -3.8813,-25.73084 z m -15.9686,9.0237 c -3.8341,2.20608 -7.3494,4.28413 -10.418,6.15045 0.5919,2.85425 0.822,5.8306 0.6497,8.88706 -0.2069,3.67198 -0.984,7.16995 -2.239,10.41436 2.7922,2.17228 6.0088,4.58994 9.5403,7.1956 2.4625,-5.17361 3.9863,-10.89336 4.3279,-16.9544 0.3074,-5.45322 -0.3646,-10.74067 -1.8609,-15.69307 z m -20.8194,38.28212 c -6.4583,5.85486 -15.1708,9.20572 -24.5962,8.6744 -1.9152,-0.10797 -3.7864,-0.37666 -5.5953,-0.78364 l -2.7125,11.33552 c 2.4747,0.57124 5.0329,0.94606 7.6513,1.09366 13.953,0.78656 26.833,-4.87988 35.7304,-14.39619 -3.8341,-2.22518 -7.3614,-4.22373 -10.4777,-5.92375 z m 16.157,9.25875 c -10.1364,11.50139 -25.247,18.37888 -41.7697,17.44746 -3.0093,-0.16964 -5.943,-0.59624 -8.7818,-1.24877 l -2.713,11.34693 c 3.5042,0.81713 7.126,1.33814 10.8383,1.54741 20.9262,1.17965 40.1019,-8.0038 52.5349,-23.08732 -3.4604,-2.07007 -6.8748,-4.09937 -10.1087,-6.00571 z m 15.057,8.96835 c -13.491,16.82602 -34.6156,27.07803 -57.8014,25.77099 -4.055,-0.22858 -8.0098,-0.80775 -11.8327,-1.69481 l -2.7126,11.33551 c 4.4896,1.05218 9.1301,1.73659 13.8888,2.00485 27.5634,1.5538 52.7251,-11.01043 68.4636,-31.40522 -3.347,-2.01069 -6.6944,-4.02373 -10.0057,-6.01132 z"/>
    </g>
    <g id="g4631" transform="matrix(0.12893985,0,0,0.12893985,733.55356,461.69036)">
      <g id="g4633" transform="translate(-1342.0567,-811.69146)">
        <path style="fill:#ffffff;stroke:#000000;stroke-width:22;stroke-miterlimit:4;stroke-opacity:1;stroke-dasharray:none" id="path4635" d="M 231.17299,451.91098 C 109.39398,451.91098 10.673,353.19001 10.673,231.411 c 0,-121.77795 98.72098,-220.500001 220.49999,-220.500001 121.77901,0 220.49999,98.722051 220.49999,220.500001 0,121.78007 -98.72098,220.49998 -220.49999,220.49998 z" inkscape:connector-curvature="0"/>
        <path id="path4637" d="m 120.805,110.043 c 24.267,-7.07 126.586,6.86 105.678,105.837 -7.609,36.019 -49.357,53.566 -69.592,68.72 -47.901,35.873 -6.648,121.071 -6.648,121.071 0,0 -22.318,-66.267 27.382,-97.619 C 223.352,279.206 380.998,292.759 380.456,203.786 379.417,33.321 113.795,94.816 120.805,110.043 z" inkscape:connector-curvature="0"/>
        <rect id="rect4639" y="61.290001" x="141.205" height="250.63" width="20.208"/>
      </g>
      <g id="g4641" transform="translate(-126.30279,-1148.3588)">
        <path sodipodi:open="true" sodipodi:end="1.6755161" sodipodi:start="0.83775804" transform="translate(11.172866,-75.712459)" d="m -428.19129,758.44741 c -32.4947,29.25835 -75.87816,43.35449 -119.36455,38.78389" sodipodi:ry="154.28572" sodipodi:rx="154.28572" sodipodi:cy="643.79077" sodipodi:cx="-531.42859" id="path4643" style="fill:#ffffff;fill-opacity:1;stroke:#000000;stroke-width:24;stroke-linecap:butt;stroke-linejoin:miter;stroke-miterlimit:4;stroke-opacity:1;stroke-dasharray:none;stroke-dashoffset:0" sodipodi:type="arc"/>
        <path sodipodi:type="arc" style="fill:#ffffff;fill-opacity:1;stroke:#000000;stroke-width:24;stroke-linecap:butt;stroke-linejoin:miter;stroke-miterlimit:4;stroke-opacity:1;stroke-dasharray:none;stroke-dashoffset:0" id="path4645" sodipodi:cx="-531.42859" sodipodi:cy="643.79077" sodipodi:rx="154.28572" sodipodi:ry="154.28572" d="m -547.55584,490.35024 c 43.48639,-4.5706 86.86986,9.52554 119.36455,38.7839" sodipodi:start="4.6076692" sodipodi:end="5.4454273" sodipodi:open="true" transform="translate(11.172866,-75.712459)"/>
        <path transform="translate(11.172866,-75.712459)" sodipodi:open="true" sodipodi:end="6.7020643" sodipodi:start="5.8643063" d="m -390.48157,581.03712 c 17.78494,39.94561 17.78494,85.56169 0,125.5073" sodipodi:ry="154.28572" sodipodi:rx="154.28572" sodipodi:cy="643.79077" sodipodi:cx="-531.42859" id="path4647" style="fill:#ffffff;fill-opacity:1;stroke:#000000;stroke-width:24;stroke-linecap:butt;stroke-linejoin:miter;stroke-miterlimit:4;stroke-opacity:1;stroke-dasharray:none;stroke-dashoffset:0" sodipodi:type="arc"/>
        <path sodipodi:type="arc" style="fill:none;stroke:#000000;stroke-width:1;stroke-linecap:round;stroke-linejoin:round;stroke-miterlimit:4;stroke-opacity:1;stroke-dasharray:none;stroke-dashoffset:0" id="path4649" sodipodi:cx="-531.42859" sodipodi:cy="643.79077" sodipodi:rx="154.28572" sodipodi:ry="154.28572" d="m -377.14287,643.79077 c 0,85.20965 -69.07607,154.28572 -154.28572,154.28572 -85.20965,0 -154.28572,-69.07607 -154.28572,-154.28572 0,-85.20965 69.07607,-154.28572 154.28572,-154.28572 85.20965,0 154.28572,69.07607 154.28572,154.28572 z" transform="translate(11.172866,-75.712459)"/>
        <path sodipodi:type="arc" style="fill:#ffffff;fill-opacity:1;stroke:#000000;stroke-width:36.34310532;stroke-linecap:butt;stroke-linejoin:miter;stroke-miterlimit:4;stroke-opacity:1;stroke-dasharray:none;stroke-dashoffset:0" id="path4651" sodipodi:cx="-531.42859" sodipodi:cy="643.79077" sodipodi:rx="154.28572" sodipodi:ry="154.28572" d="m -428.19129,758.44741 c -32.4947,29.25835 -75.87816,43.35449 -119.36455,38.78389" transform="matrix(0.66037288,0,0,0.66037288,-166.68258,142.93635)" sodipodi:start="0.83775804" sodipodi:end="1.6755161" sodipodi:open="true"/>
        <path transform="matrix(0.66037288,0,0,0.66037288,-166.68258,142.93635)" sodipodi:open="true" sodipodi:end="5.4454273" sodipodi:start="4.6076692" d="m -547.55584,490.35024 c 43.48639,-4.5706 86.86986,9.52554 119.36455,38.7839" sodipodi:ry="154.28572" sodipodi:rx="154.28572" sodipodi:cy="643.79077" sodipodi:cx="-531.42859" id="path4653" style="fill:#ffffff;fill-opacity:1;stroke:#000000;stroke-width:36.34310532;stroke-linecap:butt;stroke-linejoin:miter;stroke-miterlimit:4;stroke-opacity:1;stroke-dasharray:none;stroke-dashoffset:0" sodipodi:type="arc"/>
        <path sodipodi:type="arc" style="fill:#ffffff;fill-opacity:1;stroke:#000000;stroke-width:36.34310532;stroke-linecap:butt;stroke-linejoin:miter;stroke-miterlimit:4;stroke-opacity:1;stroke-dasharray:none;stroke-dashoffset:0" id="path4655" sodipodi:cx="-531.42859" sodipodi:cy="643.79077" sodipodi:rx="154.28572" sodipodi:ry="154.28572" d="m -390.48157,581.03712 c 17.78494,39.94561 17.78494,85.56169 0,125.5073" sodipodi:start="5.8643063" sodipodi:end="6.7020643" sodipodi:open="true" transform="matrix(0.66037288,0,0,0.66037288,-166.68258,142.93635)"/>
        <path transform="matrix(0.66037288,0,0,0.66037288,-166.68258,142.93635)" d="m -377.14287,643.79077 c 0,85.20965 -69.07607,154.28572 -154.28572,154.28572 -85.20965,0 -154.28572,-69.07607 -154.28572,-154.28572 0,-85.20965 69.07607,-154.28572 154.28572,-154.28572 85.20965,0 154.28572,69.07607 154.28572,154.28572 z" sodipodi:ry="154.28572" sodipodi:rx="154.28572" sodipodi:cy="643.79077" sodipodi:cx="-531.42859" id="path4657" style="fill:none;stroke:#000000;stroke-width:1.51429594;stroke-linecap:round;stroke-linejoin:round;stroke-miterlimit:4;stroke-opacity:1;stroke-dasharray:none;stroke-dashoffset:0" sodipodi:type="arc"/>
        <path sodipodi:open="true" sodipodi:end="1.6755161" sodipodi:start="0.83775804" transform="matrix(0.32648216,0,0,0.32648216,-340.20318,357.89211)" d="m -428.19129,758.44741 c -32.4947,29.25835 -75.87816,43.35449 -119.36455,38.78389" sodipodi:ry="154.28572" sodipodi:rx="154.28572" sodipodi:cy="643.79077" sodipodi:cx="-531.42859" id="path4659" style="fill:#ffffff;fill-opacity:1;stroke:#000000;stroke-width:73.51091003;stroke-linecap:butt;stroke-linejoin:miter;stroke-miterlimit:4;stroke-opacity:1;stroke-dasharray:none;stroke-dashoffset:0" sodipodi:type="arc"/>
        <path sodipodi:type="arc" style="fill:#ffffff;fill-opacity:1;stroke:#000000;stroke-width:73.51091003;stroke-linecap:butt;stroke-linejoin:miter;stroke-miterlimit:4;stroke-opacity:1;stroke-dasharray:none;stroke-dashoffset:0" id="path4661" sodipodi:cx="-531.42859" sodipodi:cy="643.79077" sodipodi:rx="154.28572" sodipodi:ry="154.28572" d="m -547.55584,490.35024 c 43.48639,-4.5706 86.86986,9.52554 119.36455,38.7839" sodipodi:start="4.6076692" sodipodi:end="5.4454273" sodipodi:open="true" transform="matrix(0.32648216,0,0,0.32648216,-340.20318,357.89211)"/>
        <path transform="matrix(0.32648216,0,0,0.32648216,-340.20318,357.89211)" sodipodi:open="true" sodipodi:end="6.7020643" sodipodi:start="5.8643063" d="m -390.48157,581.03712 c 17.78494,39.94561 17.78494,85.56169 0,125.5073" sodipodi:ry="154.28572" sodipodi:rx="154.28572" sodipodi:cy="643.79077" sodipodi:cx="-531.42859" id="path4663" style="fill:#ffffff;fill-opacity:1;stroke:#000000;stroke-width:73.51091003;stroke-linecap:butt;stroke-linejoin:miter;stroke-miterlimit:4;stroke-opacity:1;stroke-dasharray:none;stroke-dashoffset:0" sodipodi:type="arc"/>
        <path sodipodi:type="arc" style="fill:none;stroke:#000000;stroke-width:3.06295443;stroke-linecap:round;stroke-linejoin:round;stroke-miterlimit:4;stroke-opacity:1;stroke-dasharray:none;stroke-dashoffset:0" id="path4665" sodipodi:cx="-531.42859" sodipodi:cy="643.79077" sodipodi:rx="154.28572" sodipodi:ry="154.28572" d="m -377.14287,643.79077 c 0,85.20965 -69.07607,154.28572 -154.28572,154.28572 -85.20965,0 -154.28572,-69.07607 -154.28572,-154.28572 0,-85.20965 69.07607,-154.28572 154.28572,-154.28572 85.20965,0 154.28572,69.07607 154.28572,154.28572 z" transform="matrix(0.32648216,0,0,0.32648216,-340.20318,357.89211)"/>
        <path sodipodi:type="arc" style="fill:#ffffff;fill-opacity:1;stroke:#000000;stroke-width:24;stroke-linecap:butt;stroke-linejoin:miter;stroke-miterlimit:4;stroke-opacity:1;stroke-dasharray:none;stroke-dashoffset:0" id="path4667" sodipodi:cx="-531.42859" sodipodi:cy="643.79077" sodipodi:rx="154.28572" sodipodi:ry="154.28572" d="m -428.19129,758.44741 c -32.4947,29.25835 -75.87816,43.35449 -119.36455,38.78389" transform="translate(11.172866,-75.712459)" sodipodi:start="0.83775804" sodipodi:end="1.6755161" sodipodi:open="true"/>
        <path transform="translate(11.172866,-75.712459)" sodipodi:open="true" sodipodi:end="5.4454273" sodipodi:start="4.6076692" d="m -547.55584,490.35024 c 43.48639,-4.5706 86.86986,9.52554 119.36455,38.7839" sodipodi:ry="154.28572" sodipodi:rx="154.28572" sodipodi:cy="643.79077" sodipodi:cx="-531.42859" id="path4669" style="fill:#ffffff;fill-opacity:1;stroke:#000000;stroke-width:24;stroke-linecap:butt;stroke-linejoin:miter;stroke-miterlimit:4;stroke-opacity:1;stroke-dasharray:none;stroke-dashoffset:0" sodipodi:type="arc"/>
        <path sodipodi:type="arc" style="fill:#000000;fill-opacity:1;stroke:#000000;stroke-width:24;stroke-linecap:butt;stroke-linejoin:miter;stroke-miterlimit:4;stroke-opacity:1;stroke-dasharray:none;stroke-dashoffset:0" id="path4671" sodipodi:cx="-531.42859" sodipodi:cy="643.79077" sodipodi:rx="154.28572" sodipodi:ry="154.28572" d="m -390.48157,581.03712 c 17.78494,39.94561 17.78494,85.56169 0,125.5073" sodipodi:start="5.8643063" sodipodi:end="6.7020643" sodipodi:open="true" transform="translate(11.172866,-75.712459)"/>
        <path transform="translate(11.172866,-75.712459)" d="m -377.14287,643.79077 c 0,85.20965 -69.07607,154.28572 -154.28572,154.28572 -85.20965,0 -154.28572,-69.07607 -154.28572,-154.28572 0,-85.20965 69.07607,-154.28572 154.28572,-154.28572 85.20965,0 154.28572,69.07607 154.28572,154.28572 z" sodipodi:ry="154.28572" sodipodi:rx="154.28572" sodipodi:cy="643.79077" sodipodi:cx="-531.42859" id="path4673" style="fill:none;stroke:#000000;stroke-width:1;stroke-linecap:round;stroke-linejoin:round;stroke-miterlimit:4;stroke-opacity:1;stroke-dasharray:none;stroke-dashoffset:0" sodipodi:type="arc"/>
      </g>
      <g id="g4675" transform="translate(-81.303587,-1074.1368)">
        <path inkscape:connector-curvature="0" id="path4677" d="m -99.12253,319.53539 c -96.08825,0 -174.32387,78.23562 -174.32387,174.32387 0,96.08825 78.23562,174.32387 174.32387,174.32387 96.088253,0 174.323874,-78.23562 174.323874,-174.32387 0,-96.08825 -78.235621,-174.32387 -174.323874,-174.32387 z m 0,32.00427 c 78.794175,0 142.319601,63.52543 142.319601,142.3196 0,78.79418 -63.525426,142.35167 -142.319601,142.35167 -78.79418,0 -142.3196,-63.55749 -142.3196,-142.35167 0,-78.79417 63.52542,-142.3196 142.3196,-142.3196 z" style="font-size:medium;font-style:normal;font-variant:normal;font-weight:normal;font-stretch:normal;text-indent:0;text-align:start;text-decoration:none;line-height:normal;letter-spacing:normal;word-spacing:normal;text-transform:none;direction:ltr;block-progression:tb;writing-mode:lr-tb;text-anchor:start;baseline-shift:baseline;color:#000000;fill:#000000;fill-opacity:1;stroke:none;stroke-width:31.18333435;marker:none;visibility:visible;display:inline;overflow:visible;enable-background:accumulate;font-family:Sans;-inkscape-font-specification:Sans"/>
        <path inkscape:connector-curvature="0" id="path4679" d="m -99.119693,369.03351 c -68.751567,0 -124.828837,56.07727 -124.828837,124.82884 0,68.75156 56.07727,124.82883 124.828837,124.82883 68.751562,0 124.828835,-56.07727 124.828835,-124.82883 0,-68.75157 -56.077273,-124.82884 -124.828835,-124.82884 z m 0,32.00627 c 51.457479,0 92.8446143,41.36509 92.8446143,92.82257 0,51.45748 -41.3871353,92.84461 -92.8446143,92.84461 -51.457477,0 -92.822567,-41.38713 -92.822567,-92.84461 0,-51.45748 41.36509,-92.82257 92.822567,-92.82257 z" style="font-size:medium;font-style:normal;font-variant:normal;font-weight:normal;font-stretch:normal;text-indent:0;text-align:start;text-decoration:none;line-height:normal;letter-spacing:normal;word-spacing:normal;text-transform:none;direction:ltr;block-progression:tb;writing-mode:lr-tb;text-anchor:start;baseline-shift:baseline;color:#000000;fill:#000000;fill-opacity:1;stroke:none;stroke-width:45.36611938;marker:none;visibility:visible;display:inline;overflow:visible;enable-background:accumulate;font-family:Sans;-inkscape-font-specification:Sans"/>
        <path inkscape:connector-curvature="0" id="path4681" d="m -99.125283,272.05187 c -122.309177,0 -221.804467,99.4953 -221.804467,221.80447 0,122.30918 99.49529,221.80447 221.804467,221.80447 122.309174,0 221.804473,-99.49529 221.804473,-221.80447 0,-122.30917 -99.495299,-221.80447 -221.804473,-221.80447 z m 0,32.01388 c 105.015091,0 189.832281,84.7755 189.832281,189.79059 0,105.01509 -84.81719,189.83228 -189.832281,189.83228 -105.015087,0 -189.790597,-84.81719 -189.790597,-189.83228 0,-105.01509 84.77551,-189.79059 189.790597,-189.79059 z" style="font-size:medium;font-style:normal;font-variant:normal;font-weight:normal;font-stretch:normal;text-indent:0;text-align:start;text-decoration:none;line-height:normal;letter-spacing:normal;word-spacing:normal;text-transform:none;direction:ltr;block-progression:tb;writing-mode:lr-tb;text-anchor:start;baseline-shift:baseline;color:#000000;fill:#000000;fill-opacity:1;stroke:none;stroke-width:23.98959732;marker:none;visibility:visible;display:inline;overflow:visible;enable-background:accumulate;font-family:Sans;-inkscape-font-specification:Sans"/>
      </g>
      <g id="g4683" transform="translate(171.28909,-615.49979)">
        <path sodipodi:end="8.0285146" sodipodi:start="4.5378561" transform="matrix(2.405528,0,0,2.405528,-634.8709,963.52585)" d="m 343.19986,-502.67558 c 66.04431,-11.37138 129.02426,31.69003 140.66965,96.18036 11.64539,64.49032 -32.45365,125.98838 -98.49796,137.35976 -13.94964,2.40182 -28.22206,2.40182 -42.1717,0 l 21.08586,-116.77006 z" sodipodi:ry="118.57143" sodipodi:rx="121.42857" sodipodi:cy="-385.90552" sodipodi:cx="364.28571" id="path4685" style="fill:#b3b3b3;stroke:none" sodipodi:type="arc"/>
        <path inkscape:connector-curvature="0" id="path4687" d="m 240.87054,-189.36623 c -122.30918,0 -221.812504,99.472081 -221.812504,221.781251 0,122.309179 99.503324,221.812499 221.812504,221.812499 122.30917,0 221.8125,-99.50332 221.8125,-221.812499 0,-122.30917 -99.50333,-221.781251 -221.8125,-221.781251 z m 0,32 c 105.01509,0 189.84375,84.766161 189.84375,189.781251 0,105.015089 -84.82866,189.843749 -189.84375,189.843749 -105.01509,0 -189.781254,-84.82866 -189.781254,-189.843749 0,-105.01509 84.766164,-189.781251 189.781254,-189.781251 z m 0,15.46875 c -96.08825,0 -174.312504,78.255501 -174.312504,174.343751 0,96.088249 78.224254,174.312499 174.312504,174.312499 96.08825,0 174.34375,-78.22425 174.34375,-174.312499 0,-96.08825 -78.2555,-174.343751 -174.34375,-174.343751 z m 0,32 c 78.79417,0 142.3125,63.549581 142.3125,142.343751 0,78.794179 -63.51833,142.343749 -142.3125,142.343749 -78.79418,0 -142.312504,-63.54957 -142.312504,-142.343749 0,-78.79417 63.518324,-142.343751 142.312504,-142.343751 z m 0,17.500001 c -68.75157,0 -124.8125,56.09218 -124.8125,124.84375 0,68.751559 56.06093,124.812499 124.8125,124.812499 68.75156,0 124.84375,-56.06094 124.84375,-124.812499 0,-68.75157 -56.09219,-124.84375 -124.84375,-124.84375 z m 0,32 c 51.45748,0 92.84375,41.38627 92.84375,92.84375 0,51.45748 -41.38627,92.843749 -92.84375,92.843749 -51.45748,0 -92.8125,-41.386269 -92.8125,-92.843749 0,-51.45748 41.35502,-92.84375 92.8125,-92.84375 z" style="font-size:medium;font-style:normal;font-variant:normal;font-weight:normal;font-stretch:normal;text-indent:0;text-align:start;text-decoration:none;line-height:normal;letter-spacing:normal;word-spacing:normal;text-transform:none;direction:ltr;block-progression:tb;writing-mode:lr-tb;text-anchor:start;baseline-shift:baseline;color:#000000;fill:#000000;fill-opacity:1;stroke:none;stroke-width:31.18333435;marker:none;visibility:visible;display:inline;overflow:visible;enable-background:accumulate;font-family:Sans;-inkscape-font-specification:Sans"/>
        <path sodipodi:type="arc" style="fill:none;stroke:#000000" id="path4689" sodipodi:cx="364.28571" sodipodi:cy="-385.90552" sodipodi:rx="121.42857" sodipodi:ry="118.57143" d="m 485.71428,-385.90552 c 0,65.48519 -54.36543,118.57143 -121.42857,118.57143 -67.06315,0 -121.42858,-53.08624 -121.42858,-118.57143 0,-65.48519 54.36543,-118.57142 121.42858,-118.57142 67.06314,0 121.42857,53.08623 121.42857,118.57142 z" transform="matrix(2.405528,0,0,2.405528,-634.8709,963.52585)"/>
      </g>
      <g id="g4691" transform="translate(-1375.314,-595.99)">
        <path sodipodi:type="arc" style="fill:none;stroke:#000000" id="path4693" sodipodi:cx="364.28571" sodipodi:cy="-385.90552" sodipodi:rx="121.42857" sodipodi:ry="118.57143" d="m 485.71428,-385.90552 c 0,65.48519 -54.36543,118.57143 -121.42857,118.57143 -67.06315,0 -121.42858,-53.08624 -121.42858,-118.57143 0,-65.48519 54.36543,-118.57142 121.42858,-118.57142 67.06314,0 121.42857,53.08623 121.42857,118.57142 z" transform="matrix(2.405528,0,0,2.405528,1576.3768,944.01606)"/>
        <path style="fill:#000000;stroke:none" d="m 2452.1272,-208.87602 c -13.4326,0 -26.5942,1.20195 -39.375,3.5 l 5.6875,31.46875 c 10.9266,-1.9472 22.1908,-2.96875 33.6875,-2.96875 105.015,0 189.8437,84.76616 189.8437,189.78125 0,105.01509 -84.8287,189.84375 -189.8437,189.84375 -11.1579,0 -22.0955,-0.97476 -32.7188,-2.8125 l -5.6875,31.4375 c 12.4773,2.18679 25.3121,3.34375 38.4063,3.34375 122.3091,0 221.8125,-99.50332 221.8124,-221.8125 0,-122.30917 -99.5033,-221.78125 -221.8125,-221.78125 z m 0,47.46875 c -10.554,0 -20.8946,0.94193 -30.9375,2.75 l 5.6875,31.46875 c 8.1894,-1.45727 16.6318,-2.21875 25.25,-2.21875 78.7941,0 142.3125,63.54958 142.3124,142.34375 0,78.79418 -63.5183,142.34375 -142.3125,142.34375 -8.2807,0 -16.3939,-0.71481 -24.2812,-2.0625 l -5.6875,31.46875 c 9.7387,1.69559 19.7537,2.5625 29.9688,2.5625 96.0882,0 174.3437,-78.22425 174.3437,-174.3125 0,-96.08825 -78.2555,-174.34375 -174.3437,-174.34375 z m 0,49.5 c -7.541,0 -14.9467,0.67643 -22.125,1.96875 l 5.6562,31.46875 c 5.3361,-0.94573 10.8512,-1.4375 16.4688,-1.4375 51.4574,0 92.8437,41.38627 92.8437,92.84375 0,51.45748 -41.3863,92.84375 -92.8437,92.84375 -5.2703,0 -10.4441,-0.44664 -15.4688,-1.28125 l -5.6875,31.4375 c 6.8763,1.18146 13.9513,1.8125 21.1563,1.8125 68.7515,0 124.8437,-56.06094 124.8437,-124.8125 0,-68.75157 -56.0922,-124.84375 -124.8437,-124.84375 z" id="path4695" inkscape:connector-curvature="0"/>
        <path sodipodi:nodetypes="cssscc" inkscape:connector-curvature="0" id="path4697" d="m 946.24892,-307.11405 c 8.2533,14.29514 328.91238,11.84476 328.91238,28.35137 0,16.5066 -320.65908,14.05626 -328.91238,28.3514 -8.2533,14.29514 154.19838,290.768896 139.90318,299.022198 C 1071.857,56.86422 913.64949,-222.0599 897.14288,-222.0599 z" style="fill:#000000;fill-opacity:1;stroke:#000000;stroke-width:1;stroke-linecap:butt;stroke-linejoin:round;stroke-miterlimit:4;stroke-opacity:1;stroke-dashoffset:0" transform="matrix(0.8660254,-0.5,0.5,0.8660254,1815.1091,705.69653)"/>
      </g>
      <g id="g4699" transform="translate(-1391.1067,-598.01031)">
        <path transform="matrix(2.405528,0,0,2.405528,2291.5648,946.03637)" d="m 485.71428,-385.90552 c 0,65.48519 -54.36543,118.57143 -121.42857,118.57143 -67.06315,0 -121.42858,-53.08624 -121.42858,-118.57143 0,-65.48519 54.36543,-118.57142 121.42858,-118.57142 67.06314,0 121.42857,53.08623 121.42857,118.57142 z" sodipodi:ry="118.57143" sodipodi:rx="121.42857" sodipodi:cy="-385.90552" sodipodi:cx="364.28571" id="path4701" style="fill:none;stroke:#000000" sodipodi:type="arc"/>
        <path id="path4703" transform="translate(0,308.2677)" d="m 3167.3125,-515.125 c -13.4326,0 -26.5942,1.20195 -39.375,3.5 l 5.6875,31.46875 c 10.9266,-1.9472 22.1908,-2.96875 33.6875,-2.96875 65.5938,0 123.3161,33.08033 157.4063,83.5 9.3887,-4.92962 18.821,-9.90759 28.2812,-14.875 -39.6457,-60.54429 -108.0615,-100.625 -185.6875,-100.625 z m 0,47.46875 c -10.554,0 -20.8946,0.94193 -30.9375,2.75 l 5.6875,31.46875 c 8.1894,-1.45727 16.6318,-2.21875 25.25,-2.21875 47.271,0 89.0481,22.87258 114.9063,58.1875 9.1266,-4.70928 18.7822,-9.75719 28.5,-14.84375 -31.505,-45.47465 -84.0541,-75.34375 -143.4063,-75.34375 z m 0,49.5 c -7.541,0 -14.9467,0.67643 -22.125,1.96875 l 5.6563,31.46875 c 5.336,-0.94573 10.8511,-1.4375 16.4687,-1.4375 27.8382,0 52.734,12.10778 69.7187,31.375 8.767,-4.20459 18.6432,-9.12571 29.2188,-14.5 -22.8605,-29.6838 -58.7283,-48.875 -98.9375,-48.875 z m 200.2187,29.40625 c -9.0754,5.73637 -18.1535,11.46512 -27.1562,17.15625 10.777,23.8446 16.7812,50.33053 16.7812,78.25 0,29.61008 -6.7422,57.61116 -18.7812,82.5625 8.9496,5.65926 18.0161,11.37717 27.0625,17.09375 15.1375,-29.97773 23.6875,-63.8421 23.6875,-99.65625 0,-34.14138 -7.7555,-66.4906 -21.5938,-95.40625 z m -40.5,25.625 c -9.3539,5.93027 -18.6009,11.80966 -27.3124,17.40625 6.3898,16.20635 9.9062,33.88909 9.9062,52.40625 0,20.21515 -4.1717,39.4199 -11.7188,56.8125 8.6612,5.5718 17.8554,11.39255 27.1876,17.3125 10.6252,-22.50659 16.5624,-47.6401 16.5624,-74.125 0,-24.80984 -5.231,-48.42042 -14.625,-69.8125 z m -42.4062,27.15625 c -10.1756,6.62827 -19.4965,12.85698 -27.625,18.4375 2.0649,7.71916 3.1562,15.8283 3.1562,24.21875 0,10.0801 -1.5903,19.77198 -4.5312,28.84375 7.9947,5.51365 17.1917,11.63325 27.2812,18.21875 5.9549,-14.5372 9.25,-30.42404 9.25,-47.0625 0,-14.96991 -2.6609,-29.33507 -7.5312,-42.65625 z M 3233.4375,-228 c -16.8091,17.01777 -40.1893,27.53125 -66.125,27.53125 -5.2703,0 -10.4441,-0.44664 -15.4687,-1.28125 l -5.6876,31.4375 c 6.8763,1.18146 13.9513,1.8125 21.1563,1.8125 38.3941,0 72.8473,-17.49285 95.7813,-44.90625 -10.8611,-5.49765 -20.8451,-10.42249 -29.6563,-14.59375 z m 45.75,22.84375 c -26.0253,33.03663 -66.4099,54.1875 -111.875,54.1875 -8.2807,0 -16.3939,-0.71481 -24.2813,-2.0625 l -5.6874,31.46875 c 9.7386,1.69559 19.7536,2.5625 29.9687,2.5625 57.582,0 108.7604,-28.08805 140.5313,-71.28125 -9.8116,-5.13093 -19.4912,-10.15726 -28.6563,-14.875 z m 42.6875,22.21875 c -34.4034,48.12478 -90.7623,79.4375 -154.5625,79.4375 -11.1579,0 -22.0955,-0.97476 -32.7187,-2.8125 l -5.6876,31.4375 c 12.4774,2.18679 25.3121,3.34375 38.4063,3.34375 75.8457,0 142.9207,-38.26284 182.9375,-96.5 -9.4921,-4.98584 -18.9848,-9.97808 -28.375,-14.90625 z" style="fill:#000000;stroke:none" inkscape:connector-curvature="0"/>
      </g>
    </g>
    <text xml:space="preserve" style="font-size:24px;font-style:normal;font-variant:normal;font-weight:normal;font-stretch:normal;text-align:start;line-height:125%;letter-spacing:0px;word-spacing:0px;writing-mode:lr-tb;text-anchor:start;fill:#000000;fill-opacity:1;stroke:none;font-family:Sans;-inkscape-font-specification:Sans" x="80.714279" y="905.7193" id="text4726" sodipodi:linespacing="125%"><tspan sodipodi:role="line" id="tspan4728" x="80.714279" y="905.7193">Sovrapposizione</tspan></text>
    <text sodipodi:linespacing="125%" id="text4730" y="731.84772" x="490.60193" style="font-size:24px;font-style:normal;font-variant:normal;font-weight:normal;font-stretch:normal;text-align:start;line-height:125%;letter-spacing:0px;word-spacing:0px;writing-mode:lr-tb;text-anchor:start;fill:#000000;fill-opacity:1;stroke:none;font-family:Sans;-inkscape-font-specification:Sans" xml:space="preserve"><tspan y="731.84772" x="490.60193" id="tspan4732" sodipodi:role="line">Colore</tspan></text>
    <text xml:space="preserve" style="font-size:24px;font-style:normal;font-variant:normal;font-weight:normal;font-stretch:normal;text-align:start;line-height:125%;letter-spacing:0px;word-spacing:0px;writing-mode:lr-tb;text-anchor:start;fill:#000000;fill-opacity:1;stroke:none;font-family:Sans;-inkscape-font-specification:Sans" x="516.42859" y="1015.7192" id="text4734" sodipodi:linespacing="125%"><tspan sodipodi:role="line" id="tspan4736" x="516.42859" y="1015.7192">Deformazione</tspan></text>
    <g id="g3238">
      <g id="g3200">
        <g transform="translate(11.428571,-58.785714)" id="g4742" style="fill:#000000;filter:url(#filter4802)">
          <rect style="fill:#000000;fill-opacity:1;stroke:#000000;stroke-width:1;stroke-linecap:butt;stroke-linejoin:miter;stroke-miterlimit:4;stroke-opacity:1;stroke-dasharray:none;stroke-dashoffset:0" id="rect4744" width="299" height="299" x="688.93811" y="638.71002"/>
          <g transform="matrix(0.5,0,0,0.5,165.96422,437.62938)" id="g4746" style="fill:#000000">
            <g id="g4748" style="fill:#000000">
              <g id="g4750" transform="translate(1113.7748,469.7503)" style="fill:#000000">
                <path style="fill:#000000;stroke:#000000;stroke-width:44;stroke-miterlimit:4;stroke-opacity:1;stroke-dasharray:none" id="path4752" d="M 231.17299,451.91098 C 109.39398,451.91098 10.673,353.19001 10.673,231.411 c 0,-121.77795 98.72098,-220.500001 220.49999,-220.500001 121.77901,0 220.49999,98.722051 220.49999,220.500001 0,121.78007 -98.72098,220.49998 -220.49999,220.49998 z" inkscape:connector-curvature="0"/>
                <path id="path4754" d="m 120.805,110.043 c 24.267,-7.07 126.586,6.86 105.678,105.837 -7.609,36.019 -49.357,53.566 -69.592,68.72 -47.901,35.873 -6.648,121.071 -6.648,121.071 0,0 -22.318,-66.267 27.382,-97.619 C 223.352,279.206 380.998,292.759 380.456,203.786 379.417,33.321 113.795,94.816 120.805,110.043 z" inkscape:connector-curvature="0" style="fill:#000000"/>
                <rect id="rect4756" y="61.290001" x="141.205" height="250.63" width="20.208" style="fill:#000000"/>
              </g>
              <g transform="translate(5,1)" id="g4758" style="fill:#000000">
                <path inkscape:connector-curvature="0" id="path4760" d="m 1383.8428,576.28689 c -5.9456,-0.6086 -11.7203,-0.75281 -17.062,-0.43621 1.0693,3.86384 2.194,7.75468 3.3388,11.67588 4.285,-0.39095 8.9041,-0.36191 13.6968,0.0771 5.8334,0.53426 11.6159,1.64454 17.0925,3.19859 5.4765,1.55405 10.6471,3.54981 15.4114,5.89239 4.7642,2.34258 9.1269,5.03111 13.1024,8.03686 3.9754,3.00575 7.5695,6.33245 10.8252,9.99561 0,0 0,0 0,0 2.235,2.51346 4.3058,5.17991 6.2087,8.00016 3.5909,-1.68007 7.1424,-3.44811 10.5803,-5.32703 -0.6952,-1.04327 -1.4055,-2.06556 -2.1307,-3.06727 0,0 0,0 0,0 -3.7105,-5.12579 -7.7751,-9.68671 -12.3431,-13.78949 -4.5681,-4.10277 -9.6595,-7.76844 -15.4914,-11.03729 -5.8319,-3.26884 -12.4265,-6.13861 -19.7278,-8.42088 -7.3013,-2.28226 -15.3121,-3.96014 -23.5011,-4.79837 0,-10e-6 0,-10e-6 0,-10e-6 z" style="fill:#000000;stroke:none"/>
                <path inkscape:connector-curvature="0" id="path4762" d="m 1384.0349,593.16455 c -4.2858,-0.36101 -8.4062,-0.33711 -12.2422,0.0843 1.1579,3.95129 2.3214,7.93446 3.4661,11.95074 2.9947,-0.42147 6.1924,-0.52151 9.5268,-0.30016 5.0176,0.33311 10.0188,1.36673 14.7699,2.94048 4.7511,1.57376 9.2526,3.68788 13.3813,6.24249 6.7855,4.19359 12.5635,9.56039 17.054,15.83865 3.5463,-1.47879 7.314,-3.08065 11.0756,-4.75064 -2.6053,-3.79725 -5.5639,-7.30905 -8.8588,-10.5232 -5.9807,-5.83809 -13.0811,-10.69262 -21.2553,-14.40581 -4.0871,-1.85659 -8.4365,-3.42068 -12.9635,-4.6264 -4.527,-1.20572 -9.2314,-2.05263 -13.9539,-2.45044 0,0 0,0 0,0 z" style="fill:#000000;stroke:none"/>
                <path inkscape:connector-curvature="0" id="path4764" d="m 1385.2962,611.45607 c -2.8519,-0.1595 -5.5945,-0.0316 -8.172,0.37786 0.1653,0.60065 0.33,1.202 0.494,1.80405 0.9385,3.45399 1.8494,6.92263 2.7218,10.40044 1.8731,-0.33748 3.852,-0.47333 5.9032,-0.39997 5.0825,0.18175 10.0976,1.62185 14.6216,3.958 4.5241,2.33615 8.56,5.57259 11.8017,9.43937 3.2962,-1.3375 7.0599,-2.87746 11.1392,-4.55435 -3.2562,-4.36458 -7.2351,-8.22162 -11.7702,-11.423 -4.5352,-3.20138 -9.6367,-5.75238 -15.0462,-7.43896 -3.7981,-1.18608 -7.7432,-1.94252 -11.6931,-2.16344 0,0 0,0 0,0 z" style="fill:#000000;fill-opacity:1;stroke:none"/>
                <path inkscape:connector-curvature="0" id="path4766" d="m 1462.7103,627.04491 c -3.3051,2.26176 -6.7357,4.39834 -10.1948,6.44112 3.5754,7.74802 5.9942,16.38827 6.4505,25.44409 0.031,0.60829 0.052,1.21818 0.064,1.82944 0.024,1.11813 0.017,2.24119 -0.023,3.36774 -0.2038,5.78454 -1.2693,11.34408 -3.1188,16.50968 -1.8495,5.1656 -4.4798,9.934 -7.6571,14.19615 3.2856,2.54212 6.6731,5.13461 10.1499,7.73378 4.3284,-5.09424 7.9141,-10.93586 10.3405,-17.32598 2.4264,-6.39012 3.6872,-13.32222 3.7267,-20.5038 0.01,-1.39773 -0.03,-2.78987 -0.109,-4.17415 -0.036,-0.62576 -0.08,-1.24993 -0.1325,-1.87231 -0.4847,-5.74433 -1.6695,-11.33174 -3.3224,-16.63708 -1.653,-5.30534 -3.7688,-10.32788 -6.1745,-15.00868 z" style="fill:#000000;stroke:none"/>
                <path inkscape:connector-curvature="0" id="path4768" d="m 1447.3519,636.47206 c -3.6408,2.05583 -7.2728,4.02735 -10.6839,5.88372 1.9334,5.10052 3.1021,10.56042 3.2936,16.18683 0.02,0.59337 0.029,1.18837 0.027,1.78472 0,0.7559 -0.02,1.51418 -0.058,2.27426 -0.3819,7.68929 -2.6517,14.77808 -6.2492,20.86336 3.0658,2.41669 6.3418,4.97683 9.7143,7.60981 2.7019,-3.8662 4.9345,-8.14064 6.5237,-12.7407 1.5893,-4.60005 2.533,-9.52351 2.7558,-14.6434 0.044,-1.00576 0.06,-2.00889 0.048,-3.00828 -0.01,-0.60537 -0.022,-1.20948 -0.047,-1.81211 -0.3322,-7.89308 -2.2907,-15.48329 -5.3248,-22.39821 0,0 0,0 0,0 z" style="fill:#000000;stroke:none"/>
                <path inkscape:connector-curvature="0" id="path4770" d="m 1430.772,645.57356 c -3.9618,2.18154 -7.5536,4.23389 -10.6512,6.10128 0.4918,2.04065 0.7974,4.13739 0.9012,6.27283 0.028,0.58635 0.041,1.17546 0.039,1.76696 0,0 0,0 0,0 -9e-4,0.39983 -0.01,0.80082 -0.024,1.20285 -0.1442,3.79862 -0.9293,7.38815 -2.2238,10.68707 2.8037,2.28548 6.0268,4.85368 9.5773,7.66612 2.7441,-5.14806 4.465,-10.99716 4.7662,-17.29101 0.03,-0.63132 0.046,-1.26128 0.048,-1.88951 0,0 0,0 0,0 0,-0.59319 -0.01,-1.18498 -0.028,-1.77504 -0.164,-4.39191 -1.0028,-8.67717 -2.4036,-12.74155 z" style="fill:#000000;fill-opacity:1;stroke:none"/>
                <path inkscape:connector-curvature="0" id="path4772" d="m 1409.7905,684.53907 c -3.2494,2.95548 -6.9886,5.32809 -11.0283,7.06847 -4.0397,1.74039 -8.3895,2.85649 -12.9144,3.20194 -1.8389,0.14038 -3.6356,0.14162 -5.3717,0.0144 -0.8816,3.22054 -1.8064,6.40477 -2.7631,9.54327 -0.2087,0.68417 -0.4188,1.36596 -0.6301,2.04532 2.4385,0.10661 4.9454,0.0427 7.4927,-0.19641 6.5917,-0.61873 12.8034,-2.27309 18.5826,-4.76499 6.1198,-2.63595 11.8048,-6.24529 16.6567,-10.92062 -3.672,-2.30919 -7.0434,-4.31945 -10.0244,-5.99138 0,0 0,0 0,0 z" style="fill:#000000;fill-opacity:1;stroke:none"/>
                <path inkscape:connector-curvature="0" id="path4774" d="m 1425.2621,694.03739 c -2.8765,2.7705 -6.0178,5.19012 -9.3198,7.28976 -4.7359,3.01453 -9.7857,5.37415 -15.1168,7.18913 -5.3311,1.81499 -10.9724,3.09967 -16.986,3.72423 -2.9545,0.30685 -5.8766,0.43104 -8.7366,0.36532 -1.2178,3.71582 -2.461,7.35073 -3.689,10.90005 3.7284,-0.0378 7.4785,-0.3142 11.1959,-0.77212 5.0109,-0.61725 9.6972,-1.53157 14.1525,-2.66182 4.4553,-1.13026 8.6911,-2.47906 12.8251,-4.08844 4.134,-1.60939 8.1726,-3.48458 12.1177,-5.73006 3.9451,-2.24548 7.7949,-4.86676 11.4018,-7.94719 0,0 0,0 0,0 0.6555,-0.55938 1.3026,-1.13345 1.9399,-1.72241 -3.3802,-2.30528 -6.676,-4.51492 -9.7847,-6.54645 z" style="fill:#000000;stroke:none"/>
                <path inkscape:connector-curvature="0" id="path4776" d="m 1439.9113,703.91751 c -4.1408,3.72986 -8.6225,6.83743 -13.1781,9.43977 -4.5557,2.60234 -9.1786,4.7091 -13.8592,6.50323 -4.6807,1.79413 -9.4293,3.28539 -14.4685,4.57082 -5.0392,1.28543 -10.391,2.37029 -16.2579,3.15011 -4.1042,0.54555 -8.294,0.90618 -12.4996,1.02384 -1.1999,3.46297 -2.3598,6.83989 -3.4159,10.13261 5.3617,-0.31396 10.5618,-0.9078 15.4944,-1.6637 7.1427,-1.09458 13.3073,-2.42537 18.9943,-3.8444 5.6871,-1.41904 10.9442,-2.93597 16.2962,-4.76079 5.3521,-1.82481 10.82,-3.97611 16.4139,-6.80933 5.5939,-2.83322 11.2956,-6.36815 16.5828,-10.80243 -3.4586,-2.3537 -6.8247,-4.68113 -10.1024,-6.93973 0,0 0,0 0,0 z" style="fill:#000000;stroke:none"/>
              </g>
            </g>
          </g>
        </g>
        <g id="g4707" transform="translate(11.428571,-58.785714)">
          <rect y="638.71002" x="688.93811" height="299" width="299" id="rect4705" style="fill:#ffffff;fill-opacity:1;stroke:#000000;stroke-width:1;stroke-linecap:butt;stroke-linejoin:miter;stroke-miterlimit:4;stroke-opacity:1;stroke-dasharray:none;stroke-dashoffset:0"/>
          <g id="g4282" transform="matrix(0.5,0,0,0.5,165.96422,437.62938)">
            <g id="g4325">
              <g transform="translate(1113.7748,469.7503)" id="g4284">
                <path inkscape:connector-curvature="0" d="M 231.17299,451.91098 C 109.39398,451.91098 10.673,353.19001 10.673,231.411 c 0,-121.77795 98.72098,-220.500001 220.49999,-220.500001 121.77901,0 220.49999,98.722051 220.49999,220.500001 0,121.78007 -98.72098,220.49998 -220.49999,220.49998 z" id="path4286" style="fill:#ffffff;stroke:#000000;stroke-width:44;stroke-miterlimit:4;stroke-opacity:1;stroke-dasharray:none"/>
                <path inkscape:connector-curvature="0" d="m 120.805,110.043 c 24.267,-7.07 126.586,6.86 105.678,105.837 -7.609,36.019 -49.357,53.566 -69.592,68.72 -47.901,35.873 -6.648,121.071 -6.648,121.071 0,0 -22.318,-66.267 27.382,-97.619 C 223.352,279.206 380.998,292.759 380.456,203.786 379.417,33.321 113.795,94.816 120.805,110.043 z" id="path4288"/>
                <rect width="20.208" height="250.63" x="141.205" y="61.290001" id="rect4290"/>
              </g>
              <g id="g4314" transform="translate(5,1)">
                <path style="fill:#d40000;stroke:none" d="m 1383.8428,576.28689 c -5.9456,-0.6086 -11.7203,-0.75281 -17.062,-0.43621 1.0693,3.86384 2.194,7.75468 3.3388,11.67588 4.285,-0.39095 8.9041,-0.36191 13.6968,0.0771 5.8334,0.53426 11.6159,1.64454 17.0925,3.19859 5.4765,1.55405 10.6471,3.54981 15.4114,5.89239 4.7642,2.34258 9.1269,5.03111 13.1024,8.03686 3.9754,3.00575 7.5695,6.33245 10.8252,9.99561 0,0 0,0 0,0 2.235,2.51346 4.3058,5.17991 6.2087,8.00016 3.5909,-1.68007 7.1424,-3.44811 10.5803,-5.32703 -0.6952,-1.04327 -1.4055,-2.06556 -2.1307,-3.06727 0,0 0,0 0,0 -3.7105,-5.12579 -7.7751,-9.68671 -12.3431,-13.78949 -4.5681,-4.10277 -9.6595,-7.76844 -15.4914,-11.03729 -5.8319,-3.26884 -12.4265,-6.13861 -19.7278,-8.42088 -7.3013,-2.28226 -15.3121,-3.96014 -23.5011,-4.79837 0,-10e-6 0,-10e-6 0,-10e-6 z" id="path4311" inkscape:connector-curvature="0"/>
                <path style="fill:#ffffff;stroke:none" d="m 1384.0349,593.16455 c -4.2858,-0.36101 -8.4062,-0.33711 -12.2422,0.0843 1.1579,3.95129 2.3214,7.93446 3.4661,11.95074 2.9947,-0.42147 6.1924,-0.52151 9.5268,-0.30016 5.0176,0.33311 10.0188,1.36673 14.7699,2.94048 4.7511,1.57376 9.2526,3.68788 13.3813,6.24249 6.7855,4.19359 12.5635,9.56039 17.054,15.83865 3.5463,-1.47879 7.314,-3.08065 11.0756,-4.75064 -2.6053,-3.79725 -5.5639,-7.30905 -8.8588,-10.5232 -5.9807,-5.83809 -13.0811,-10.69262 -21.2553,-14.40581 -4.0871,-1.85659 -8.4365,-3.42068 -12.9635,-4.6264 -4.527,-1.20572 -9.2314,-2.05263 -13.9539,-2.45044 0,0 0,0 0,0 z" id="path4309" inkscape:connector-curvature="0"/>
                <path style="fill:#008100;fill-opacity:1;stroke:none" d="m 1385.2962,611.45607 c -2.8519,-0.1595 -5.5945,-0.0316 -8.172,0.37786 0.1653,0.60065 0.33,1.202 0.494,1.80405 0.9385,3.45399 1.8494,6.92263 2.7218,10.40044 1.8731,-0.33748 3.852,-0.47333 5.9032,-0.39997 5.0825,0.18175 10.0976,1.62185 14.6216,3.958 4.5241,2.33615 8.56,5.57259 11.8017,9.43937 3.2962,-1.3375 7.0599,-2.87746 11.1392,-4.55435 -3.2562,-4.36458 -7.2351,-8.22162 -11.7702,-11.423 -4.5352,-3.20138 -9.6367,-5.75238 -15.0462,-7.43896 -3.7981,-1.18608 -7.7432,-1.94252 -11.6931,-2.16344 0,0 0,0 0,0 z" id="path4307" inkscape:connector-curvature="0"/>
                <path style="fill:#d40000;stroke:none" d="m 1462.7103,627.04491 c -3.3051,2.26176 -6.7357,4.39834 -10.1948,6.44112 3.5754,7.74802 5.9942,16.38827 6.4505,25.44409 0.031,0.60829 0.052,1.21818 0.064,1.82944 0.024,1.11813 0.017,2.24119 -0.023,3.36774 -0.2038,5.78454 -1.2693,11.34408 -3.1188,16.50968 -1.8495,5.1656 -4.4798,9.934 -7.6571,14.19615 3.2856,2.54212 6.6731,5.13461 10.1499,7.73378 4.3284,-5.09424 7.9141,-10.93586 10.3405,-17.32598 2.4264,-6.39012 3.6872,-13.32222 3.7267,-20.5038 0.01,-1.39773 -0.03,-2.78987 -0.109,-4.17415 -0.036,-0.62576 -0.08,-1.24993 -0.1325,-1.87231 -0.4847,-5.74433 -1.6695,-11.33174 -3.3224,-16.63708 -1.653,-5.30534 -3.7688,-10.32788 -6.1745,-15.00868 z" id="path4305" inkscape:connector-curvature="0"/>
                <path style="fill:#ffffff;stroke:none" d="m 1447.3519,636.47206 c -3.6408,2.05583 -7.2728,4.02735 -10.6839,5.88372 1.9334,5.10052 3.1021,10.56042 3.2936,16.18683 0.02,0.59337 0.029,1.18837 0.027,1.78472 0,0.7559 -0.02,1.51418 -0.058,2.27426 -0.3819,7.68929 -2.6517,14.77808 -6.2492,20.86336 3.0658,2.41669 6.3418,4.97683 9.7143,7.60981 2.7019,-3.8662 4.9345,-8.14064 6.5237,-12.7407 1.5893,-4.60005 2.533,-9.52351 2.7558,-14.6434 0.044,-1.00576 0.06,-2.00889 0.048,-3.00828 -0.01,-0.60537 -0.022,-1.20948 -0.047,-1.81211 -0.3322,-7.89308 -2.2907,-15.48329 -5.3248,-22.39821 0,0 0,0 0,0 z" id="path4303" inkscape:connector-curvature="0"/>
                <path style="fill:#008100;fill-opacity:1;stroke:none" d="m 1430.772,645.57356 c -3.9618,2.18154 -7.5536,4.23389 -10.6512,6.10128 0.4918,2.04065 0.7974,4.13739 0.9012,6.27283 0.028,0.58635 0.041,1.17546 0.039,1.76696 0,0 0,0 0,0 -9e-4,0.39983 -0.01,0.80082 -0.024,1.20285 -0.1442,3.79862 -0.9293,7.38815 -2.2238,10.68707 2.8037,2.28548 6.0268,4.85368 9.5773,7.66612 2.7441,-5.14806 4.465,-10.99716 4.7662,-17.29101 0.03,-0.63132 0.046,-1.26128 0.048,-1.88951 0,0 0,0 0,0 0,-0.59319 -0.01,-1.18498 -0.028,-1.77504 -0.164,-4.39191 -1.0028,-8.67717 -2.4036,-12.74155 z" id="path4301" inkscape:connector-curvature="0"/>
                <path style="fill:#008100;fill-opacity:1;stroke:none" d="m 1409.7905,684.53907 c -3.2494,2.95548 -6.9886,5.32809 -11.0283,7.06847 -4.0397,1.74039 -8.3895,2.85649 -12.9144,3.20194 -1.8389,0.14038 -3.6356,0.14162 -5.3717,0.0144 -0.8816,3.22054 -1.8064,6.40477 -2.7631,9.54327 -0.2087,0.68417 -0.4188,1.36596 -0.6301,2.04532 2.4385,0.10661 4.9454,0.0427 7.4927,-0.19641 6.5917,-0.61873 12.8034,-2.27309 18.5826,-4.76499 6.1198,-2.63595 11.8048,-6.24529 16.6567,-10.92062 -3.672,-2.30919 -7.0434,-4.31945 -10.0244,-5.99138 0,0 0,0 0,0 z" id="path4299" inkscape:connector-curvature="0"/>
                <path style="fill:#ffffff;stroke:none" d="m 1425.2621,694.03739 c -2.8765,2.7705 -6.0178,5.19012 -9.3198,7.28976 -4.7359,3.01453 -9.7857,5.37415 -15.1168,7.18913 -5.3311,1.81499 -10.9724,3.09967 -16.986,3.72423 -2.9545,0.30685 -5.8766,0.43104 -8.7366,0.36532 -1.2178,3.71582 -2.461,7.35073 -3.689,10.90005 3.7284,-0.0378 7.4785,-0.3142 11.1959,-0.77212 5.0109,-0.61725 9.6972,-1.53157 14.1525,-2.66182 4.4553,-1.13026 8.6911,-2.47906 12.8251,-4.08844 4.134,-1.60939 8.1726,-3.48458 12.1177,-5.73006 3.9451,-2.24548 7.7949,-4.86676 11.4018,-7.94719 0,0 0,0 0,0 0.6555,-0.55938 1.3026,-1.13345 1.9399,-1.72241 -3.3802,-2.30528 -6.676,-4.51492 -9.7847,-6.54645 z" id="path4297" inkscape:connector-curvature="0"/>
                <path style="fill:#d40000;stroke:none" d="m 1439.9113,703.91751 c -4.1408,3.72986 -8.6225,6.83743 -13.1781,9.43977 -4.5557,2.60234 -9.1786,4.7091 -13.8592,6.50323 -4.6807,1.79413 -9.4293,3.28539 -14.4685,4.57082 -5.0392,1.28543 -10.391,2.37029 -16.2579,3.15011 -4.1042,0.54555 -8.294,0.90618 -12.4996,1.02384 -1.1999,3.46297 -2.3598,6.83989 -3.4159,10.13261 5.3617,-0.31396 10.5618,-0.9078 15.4944,-1.6637 7.1427,-1.09458 13.3073,-2.42537 18.9943,-3.8444 5.6871,-1.41904 10.9442,-2.93597 16.2962,-4.76079 5.3521,-1.82481 10.82,-3.97611 16.4139,-6.80933 5.5939,-2.83322 11.2956,-6.36815 16.5828,-10.80243 -3.4586,-2.3537 -6.8247,-4.68113 -10.1024,-6.93973 0,0 0,0 0,0 z" id="path4292" inkscape:connector-curvature="0"/>
              </g>
            </g>
          </g>
        </g>
      </g>
      <text xml:space="preserve" style="font-size:24px;font-style:normal;font-variant:normal;font-weight:normal;font-stretch:normal;text-align:start;line-height:125%;letter-spacing:0px;word-spacing:0px;writing-mode:lr-tb;text-anchor:start;fill:#000000;fill-opacity:1;stroke:none;font-family:Sans;-inkscape-font-specification:Sans" x="709.2417" y="919.29065" id="text4738" sodipodi:linespacing="125%"><tspan sodipodi:role="line" id="tspan4740" x="709.2417" y="919.29065">Deformazione + Colore</tspan></text>
    </g>
    <text xml:space="preserve" style="font-size:32px;font-style:italic;font-variant:normal;font-weight:bold;font-stretch:normal;text-align:start;line-height:125%;letter-spacing:0px;word-spacing:0px;writing-mode:lr-tb;text-anchor:start;fill:#000000;fill-opacity:1;stroke:none;font-family:Sans;-inkscape-font-specification:Sans Bold Italic" x="37.736267" y="379.80756" id="text4806" sodipodi:linespacing="125%"><tspan sodipodi:role="line" id="tspan4808" x="37.736267" y="379.80756" style="font-size:28px;font-style:normal;font-variant:normal;font-weight:bold;font-stretch:normal;text-align:start;line-height:125%;writing-mode:lr-tb;text-anchor:start;font-family:Sans;-inkscape-font-specification:Sans Bold">Proposta logo:</tspan><tspan sodipodi:role="line" x="37.736267" y="414.80756" style="font-size:28px;font-style:normal;font-variant:normal;font-weight:bold;font-stretch:normal;text-align:start;line-height:125%;writing-mode:lr-tb;text-anchor:start;font-family:Sans;-inkscape-font-specification:Sans Bold" id="tspan4810">Partito Pirata Italiano</tspan></text>
  </g>
</svg>