<?xml version="1.0" encoding="UTF-8"?>
<!-- Generator: Adobe Illustrator 15.0.0, SVG Export Plug-In . SVG Version: 6.00 Build 0)  -->
<!DOCTYPE svg PUBLIC "-//W3C//DTD SVG 1.1//EN" "http://www.w3.org/Graphics/SVG/1.1/DTD/svg11.dtd">
<svg version="1.1" id="svg2297" inkscape:version="0.46" sodipodi:version="0.32" sodipodi:docname="Logo_normal.svg" sodipodi:docbase="D:\_kunden\piratenpartei\logovarianten" inkscape:output_extension="org.inkscape.output.svg.inkscape" xmlns:inkscape="http://www.inkscape.org/namespaces/inkscape" xmlns:sodipodi="http://sodipodi.sourceforge.net/DTD/sodipodi-0.dtd" xmlns:svg="http://www.w3.org/2000/svg" xmlns:rdf="http://www.w3.org/1999/02/22-rdf-syntax-ns#" xmlns:cc="http://creativecommons.org/ns#" xmlns:dc="http://purl.org/dc/elements/1.1/" xmlns="http://www.w3.org/2000/svg" xmlns:xlink="http://www.w3.org/1999/xlink" x="0px" y="0px" width="175.792px" height="81.748px" viewBox="0 0 175.792 81.748" enable-background="new 0 0 175.792 81.748" xml:space="preserve">
<path id="path2202" inkscape:export-ydpi="90" inkscape:export-xdpi="90" fill="#E3E8E8" d="M0,0h175.792v81.748H0V0z"/>
<sodipodi:namedview inkscape:window-height="719" borderopacity="1.0" bordercolor="#666666" pagecolor="#ffffff" inkscape:pageshadow="2" inkscape:pageopacity="0.0" gridtolerance="10.0" id="base" inkscape:zoom="2.3119823" objecttolerance="10.0" guidetolerance="10.0" inkscape:cx="76.217773" inkscape:cy="49.570069" inkscape:window-x="0" inkscape:window-y="22" inkscape:current-layer="svg2297" showgrid="false" inkscape:window-width="1024">
	</sodipodi:namedview>
<defs>
	
	
		<inkscape:perspective id="perspective32" inkscape:vp_x="0 : 40.874016 : 1" inkscape:vp_z="175.7921 : 40.874016 : 1" inkscape:vp_y="0 : 1000 : 0" inkscape:persp3d-origin="87.896049 : 27.249344 : 1" sodipodi:type="inkscape:persp3d">
		</inkscape:perspective>
</defs>
<path id="path2294" inkscape:export-ydpi="90" inkscape:export-filename="D:\_kunden\piratenpartei\logovarianten\path2202.png" sodipodi:nodetypes="ccccc" inkscape:export-xdpi="90" fill="#FFFFFF" d="  M34.94,20.131h120.638v40.769H34.94V20.131z"/>
<path id="path2296" inkscape:export-ydpi="90" inkscape:export-filename="D:\_kunden\piratenpartei\logovarianten\path2202.png" inkscape:export-xdpi="90" fill="#FF8800" d="  M35.156,40.398h120.421v20.501H35.156V40.398z"/>
<path id="path2298" inkscape:export-ydpi="90" inkscape:export-filename="D:\_kunden\piratenpartei\logovarianten\path2202.png" inkscape:export-xdpi="90" d="  M66.37,24.061h6.594c1.436,0,2.51,0.341,3.222,1.025c0.718,0.682,1.078,1.655,1.078,2.916c0,1.296-0.391,2.309-1.174,3.039  c-0.776,0.73-1.964,1.094-3.564,1.094h-2.171v4.763H66.37V24.061z M70.356,29.535h0.972c0.765,0,1.301-0.131,1.611-0.395  c0.31-0.269,0.464-0.61,0.464-1.025c0-0.404-0.134-0.745-0.402-1.025c-0.269-0.28-0.774-0.42-1.516-0.42h-1.13L70.356,29.535  L70.356,29.535z"/>
<path id="path2300" inkscape:export-ydpi="90" inkscape:export-filename="D:\_kunden\piratenpartei\logovarianten\path2202.png" inkscape:export-xdpi="90" d="  M79,24.061h3.977v12.837H79V24.061z"/>
<path id="path2302" inkscape:export-ydpi="90" inkscape:export-filename="D:\_kunden\piratenpartei\logovarianten\path2202.png" inkscape:export-xdpi="90" d="  M85.289,36.898V24.061H91.9c1.227,0,2.162,0.105,2.812,0.314c0.646,0.21,1.17,0.602,1.565,1.174  c0.397,0.565,0.597,1.258,0.597,2.075c0,0.711-0.151,1.328-0.457,1.848c-0.303,0.514-0.721,0.931-1.252,1.251  c-0.338,0.205-0.803,0.374-1.393,0.508c0.475,0.157,0.818,0.314,1.035,0.472c0.145,0.105,0.355,0.33,0.63,0.674  c0.28,0.345,0.468,0.609,0.56,0.797l1.918,3.721h-4.482l-2.119-3.924c-0.27-0.506-0.508-0.837-0.718-0.989  c-0.286-0.198-0.609-0.297-0.974-0.297h-0.35v5.21L85.289,36.898L85.289,36.898z M89.273,29.263h1.672  c0.182,0,0.531-0.059,1.051-0.176c0.264-0.052,0.477-0.187,0.641-0.403c0.169-0.216,0.253-0.463,0.253-0.745  c0-0.414-0.132-0.733-0.394-0.954c-0.264-0.221-0.756-0.332-1.479-0.333h-1.743L89.273,29.263L89.273,29.263z"/>
<path id="path2304" inkscape:export-ydpi="90" inkscape:export-filename="D:\_kunden\piratenpartei\logovarianten\path2202.png" inkscape:export-xdpi="90" d="  M107.08,34.779h-4.518l-0.621,2.119h-4.055l4.824-12.837h4.326l4.824,12.837h-4.15L107.08,34.779z M106.25,32.003l-1.42-4.614  l-1.41,4.614H106.25z"/>
<path id="path2306" inkscape:export-ydpi="90" inkscape:export-filename="D:\_kunden\piratenpartei\logovarianten\path2202.png" inkscape:export-xdpi="90" d="  M109.943,24.061H122v3.169h-4.045v9.667h-3.968V27.23h-4.045L109.943,24.061L109.943,24.061z"/>
<path id="path2308" inkscape:export-ydpi="90" inkscape:export-filename="D:\_kunden\piratenpartei\logovarianten\path2202.png" inkscape:export-xdpi="90" d="  M123.394,24.061h10.631v2.74h-6.656v2.041h6.174v2.619h-6.174v2.531h6.848v2.907h-10.821L123.394,24.061L123.394,24.061z"/>
<path id="path2310" inkscape:export-ydpi="90" inkscape:export-filename="D:\_kunden\piratenpartei\logovarianten\path2202.png" inkscape:export-xdpi="90" d="  M136.376,24.061h3.705l4.832,7.102v-7.102h3.739v12.837h-3.739l-4.808-7.049v7.049h-3.729V24.061z"/>
<path id="path2312" inkscape:export-ydpi="90" inkscape:export-filename="D:\_kunden\piratenpartei\logovarianten\path2202.png" inkscape:export-xdpi="90" fill="#FFFFFF" d="  M14.508,40.318c0-12.688,10.285-22.972,22.972-22.972s22.972,10.285,22.972,22.972s-10.286,22.97-22.972,22.97  C24.793,63.288,14.508,53.005,14.508,40.318z"/>
<path id="path2314" inkscape:export-ydpi="90" inkscape:export-filename="D:\_kunden\piratenpartei\logovarianten\path2202.png" inkscape:export-xdpi="90" d="  M31.801,28.256V45.72c0.271-0.197,0.566-0.385,0.886-0.561c4.444-2.42,6.111-4.609,6.042-8.627  C38.636,31.191,35.206,28.99,31.801,28.256z M29.763,23.047h2.038v3.296c1.809-0.409,4.131-0.669,7.073-0.669  c7.867,0,13.818,2.514,15.17,9.606c1.259,6.6-2.593,8.582-8.105,10.145c-4.355,1.232-11.956,1.535-13.994,4.082  c-2.038,2.547-2.126,5.776-1.378,8.664c-1.053-2.646-1.604-4.374-1.604-6.48c0-1.145,0.205-2.407,0.799-3.586V27.977  c-0.756-0.049-1.476-0.036-2.116,0.017c0.539-0.375,1.234-0.739,2.116-1.062L29.763,23.047L29.763,23.047z"/>
<path id="path2329" fill="#FFFFFF" d="M66.371,44.017h6.767c1.474,0,2.576,0.344,3.307,1.031c0.737,0.688,1.104,1.667,1.104,2.938  c0,1.307-0.402,2.326-1.204,3.062c-0.797,0.734-2.016,1.104-3.657,1.104h-2.229v4.799H66.37L66.371,44.017L66.371,44.017z   M70.46,49.53h0.997c0.786,0,1.336-0.133,1.653-0.396c0.318-0.271,0.477-0.613,0.478-1.031c0-0.405-0.138-0.75-0.413-1.033  c-0.275-0.283-0.794-0.424-1.555-0.424h-1.159L70.46,49.53L70.46,49.53L70.46,49.53z"/>
<path id="path2331" fill="#FFFFFF" d="M89.235,54.815h-4.637L83.96,56.95H79.8l4.952-12.934h4.438l4.951,12.934h-4.259  L89.235,54.815z M88.383,52.019l-1.457-4.649l-1.447,4.649H88.383z"/>
<path id="path2333" fill="#FFFFFF" d="M97.654,56.95V44.017h6.786c1.257,0,2.218,0.105,2.884,0.316  c0.664,0.212,1.2,0.605,1.608,1.182c0.405,0.57,0.61,1.269,0.61,2.092c0,0.718-0.156,1.338-0.467,1.86  c-0.312,0.519-0.742,0.938-1.285,1.263c-0.348,0.205-0.824,0.377-1.429,0.511c0.485,0.159,0.839,0.317,1.062,0.477  c0.148,0.107,0.363,0.332,0.646,0.681c0.287,0.347,0.479,0.615,0.574,0.803l1.969,3.75h-4.604l-2.174-3.953  c-0.275-0.512-0.521-0.844-0.736-0.996c-0.295-0.201-0.627-0.3-0.998-0.3h-0.359v5.249H97.654L97.654,56.95L97.654,56.95z   M101.744,49.257h1.715c0.188,0,0.547-0.059,1.08-0.176c0.27-0.053,0.487-0.188,0.655-0.406c0.173-0.217,0.261-0.467,0.261-0.749  c0-0.417-0.136-0.737-0.404-0.962c-0.271-0.223-0.775-0.336-1.518-0.336h-1.791L101.744,49.257L101.744,49.257z"/>
<path id="path2335" fill="#FFFFFF" d="M113.214,44.017h12.373v3.193h-4.151v9.739h-4.071V47.21h-4.152v-3.193H113.214z"/>
<path id="path2337" fill="#FFFFFF" d="M129.147,44.017h10.908v2.762h-6.828v2.056h6.336v2.64h-6.336v2.549h7.026v2.93h-11.106  V44.017z"/>
<path id="path2339" fill="#FFFFFF" d="M144.576,44.017h4.078V56.95h-4.078V44.017z"/>
<path id="path2203" inkscape:export-ydpi="90" inkscape:export-filename="D:\_kunden\piratenpartei\logovarianten\path2202.png" inkscape:export-xdpi="90" d="  M37.467,16.358c-13.218,0-23.928,10.747-23.928,23.966c0,13.218,10.709,23.966,23.928,23.966c13.219,0,23.966-10.748,23.966-23.966  C61.433,27.106,50.686,16.358,37.467,16.358z M37.467,18.33c12.155,0,21.995,9.84,21.995,21.995c0,12.154-9.84,21.994-21.995,21.994  c-12.155,0-21.957-9.84-21.957-21.994C15.511,28.168,25.312,18.33,37.467,18.33z"/>
</svg>