<?xml version="1.0" encoding="UTF-8" standalone="no"?>
<!-- lynXified with Inkscape (http://www.inkscape.org/) -->
<svg xmlns:dc="http://purl.org/dc/elements/1.1/" xmlns:cc="http://creativecommons.org/ns#" xmlns:rdf="http://www.w3.org/1999/02/22-rdf-syntax-ns#" xmlns:svg="http://www.w3.org/2000/svg" xmlns="http://www.w3.org/2000/svg" xmlns:sodipodi="http://sodipodi.sourceforge.net/DTD/sodipodi-0.dtd" xmlns:inkscape="http://www.inkscape.org/namespaces/inkscape" version="1.0" width="1196.416" height="1149.7419" viewBox="-0.327 -0.089 1579.135 1517.5304" id="svg2" xml:space="preserve" sodipodi:version="0.32" inkscape:version="0.48.3.1 r9886" sodipodi:docname="notevologo-von-lynX.svg" inkscape:output_extension="org.inkscape.output.svg.inkscape" inkscape:export-filename="/RAM/adesivo.png" inkscape:export-xdpi="12.32" inkscape:export-ydpi="12.32"><metadata id="metadata8"><rdf:RDF><cc:Work rdf:about=""><dc:format>image/svg+xml</dc:format><dc:type rdf:resource="http://purl.org/dc/dcmitype/StillImage"/><dc:title/></cc:Work></rdf:RDF></metadata><sodipodi:namedview inkscape:window-height="996" inkscape:window-width="1265" inkscape:pageshadow="2" inkscape:pageopacity="1" guidetolerance="10.0" gridtolerance="10.0" objecttolerance="10.0" borderopacity="0.77647059" bordercolor="#ba1248" pagecolor="#ff6600" id="base" showgrid="false" inkscape:zoom="0.75726971" inkscape:cx="595.46631" inkscape:cy="574.87095" inkscape:window-x="62" inkscape:window-y="24" inkscape:current-layer="text3051" borderlayer="false" inkscape:document-units="cm" showguides="true" inkscape:guide-bbox="true" units="cm" inkscape:showpageshadow="false" inkscape:window-maximized="0" fit-margin-top="1" fit-margin-left="1" fit-margin-right="1" fit-margin-bottom="1"><sodipodi:guide orientation="1,0" position="1720.47,2012.4775" id="guide3160"/><inkscape:grid type="xygrid" id="grid3162" visible="true" enabled="true" empspacing="5" snapvisiblegridlinesonly="true" originx="550.85367px" originy="455.30969px"/><sodipodi:guide orientation="1,0" position="894.59713,756.78961" id="guide2406"/><sodipodi:guide orientation="1,0" position="557.95132,788.89917" id="guide2408"/><sodipodi:guide orientation="0,1" position="296.79084,892.91996" id="guide3165"/><sodipodi:guide orientation="0,1" position="288.49491,575.60066" id="guide3167"/><sodipodi:guide orientation="0,1" position="212.79455,876.3281" id="guide3169"/><sodipodi:guide orientation="0,1" position="210.72057,593.22951" id="guide3171"/></sodipodi:namedview>
	<defs id="defs4"><inkscape:perspective sodipodi:type="inkscape:persp3d" inkscape:vp_x="0 : 231.5 : 1" inkscape:vp_y="0 : 1000 : 0" inkscape:vp_z="463 : 231.5 : 1" inkscape:persp3d-origin="231.5 : 154.33333 : 1" id="perspective10"/>
	



<inkscape:perspective sodipodi:type="inkscape:persp3d" inkscape:vp_x="0 : 231.5 : 1" inkscape:vp_y="0 : 1000 : 0" inkscape:vp_z="463 : 231.5 : 1" inkscape:persp3d-origin="231.5 : 154.33333 : 1" id="perspective3813"/>
	



	

<inkscape:perspective id="perspective2461" inkscape:persp3d-origin="231.5 : 154.33333 : 1" inkscape:vp_z="463 : 231.5 : 1" inkscape:vp_y="0 : 1000 : 0" inkscape:vp_x="0 : 231.5 : 1" sodipodi:type="inkscape:persp3d"/>
<inkscape:perspective sodipodi:type="inkscape:persp3d" inkscape:vp_x="0 : 231.5 : 1" inkscape:vp_y="0 : 1000 : 0" inkscape:vp_z="463 : 231.5 : 1" inkscape:persp3d-origin="231.5 : 154.33333 : 1" id="perspective3638"/>
	


<inkscape:perspective sodipodi:type="inkscape:persp3d" inkscape:vp_x="0 : 197.6095 : 1" inkscape:vp_y="0 : 1000 : 0" inkscape:vp_z="3390.47 : 197.6095 : 1" inkscape:persp3d-origin="1695.235 : 131.73966 : 1" id="perspective3521"/><inkscape:perspective sodipodi:type="inkscape:persp3d" inkscape:vp_x="0 : 526.18109 : 1" inkscape:vp_y="0 : 1000 : 0" inkscape:vp_z="744.09448 : 526.18109 : 1" inkscape:persp3d-origin="372.04724 : 350.78739 : 1" id="perspective2434"/>
	



<inkscape:perspective id="perspective2508" inkscape:persp3d-origin="231.5 : 154.33333 : 1" inkscape:vp_z="463 : 231.5 : 1" inkscape:vp_y="0 : 1000 : 0" inkscape:vp_x="0 : 231.5 : 1" sodipodi:type="inkscape:persp3d"/><inkscape:perspective id="perspective2471" inkscape:persp3d-origin="231.5 : 154.33333 : 1" inkscape:vp_z="463 : 231.5 : 1" inkscape:vp_y="0 : 1000 : 0" inkscape:vp_x="0 : 231.5 : 1" sodipodi:type="inkscape:persp3d"/></defs>





<path d="M 79.743282,229.4707 C 207.7766,200.57407 798.00496,135.81466 689.33097,609.03326 642.32603,818.02389 424.38517,874.58184 324.21751,927.14861 c -386.767387,202.97079 22.10731,543.52519 22.10731,543.52519 0,0 -228.94287,-408.0618 130.8901,-465.0325 146.51441,-44.72289 800.84648,5.328 851.29558,-394.61461 C 1432.307,-125.34957 163.41314,-11.353857 79.743282,229.4707 z" id="path8-0" sodipodi:nodetypes="ccscccc" inkscape:export-filename="foo.png" inkscape:export-xdpi="566.22858" inkscape:export-ydpi="566.22858" inkscape:connector-curvature="0" style="opacity:0.1"/><path inkscape:connector-curvature="0" style="opacity:0.1;fill:#000000;fill-opacity:1;stroke:#ffffff;stroke-width:103.1687088;stroke-miterlimit:1;stroke-opacity:1;stroke-dasharray:none" id="thickc-5" d="m 682.74796,1138.6973 c -172.50642,0 -312.34997,-139.84352 -312.34997,-312.34993 0,-172.50491 139.84355,-312.35013 312.34997,-312.35013 172.50638,0 312.34986,139.84522 312.34986,312.35013 0,172.50787 -139.84348,312.34993 -312.34986,312.34993 z" inkscape:export-filename="foo.png" inkscape:export-xdpi="566.22858" inkscape:export-ydpi="566.22858"/><path inkscape:connector-curvature="0" d="m 275.18716,766.27597 c -120.84708,0 -218.812608,-97.78992 -218.812608,-218.42052 0,-120.62951 97.965528,-218.42042 218.812608,-218.42042 120.84713,0 218.81265,97.79091 218.81265,218.42042 0,120.63161 -97.96552,218.42052 -218.81265,218.42052 z" id="path2391" style="fill:#ffffff;stroke:#ffffff;stroke-width:19.86774254;stroke-miterlimit:4;stroke-opacity:1;stroke-dasharray:none" inkscape:export-filename="/i/perso2/ToDO/pirates/rect3169.png" inkscape:export-xdpi="37.5" inkscape:export-ydpi="37.5"/><path style="fill:#ffffff;fill-opacity:1;fill-rule:evenodd;stroke:none" d="m 587.46204,515.57446 937.34086,0 0,218.87055 -937.34086,0 z" id="rect3161"/><g style="font-size:168.97485352px;font-style:normal;font-weight:normal;line-height:125%;letter-spacing:0px;word-spacing:0px;fill:#000000;fill-opacity:1;stroke:none;font-family:Sans" id="text3051"><path d="m 626.55614,673.74453 c 0,6.87168 0.33795,18.6999 1.01385,35.48472 l 2.19667,2.19667 c 16.55952,0.6759 30.41544,1.01385 41.56782,1.01385 l 5.91412,0 c 0.78849,-0.4506 2.02764,-1.1265 3.71745,-2.0277 l 0,-44.44038 c 2.14029,-3.15415 4.05533,-4.73125 5.74514,-4.7313 l 67.58994,0 c 12.84195,5e-5 23.65633,-3.71739 32.44317,-11.15234 9.34977,-7.77277 14.02474,-17.96758 14.02492,-30.58445 -1.8e-4,-12.61668 -4.39352,-23.14944 -13.18004,-31.5983 -8.78685,-8.4486 -19.5449,-12.67297 -32.2742,-12.67311 l -119.12727,0 c -5.74515,1.4e-4 -8.61772,2.47843 -8.61772,7.43489 0,4.39348 0,6.59015 0,6.59002 0,0.78868 0.0563,2.02782 0.16898,3.71745 -10e-6,1.35192 -10e-6,2.30944 0,2.87257 -10e-6,6.98441 -0.22531,17.40451 -0.6759,31.26035 -0.33795,13.85601 -0.50693,24.27612 -0.50693,31.26035 l 0,15.37671 m 55.7617,-56.77555 c -5e-5,-0.56315 0.0563,-1.8023 0.16898,-3.71745 l 4.22437,-2.19667 47.48193,0 c 1.91494,1e-4 3.49204,0.676 4.7313,2.0277 1.23903,1.3519 1.85861,2.98532 1.85872,4.90027 -1.1e-4,1.91514 -0.61969,3.54856 -1.85872,4.90027 -1.23926,1.35189 -2.81636,2.02779 -4.7313,2.0277 l -50.69245,0 c -0.78861,-0.67581 -1.18288,-3.32308 -1.18283,-7.94182" style="font-variant:normal;font-stretch:normal;font-family:ReservoirGrunge;-inkscape-font-specification:ReservoirGrunge" id="path3043"/><path d="m 811.36691,711.42592 c 9.23728,0.78855 19.71371,1.18283 31.42932,1.18282 l 10.81439,0 c -0.90124,10e-6 0.3379,-0.0563 3.71745,-0.16897 -5e-5,0 1.23909,0 3.71744,0 l 2.19668,-2.0277 c 0.67584,-29.73954 1.01379,-51.3683 1.01385,-64.88634 l 0,-65.05532 c -0.56331,-1.46431 -1.29553,-2.47816 -2.19668,-3.04155 l -49.50963,-1.18282 c -0.9012,0.67604 -1.63343,1.74621 -2.19667,3.21052 -10e-6,6.75912 -0.16898,16.95393 -0.50693,30.58445 -0.33795,13.51808 -0.50692,23.65656 -0.50692,30.41547 l 0,67.75892 c 0.33795,0.78855 1.01384,1.85873 2.0277,3.21052" style="font-variant:normal;font-stretch:normal;font-family:ReservoirGrunge;-inkscape-font-specification:ReservoirGrunge" id="path3045"/><path d="m 881.12127,712.43977 25.85316,0 c 3.60476,0 11.20862,-0.33795 22.8116,-1.01385 l 1.52077,-1.18282 0,-44.27141 c 0.3379,-0.45056 0.84482,-1.18278 1.52078,-2.19668 0.45054,-0.45055 1.18276,-1.12644 2.19667,-2.0277 l 24.33238,0 c 2.02761,6e-5 4.16796,2.30938 6.42104,6.92797 1.35171,2.70364 2.36556,4.61869 3.04155,5.74515 2.59085,4.28073 6.5336,10.70177 11.82824,19.26313 4.95649,7.77286 9.46248,13.68697 13.51799,17.74236 l 56.94455,0 0,-5.40719 -26.3601,-42.24372 c -1.014,-1.68969 -1.6899,-3.09782 -2.0277,-4.22437 0.5631,-1.12644 1.5769,-2.14029 3.0415,-3.04155 10.8143,-6.64628 17.348,-11.15227 19.6011,-13.51798 4.6185,-4.95652 6.9278,-12.44774 6.928,-22.47366 -2e-4,-13.63053 -4.7878,-24.67021 -14.3629,-33.11907 -9.1248,-8.22331 -20.5587,-12.33503 -34.3019,-12.33517 l -71.13837,0 c -3.15425,1.4e-4 -8.95572,0.11279 -17.40441,0.33795 -8.33613,0.22544 -14.08126,0.33809 -17.23544,0.33795 -3.83011,1.4e-4 -9.57525,0.28177 -17.23543,0.84488 -1.68975,0.33809 -2.59095,0.90133 -2.7036,1.68975 0,1.80253 -0.0563,6.13955 -0.16897,13.01106 l -0.50693,30.75342 c -0.2253,13.63072 -0.33795,25.62792 -0.33795,35.99165 l 0,20.44595 c 0,0.33799 0.16897,5.12561 0.50693,14.36287 l 0.33795,9.29361 c 0.11264,3.15421 0.16897,5.23823 0.16897,6.25207 0.4506,2.7036 1.52077,4.0554 3.21052,4.0554 m 51.70631,-87.69795 c -0.67596,-2.7035 -1.01391,-5.01282 -1.01385,-6.92797 -6e-5,-5.18179 1.07012,-7.77274 3.21052,-7.77284 l 46.46809,0 c 7.09683,10e-5 10.6453,2.7037 10.64541,8.11079 -1.1e-4,5.06934 -2.87268,7.60396 -8.61772,7.60387 -4.7314,9e-5 -11.77201,0.22539 -21.12185,0.6759 -9.35002,0.33804 -16.39063,0.50701 -21.12186,0.50692 -3.49221,9e-5 -6.30845,-0.73213 -8.44874,-2.19667" style="font-variant:normal;font-stretch:normal;font-family:ReservoirGrunge;-inkscape-font-specification:ReservoirGrunge" id="path3047"/><path d="m 1041.1807,711.07106 c 24.5577,0.9012 39.1458,1.3518 43.7645,1.3518 4.2807,0 7.3222,-0.78855 9.1247,-2.36565 2.1403,-5.97044 4.2243,-9.51891 6.252,-10.64542 4.3933,2e-5 10.9833,-0.16896 19.7701,-0.50692 8.8992,-0.45059 15.5456,-0.67589 19.939,-0.6759 10.4764,10e-6 16.3905,0.73224 17.7424,2.19667 0.4505,0.78856 1.7459,2.81626 3.8864,6.0831 1.6896,2.7036 3.4357,4.22437 5.2382,4.56232 2.2529,0 6.1956,0.0563 11.8283,0.16897 l 36.8365,1.01385 c 3.4919,0 5.238,-1.1265 5.2382,-3.3795 L 1188.0199,630.808 c -2.1405,-4.73121 -5.9143,-13.57421 -11.3213,-26.52905 -4.1682,-10.36367 -8.111,-19.15035 -11.8283,-26.36008 -1.0139,-2.02756 -2.8163,-3.04141 -5.4072,-3.04154 l -21.1218,-0.16898 c -12.3916,-0.11251 -25.0647,0.28176 -38.0194,1.18283 -1.0139,1.01398 -2.0277,2.08415 -3.0415,3.21052 l -56.0997,122.50677 c -1.3518,2.9289 -2.0277,5.1819 -2.0277,6.75899 l 0,0.50692 c 0.338,0.45061 1.0139,1.18283 2.0277,2.19668 m 73.842,-51.03041 c 0,-2.70354 1.5207,-8.11073 4.5624,-16.22158 3.2667,-8.78662 5.8577,-13.17996 7.7728,-13.18004 1.3517,8e-5 3.8863,4.28077 7.6039,12.84209 3.7173,8.56145 5.576,14.02496 5.5761,16.39056 -10e-5,1.6898 -3.0979,2.591 -9.2936,2.70359 5.2945,-0.11259 1.577,-0.16892 -11.1523,-0.16897 -0.338,5e-5 -0.9013,0.0564 -1.6898,0.16897 -0.7886,0.11271 -1.3518,0.16903 -1.6897,0.16898 -1.1266,5e-5 -1.6898,-0.90115 -1.6898,-2.7036" style="font-variant:normal;font-stretch:normal;font-family:ReservoirGrunge;-inkscape-font-specification:ReservoirGrunge" id="path3049"/><path d="m 1188.4183,579.45656 0,29.5706 c 0,2.36575 6.59,3.54857 19.77,3.54847 3.3795,10e-5 8.3924,-0.0562 15.0388,-0.16897 l 13.6869,-0.16898 c 2.1403,1e-4 3.2105,2.08413 3.2106,6.25207 l 0,90.7395 c -1e-4,2.14035 1.0701,3.21052 3.2105,3.21052 l 48.4958,0 1.0138,-2.0277 c 0.3379,-19.71371 0.7321,-39.08947 1.1828,-58.12735 l 1.0139,-38.01934 c 1.239,-1.3517 2.3092,-2.2529 3.2105,-2.7036 l 47.482,0 0,-32.10522 -2.1967,-2.19667 c -18.3621,-0.67576 -30.8099,-1.01371 -37.3435,-1.01385 l -94.7949,0 c -1.8024,1.4e-4 -8.7867,0.33809 -20.9528,1.01385 l -2.0277,2.19667" style="font-variant:normal;font-stretch:normal;font-family:ReservoirGrunge;-inkscape-font-specification:ReservoirGrunge" id="path3051"/><path d="m 1313.9987,711.07106 c 24.5576,0.9012 39.1458,1.3518 43.7645,1.3518 4.2806,0 7.3222,-0.78855 9.1246,-2.36565 2.1403,-5.97044 4.2243,-9.51891 6.2521,-10.64542 4.3933,2e-5 10.9833,-0.16896 19.7701,-0.50692 8.8992,-0.45059 15.5455,-0.67589 19.939,-0.6759 10.4763,10e-6 16.3904,0.73224 17.7423,2.19667 0.4505,0.78856 1.746,2.81626 3.8865,6.0831 1.6896,2.7036 3.4357,4.22437 5.2382,4.56232 2.2529,0 6.1956,0.0563 11.8282,0.16897 l 36.8365,1.01385 c 3.492,0 5.2381,-1.1265 5.2383,-3.3795 L 1460.8378,630.808 c -2.1405,-4.73121 -5.9142,-13.57421 -11.3213,-26.52905 -4.1682,-10.36367 -8.1109,-19.15035 -11.8282,-26.36008 -1.014,-2.02756 -2.8164,-3.04141 -5.4072,-3.04154 l -21.1219,-0.16898 c -12.3915,-0.11251 -25.0646,0.28176 -38.0193,1.18283 -1.0139,1.01398 -2.0278,2.08415 -3.0416,3.21052 l -56.0996,122.50677 c -1.3518,2.9289 -2.0277,5.1819 -2.0277,6.75899 l 0,0.50692 c 0.3379,0.45061 1.0138,1.18283 2.0277,2.19668 m 73.842,-51.03041 c -10e-5,-2.70354 1.5207,-8.11073 4.5623,-16.22158 3.2668,-8.78662 5.8577,-13.17996 7.7729,-13.18004 1.3517,8e-5 3.8863,4.28077 7.6038,12.84209 3.7174,8.56145 5.5761,14.02496 5.5762,16.39056 -10e-5,1.6898 -3.098,2.591 -9.2936,2.70359 5.2944,-0.11259 1.577,-0.16892 -11.1523,-0.16897 -0.3381,5e-5 -0.9013,0.0564 -1.6898,0.16897 -0.7886,0.11271 -1.3519,0.16903 -1.6897,0.16898 -1.1266,5e-5 -1.6899,-0.90115 -1.6898,-2.7036" style="font-variant:normal;font-stretch:normal;font-family:ReservoirGrunge;-inkscape-font-specification:ReservoirGrunge" id="path3053"/></g>
<path inkscape:connector-curvature="0" style="fill:#ffffff;stroke:#000000;stroke-width:23.38383865;stroke-miterlimit:4;stroke-opacity:1;stroke-dasharray:none" id="thickc" d="m 275.34713,746.94663 c -109.47908,0 -198.229068,-88.74993 -198.229068,-198.22899 0,-109.47812 88.749988,-198.22912 198.229068,-198.22912 109.47906,0 198.229,88.751 198.229,198.22912 0,109.48 -88.74994,198.22899 -198.229,198.22899 z" inkscape:export-filename="foo.png" inkscape:export-xdpi="566.22858" inkscape:export-ydpi="566.22858"/><path d="m 158.66443,449.58359 c 26.98589,-6.09061 151.38968,-19.7401 128.48421,80.00128 -9.90734,44.04944 -55.84324,55.9703 -76.95581,67.04991 -81.51986,42.78061 4.65961,114.56007 4.65961,114.56007 0,0 -48.25482,-86.00815 27.58801,-98.01599 30.88118,-9.42633 168.79627,1.12301 179.42955,-83.17383 C 443.74742,374.7973 176.29972,398.82444 158.66443,449.58359 z" id="path8" sodipodi:nodetypes="ccscccc" inkscape:export-filename="foo.png" inkscape:export-xdpi="566.22858" inkscape:export-ydpi="566.22858" inkscape:connector-curvature="0"/><path style="" d="m 194.42474,401.01447 21.53073,0 0,222.07759 -21.53073,0 z" id="rect10"/>











<path style="fill:#000000;fill-opacity:1;stroke:#ffffff;stroke-width:0;stroke-miterlimit:4;stroke-opacity:1" d="m 524.23218,360.78659 809.61502,0 0,187.37434 -809.61502,0 z" id="rect3072"/><g style="font-size:54.48685837px;font-style:normal;font-variant:normal;font-weight:normal;font-stretch:normal;text-align:start;line-height:110.00000238%;writing-mode:lr-tb;text-anchor:start;fill:#ffffff;fill-opacity:1;stroke:none;font-family:UnDotum;-inkscape-font-specification:UnDotum" id="text2393-6"><path d="m 562.18289,486.9648 c 0,4.55839 0.22418,12.40477 0.67255,23.53914 l 1.45718,1.45718 c 10.98492,0.44837 20.17638,0.67255 27.57442,0.67255 l 3.92319,0 c 0.52305,-0.29891 1.34506,-0.74728 2.466,-1.3451 l 0,-29.47996 c 1.41978,-2.09233 2.69015,-3.13852 3.8111,-3.13855 l 44.83645,0 c 8.51883,3e-5 15.69265,-2.46597 21.52149,-7.39802 6.20226,-5.15614 9.30345,-11.91896 9.30356,-20.28849 -1.1e-4,-8.3694 -2.91448,-15.3564 -8.7431,-20.96104 -5.82884,-5.60446 -12.9653,-8.40674 -21.40941,-8.40683 l -79.02423,0 c -3.81111,9e-5 -5.71665,1.64409 -5.71665,4.93201 0,2.91445 0,4.37163 0,4.37155 0,0.52318 0.0374,1.34518 0.11209,2.46601 0,0.8968 0,1.53199 0,1.90555 0,4.63317 -0.14946,11.54545 -0.44836,20.73685 -0.22419,9.19152 -0.33628,16.1038 -0.33628,20.73686 l 0,10.20029 m 36.99007,-37.66262 c -4e-5,-0.37357 0.0373,-1.19557 0.11209,-2.466 l 2.80228,-1.45718 31.4976,0 c 1.2703,6e-5 2.31648,0.44843 3.13856,1.34509 0.82192,0.89679 1.23292,1.98034 1.233,3.25064 -8e-5,1.27043 -0.41108,2.35398 -1.233,3.25064 -0.82208,0.89679 -1.86826,1.34516 -3.13856,1.3451 l -33.62733,0 c -0.52313,-0.44831 -0.78468,-2.2044 -0.78464,-5.26829" style="font-size:112.09111786px;font-weight:bold;fill:#ffffff;font-family:ReservoirGrunge;-inkscape-font-specification:ReservoirGrunge Bold" id="path3058"/><path d="m 662.78381,512.63367 c 16.29056,0.59782 25.96775,0.89673 29.0316,0.89673 2.83961,0 4.85725,-0.5231 6.05292,-1.56928 1.41979,-3.96055 2.80224,-6.31446 4.14738,-7.06174 2.91432,10e-6 7.28587,-0.11208 13.11466,-0.33627 5.9034,-0.2989 10.31231,-0.44836 13.22675,-0.44837 6.94957,1e-5 10.87276,0.48574 11.76957,1.45719 0.29883,0.5231 1.15819,1.86819 2.57809,4.03528 1.12083,1.79346 2.2791,2.80228 3.47483,3.02646 1.49446,0 4.10991,0.0374 7.84637,0.11209 l 24.43587,0.67254 c 2.31643,0 3.4747,-0.74727 3.47482,-2.24182 L 760.191,459.39039 c -1.41992,-3.1385 -3.92329,-9.00459 -7.51011,-17.59831 -2.765,-6.87484 -5.38046,-12.70358 -7.84638,-17.48621 -0.67263,-1.34501 -1.86827,-2.01755 -3.58691,-2.01764 l -14.01139,-0.1121 c -8.22008,-0.0746 -16.6269,0.18691 -25.2205,0.78464 -0.67259,0.67264 -1.34514,1.38255 -2.01764,2.12973 l -37.21426,81.26606 c -0.89673,1.94292 -1.34509,3.43747 -1.34509,4.48365 l 0,0.33627 c 0.22418,0.29891 0.67255,0.78464 1.34509,1.45719 m 48.98382,-33.85152 c -5e-5,-1.79342 1.00877,-5.38033 3.02646,-10.76075 2.16704,-5.82868 3.88577,-8.74305 5.15619,-8.74311 0.89667,6e-5 2.57804,2.8397 5.04411,8.51893 2.46593,5.67932 3.69893,9.3036 3.699,10.87284 -7e-5,1.12094 -2.05507,1.71876 -6.16501,1.79346 3.51212,-0.0747 1.04612,-0.11206 -7.39801,-0.1121 -0.22424,4e-5 -0.59788,0.0374 -1.12091,0.1121 -0.52315,0.0748 -0.89679,0.11212 -1.12092,0.11209 -0.74732,3e-5 -1.12096,-0.59779 -1.12091,-1.79346" style="font-size:112.09111786px;font-weight:bold;fill:#ffffff;font-family:ReservoirGrunge;-inkscape-font-specification:ReservoirGrunge Bold" id="path3060"/><path d="m 791.6396,512.63367 17.14995,0 c 2.39125,0 7.43534,-0.22418 15.1323,-0.67255 l 1.00882,-0.78464 0,-29.36787 c 0.22414,-0.29888 0.56041,-0.78461 1.00882,-1.45719 0.29887,-0.29887 0.7846,-0.74724 1.45718,-1.34509 l 16.14112,0 c 1.34504,4e-5 2.76486,1.53195 4.25946,4.59574 0.89667,1.79348 1.56922,3.06385 2.01764,3.81109 1.71867,2.83967 4.33413,7.09913 7.84638,12.77839 3.28794,5.1562 6.27703,9.07939 8.96729,11.76957 l 37.77471,0 0,-3.58692 -17.48622,-28.02278 c -0.67264,-1.12087 -1.121,-2.05496 -1.34509,-2.80227 0.37354,-0.74724 1.04609,-1.41979 2.01764,-2.01764 7.17373,-4.40888 11.50791,-7.39797 13.00257,-8.96729 3.06371,-3.28796 4.59562,-8.25733 4.59574,-14.90812 -1.2e-4,-9.04195 -3.17603,-16.36523 -9.52775,-21.96986 -6.05302,-5.45501 -13.63785,-8.18256 -22.7545,-8.18265 l -47.19036,0 c -2.0924,9e-5 -5.94086,0.0748 -11.54538,0.22418 -5.52985,0.14955 -9.34094,0.22427 -11.43329,0.22418 -2.54075,9e-5 -6.35184,0.18691 -11.4333,0.56046 -1.12091,0.22427 -1.71873,0.59791 -1.79346,1.12091 0,1.19573 -0.0374,4.07273 -0.11209,8.63101 l -0.33627,20.40059 c -0.14946,9.04207 -0.22418,17.00053 -0.22418,23.87541 l 0,13.56302 c 0,0.22421 0.11209,3.40012 0.33627,9.52775 l 0.22418,6.16501 c 0.0747,2.09237 0.11209,3.47483 0.11209,4.14737 0.29891,1.79346 1.00882,2.69019 2.12973,2.69019 m 34.29989,-58.17529 c -0.44841,-1.7934 -0.67259,-3.32531 -0.67255,-4.59574 -4e-5,-3.43739 0.70987,-5.15612 2.12973,-5.15619 l 30.82506,0 c 4.70775,7e-5 7.06166,1.79352 7.06174,5.38037 -8e-5,3.3628 -1.90563,5.04416 -5.71665,5.0441 -3.13862,6e-5 -7.80908,0.14952 -14.01139,0.44837 -6.20242,0.22424 -10.87288,0.33633 -14.01139,0.33627 -2.31659,6e-5 -4.18477,-0.48567 -5.60455,-1.45718" style="font-size:112.09111786px;font-weight:bold;fill:#ffffff;font-family:ReservoirGrunge;-inkscape-font-specification:ReservoirGrunge Bold" id="path3062"/><path d="m 911.76117,424.41796 0,19.61594 c 0,1.56935 4.37155,2.35398 13.11466,2.35392 2.24181,6e-5 5.56717,-0.0373 9.97611,-0.1121 l 9.07938,-0.11209 c 1.41979,7e-5 2.1297,1.38253 2.12973,4.14737 l 0,60.19294 c -3e-5,1.41982 0.70988,2.12973 2.12973,2.12973 l 32.17015,0 0.67255,-1.3451 c 0.22411,-13.07728 0.48566,-25.93038 0.78464,-38.55934 l 0.67255,-25.2205 c 0.82192,-0.89666 1.53183,-1.49448 2.12973,-1.79346 l 31.4976,0 0,-21.29731 -1.4572,-1.45719 c -12.1806,-0.44827 -20.43801,-0.67245 -24.77212,-0.67254 l -62.88312,0 c -1.19565,9e-5 -5.82875,0.22427 -13.8993,0.67254 l -1.34509,1.45719" style="font-size:112.09111786px;font-weight:bold;fill:#ffffff;font-family:ReservoirGrunge;-inkscape-font-specification:ReservoirGrunge Bold" id="path3064"/><path d="m 1025.4128,511.96112 c 6.1276,0.52309 13.0773,0.78464 20.8489,0.78464 l 7.1739,0 c -0.5979,0 0.2241,-0.0374 2.466,-0.11209 -10e-5,0 0.8219,0 2.466,0 l 1.4572,-1.3451 c 0.4483,-19.72801 0.6725,-34.07566 0.6725,-43.04299 l 0,-43.15508 c -0.3737,-0.97136 -0.8594,-1.64391 -1.4572,-2.01764 l -32.8427,-0.78463 c -0.5978,0.44845 -1.0835,1.15836 -1.4572,2.12973 0,4.48373 -0.1121,11.24655 -0.3362,20.28849 -0.2242,8.96735 -0.3363,15.69281 -0.3363,20.1764 l 0,44.94854 c 0.2242,0.52309 0.6725,1.233 1.3451,2.12973" style="font-size:112.09111786px;font-weight:bold;fill:#ffffff;font-family:ReservoirGrunge;-inkscape-font-specification:ReservoirGrunge Bold" id="path3066"/><path d="m 1068.5065,424.41796 0,19.61594 c 0,1.56935 4.3716,2.35398 13.1147,2.35392 2.2418,6e-5 5.5672,-0.0373 9.9761,-0.1121 l 9.0794,-0.11209 c 1.4198,7e-5 2.1297,1.38253 2.1297,4.14737 l 0,60.19294 c 0,1.41982 0.7099,2.12973 2.1297,2.12973 l 32.1702,0 0.6725,-1.3451 c 0.2242,-13.07728 0.4857,-25.93038 0.7847,-38.55934 l 0.6725,-25.2205 c 0.822,-0.89666 1.5319,-1.49448 2.1298,-1.79346 l 31.4976,0 0,-21.29731 -1.4572,-1.45719 c -12.1807,-0.44827 -20.4381,-0.67245 -24.7722,-0.67254 l -62.8831,0 c -1.1956,9e-5 -5.8287,0.22427 -13.8993,0.67254 l -1.3451,1.45719" style="font-size:112.09111786px;font-weight:bold;fill:#ffffff;font-family:ReservoirGrunge;-inkscape-font-specification:ReservoirGrunge Bold" id="path3068"/><path d="m 1173.919,470.37531 c 0,6.80024 1.8682,13.63779 5.6046,20.51268 5.754,10.6113 15.0575,17.56095 27.9107,20.84895 7.5474,1.94291 19.5785,2.91437 36.0933,2.91437 24.0621,0 40.3527,-8.40683 48.8717,-25.22051 3.6615,-7.24852 5.4924,-14.90807 5.4925,-22.97867 -1e-4,-31.38544 -21.6711,-47.07818 -65.0129,-47.07827 -18.0093,9e-5 -32.0581,3.88591 -42.1462,11.65747 -11.2091,8.74318 -16.8137,21.85783 -16.8137,39.34398 m 39.2319,-0.56045 c 0,-7.39796 1.7934,-13.5256 5.3804,-18.38294 4.0352,-5.52976 9.6024,-8.29468 16.7015,-8.29475 1.2704,7e-5 1.9055,7e-5 1.9056,0 1.7187,0.0748 2.3538,0.11217 1.9055,0.11209 0.8967,0.59789 2.1671,1.12099 3.8111,1.56928 2.466,0.67262 3.8484,1.04625 4.1474,1.12091 3.8858,1.49462 6.8749,4.52107 8.9673,9.07938 1.7934,3.81115 2.6901,8.07061 2.6902,12.77839 -1e-4,5.82878 -1.9804,11.05969 -5.9408,15.69276 -4.1101,4.93203 -9.0048,7.39803 -14.684,7.39801 -6.875,2e-5 -12.629,-1.75607 -17.262,-5.26828 -5.0815,-3.81107 -7.6222,-9.07935 -7.6222,-15.80485" style="font-size:112.09111786px;font-weight:bold;fill:#ffffff;font-family:ReservoirGrunge;-inkscape-font-specification:ReservoirGrunge Bold" id="path3070"/></g>
</svg>