<?xml version="1.0" encoding="UTF-8" standalone="no"?>
<!-- Created with Inkscape (http://www.inkscape.org/) -->

<svg
   xmlns:dc="http://purl.org/dc/elements/1.1/"
   xmlns:cc="http://creativecommons.org/ns#"
   xmlns:rdf="http://www.w3.org/1999/02/22-rdf-syntax-ns#"
   xmlns:svg="http://www.w3.org/2000/svg"
   xmlns="http://www.w3.org/2000/svg"
   xmlns:sodipodi="http://sodipodi.sourceforge.net/DTD/sodipodi-0.dtd"
   xmlns:inkscape="http://www.inkscape.org/namespaces/inkscape"
   version="1.1"
   width="297mm"
   height="210mm"
   id="svg4239"
   inkscape:version="0.48.1 r9760"
   sodipodi:docname="bandiera-bebas-definitivo.svg"
   inkscape:export-filename="/home/mrk25/Desktop/mrkProcedures/pirati/bitmaps/bandiera-bebas-definitivo.png"
   inkscape:export-xdpi="90"
   inkscape:export-ydpi="90">
  <sodipodi:namedview
     pagecolor="#ffffff"
     bordercolor="#666666"
     borderopacity="1"
     objecttolerance="10"
     gridtolerance="10"
     guidetolerance="10"
     inkscape:pageopacity="1"
     inkscape:pageshadow="2"
     inkscape:window-width="1440"
     inkscape:window-height="832"
     id="namedview30"
     showgrid="false"
     inkscape:zoom="0.36285715"
     inkscape:cx="631.56986"
     inkscape:cy="466.41269"
     inkscape:window-x="0"
     inkscape:window-y="24"
     inkscape:window-maximized="1"
     inkscape:current-layer="svg4239" />
  <defs
     id="defs4241" />
  <metadata
     id="metadata4245">
    <rdf:RDF>
      <cc:Work
         rdf:about="">
        <dc:format>image/svg+xml</dc:format>
        <dc:type
           rdf:resource="http://purl.org/dc/dcmitype/StillImage" />
        <dc:title></dc:title>
      </cc:Work>
    </rdf:RDF>
  </metadata>
  <g
     id="g3858"
     transform="matrix(1.2556321,-0.16530709,0.16530709,1.2556321,-228.08829,-14.288313)">
    <g
       transform="translate(0,-28.712963)"
       id="g3836">
      <rect
         transform="scale(1,-1)"
         width="571.35486"
         height="50"
         x="353.60574"
         y="-469.46332"
         id="rect3822"
         style="fill:#ff6600;fill-opacity:1;stroke:none" />
      <rect
         style="fill:#000000;fill-opacity:1;stroke:none"
         id="rect11832"
         y="308.69385"
         x="369.19507"
         height="110.75058"
         width="555.76508" />
      <text
         sodipodi:linespacing="125%"
         style="font-size:95.71328735px;font-style:normal;font-variant:normal;font-weight:normal;font-stretch:normal;text-align:start;line-height:125%;letter-spacing:0px;word-spacing:0px;writing-mode:lr-tb;text-anchor:start;fill:#ffffff;fill-opacity:1;stroke:none;font-family:Bebas Neue;-inkscape-font-specification:Bebas Neue"
         xml:space="preserve"
         id="text11834"
         y="397.56873"
         x="456.18552"><tspan
           id="tspan11836"
           y="397.56873"
           x="456.18552"><tspan
   style="fill:#ff6600;fill-opacity:1"
   id="tspan11838">PARTITO</tspan> PIRATA</tspan></text>
      <text
         x="458.69162"
         y="456.03033"
         id="text3852"
         xml:space="preserve"
         style="font-size:33.04864502px;font-style:normal;font-variant:normal;font-weight:normal;font-stretch:normal;text-align:start;line-height:125%;letter-spacing:0px;word-spacing:0px;writing-mode:lr-tb;text-anchor:start;fill:#ffffff;fill-opacity:1;stroke:none;font-family:Bebas Neue;-inkscape-font-specification:Bebas Neue"
         sodipodi:linespacing="125%"><tspan
           style="fill:#ffffff"
           x="458.69162"
           y="456.03033"
           id="tspan3854">Democrazia ~ trasparenza ~ diritti civili</tspan></text>
    </g>
    <g
       id="g3843">
      <path
         inkscape:connector-curvature="0"
         style="fill:#ffffff;fill-opacity:1;stroke:#000000;stroke-width:4;stroke-miterlimit:4;stroke-dasharray:none"
         id="path11840"
         d="m 442.45786,360.36562 a 134.14323,134.14323 0 1 1 -268.28643,0 134.14323,134.14323 0 1 1 268.28643,0 z" />
      <g
         id="g11842"
         transform="matrix(2.640167,0,0,2.640167,-11332.622,-4878.2755)">
        <path
           inkscape:connector-curvature="0"
           style="fill:#ffffff;fill-opacity:1;stroke:#000000;stroke-width:4.21121407;stroke-miterlimit:4;stroke-opacity:1;stroke-dasharray:none"
           id="path11844"
           transform="matrix(0.9498449,0,0,0.9498449,244.31619,74.664987)"
           d="m 4384.769,1962.9975 a 47.376156,47.376156 0 0 1 0,94.7523" />
        <path
           inkscape:connector-curvature="0"
           id="path11846"
           d="m 4389.2703,1950.0212 0,5.1606 c -4.2788,1.5354 -7.3122,3.6085 -8.1036,5.886 1.5614,-0.3523 4.5884,-0.818 8.1036,-0.9385 l 0,36.6374 c -11.9623,9.767 4.6489,23.6284 4.6489,23.6284 0,0 -10.9347,-19.4969 6.27,-22.2209 7.005,-2.1384 38.2766,0.2291 40.6888,-18.8946 3.6395,-25.8182 -27.9827,-29.7297 -46.7026,-25.4625 l 0,-3.7956 -4.9051,0 z m 4.9051,10.1936 c 9.3929,0.6803 19.4471,4.6865 16.1646,18.9797 -2.0657,9.1842 -11.0088,12.2054 -16.1646,14.5866 l 0,-33.566 z" />
        <path
           inkscape:connector-curvature="0"
           style="fill:none;stroke:#000000;stroke-width:4.21121407;stroke-miterlimit:4;stroke-opacity:1;stroke-dasharray:none"
           id="path11848"
           transform="matrix(0.9498449,0,0,0.9498449,244.31619,74.664987)"
           d="m 4342.9384,1988.1319 a 47.376156,47.376156 0 0 1 40.1772,-25.1055" />
        <path
           inkscape:connector-curvature="0"
           style="fill:none;stroke:#000000;stroke-width:4.21121407;stroke-miterlimit:4;stroke-opacity:1;stroke-dasharray:none"
           id="path11850"
           transform="matrix(0.9498449,0,0,0.9498449,244.31619,74.664987)"
           d="m 4344.5918,2035.4792 a 47.376156,47.376156 0 0 1 -2.4042,-45.8739" />
        <path
           inkscape:connector-curvature="0"
           style="fill:none;stroke:#000000;stroke-width:4.21121407;stroke-miterlimit:4;stroke-opacity:1;stroke-dasharray:none"
           id="path11852"
           transform="matrix(0.9498449,0,0,0.9498449,244.31619,74.664987)"
           d="m 4383.1156,2057.721 a 47.376156,47.376156 0 0 1 -37.6232,-20.8549" />
      </g>
    </g>
  </g>
</svg>
