<?xml version="1.0" encoding="UTF-8" standalone="no"?>
<!-- Created with Inkscape (http://www.inkscape.org/) -->

<svg
   xmlns:dc="http://purl.org/dc/elements/1.1/"
   xmlns:cc="http://creativecommons.org/ns#"
   xmlns:rdf="http://www.w3.org/1999/02/22-rdf-syntax-ns#"
   xmlns:svg="http://www.w3.org/2000/svg"
   xmlns="http://www.w3.org/2000/svg"
   xmlns:xlink="http://www.w3.org/1999/xlink"
   xmlns:sodipodi="http://sodipodi.sourceforge.net/DTD/sodipodi-0.dtd"
   xmlns:inkscape="http://www.inkscape.org/namespaces/inkscape"
   width="297mm"
   height="210mm"
   id="svg3719"
   version="1.1"
   inkscape:version="0.48.1 r9760"
   sodipodi:docname="elettorale-bebas-mrk25-definitivo-solo_vettori.svg"
   inkscape:export-filename="/home/mrk25/Desktop/mrkProcedures/pirati/MRK25/elettorale-bebas-mrk25-definitivo.png"
   inkscape:export-xdpi="90"
   inkscape:export-ydpi="90">
  <defs
     id="defs3721">
    <path
       style="fill:none;stroke:#ff6600;stroke-width:0;stroke-linecap:butt;stroke-linejoin:miter;stroke-miterlimit:4;stroke-opacity:1;stroke-dasharray:none;stroke-dashoffset:0;marker:none;visibility:visible;display:inline;overflow:visible;enable-background:accumulate"
       d="M 187.94982,-37.784197 C 335.90001,-62.623571 476.135,37.292433 500.97437,185.24263 525.81375,333.19281 425.89775,473.42782 277.94753,498.26717 129.99737,523.10655 -10.23763,423.19054 -35.077008,275.24033 -59.91638,127.29018 39.999635,-12.944819 187.94982,-37.784197 z"
       id="path2403"
       inkscape:connector-curvature="0" />
    <filter
       id="filter4304"
       inkscape:label="Drop shadow"
       width="1.5"
       height="1.5"
       x="-0.25"
       y="-0.25"
       color-interpolation-filters="sRGB">
      <feGaussianBlur
         id="feGaussianBlur4306"
         in="SourceAlpha"
         stdDeviation="3"
         result="blur" />
      <feColorMatrix
         id="feColorMatrix4308"
         result="bluralpha"
         type="matrix"
         values="1 0 0 0 0 0 1 0 0 0 0 0 1 0 0 0 0 0 0.5 0 " />
      <feOffset
         id="feOffset4310"
         in="bluralpha"
         dx="0"
         dy="0"
         result="offsetBlur" />
      <feMerge
         id="feMerge4312">
        <feMergeNode
           id="feMergeNode4314"
           in="offsetBlur" />
        <feMergeNode
           id="feMergeNode4316"
           in="SourceGraphic" />
      </feMerge>
    </filter>
    <linearGradient
       id="linearGradient4106">
      <stop
         style="stop-color:#c85100;stop-opacity:1;"
         offset="0"
         id="stop4108" />
      <stop
         id="stop4120"
         offset="0.38924015"
         style="stop-color:#ff6701;stop-opacity:1;" />
      <stop
         id="stop4118"
         offset="0.74520618"
         style="stop-color:#d85600;stop-opacity:1;" />
      <stop
         id="stop4114"
         offset="0.78928047"
         style="stop-color:#ff6701;stop-opacity:1;" />
      <stop
         style="stop-color:#ff6701;stop-opacity:1;"
         offset="0.94573969"
         id="stop4116" />
      <stop
         style="stop-color:#ff6701;stop-opacity:1;"
         offset="1"
         id="stop4110" />
    </linearGradient>
    <radialGradient
       inkscape:collect="always"
       xlink:href="#linearGradient4106"
       id="radialGradient3838"
       gradientUnits="userSpaceOnUse"
       gradientTransform="matrix(0.75764014,0,0,0.75764014,259.46781,178.84026)"
       cx="232.94867"
       cy="230.24147"
       fx="232.94867"
       fy="230.24147"
       r="343.004" />
  </defs>
  <sodipodi:namedview
     inkscape:document-units="mm"
     pagecolor="#eeeeee"
     bordercolor="#666666"
     borderopacity="1.0"
     inkscape:pageopacity="1"
     inkscape:pageshadow="2"
     inkscape:zoom="0.43415836"
     inkscape:cx="673.01149"
     inkscape:cy="221.84264"
     inkscape:current-layer="layer1"
     id="namedview3723"
     showgrid="false"
     inkscape:window-width="1277"
     inkscape:window-height="693"
     inkscape:window-x="5"
     inkscape:window-y="51"
     inkscape:window-maximized="0"
     showguides="true"
     inkscape:guide-bbox="true"
     units="mm" />
  <metadata
     id="metadata3725">
    <rdf:RDF>
      <cc:Work
         rdf:about="">
        <dc:format>image/svg+xml</dc:format>
        <dc:type
           rdf:resource="http://purl.org/dc/dcmitype/StillImage" />
        <dc:title></dc:title>
      </cc:Work>
    </rdf:RDF>
  </metadata>
  <g
     inkscape:label="Layer 1"
     inkscape:groupmode="layer"
     id="layer1">
    <g
       id="g3820"
       transform="translate(90.856065,37.941408)">
      <path
         style="fill:#ff6600;fill-opacity:1;fill-rule:evenodd;stroke:none;stroke-width:2.63977575;marker:none;visibility:visible;display:inline;overflow:visible;enable-background:accumulate"
         d="M 487.91646,98.698708 C 628.4456,127.3792 719.22127,264.70872 690.5408,405.23788 661.86033,545.76694 524.53079,636.54269 384.00165,607.86214 243.47251,579.18168 152.69684,441.85213 181.37733,301.32303 210.05782,160.79391 347.38732,70.018217 487.91646,98.698708 z"
         id="path4198"
         inkscape:connector-curvature="0" />
      <path
         inkscape:connector-curvature="0"
         id="path4200"
         d="M 487.91646,98.698708 C 628.4456,127.3792 719.22127,264.70872 690.5408,405.23788 661.86033,545.76694 524.53079,636.54269 384.00165,607.86214 243.47251,579.18168 152.69684,441.85213 181.37733,301.32303 210.05782,160.79391 347.38732,70.018217 487.91646,98.698708 z"
         style="fill:url(#radialGradient3838);fill-opacity:1;fill-rule:evenodd;stroke:#663300;stroke-width:2;stroke-opacity:1;marker:none;visibility:visible;display:inline;overflow:visible;enable-background:accumulate" />
      <path
         inkscape:connector-curvature="0"
         id="path4202"
         d="M 390.49917,152.45233 C 501.35624,127.35844 611.69334,196.96337 636.78722,307.82051 661.88109,418.67766 592.27616,529.01468 481.41902,554.10856 370.56194,579.20251 260.22484,509.5975 235.13095,398.74036 210.03706,287.88328 279.64202,177.54623 390.49917,152.45233 z"
         style="fill:none;stroke:#ff6600;stroke-width:0;stroke-linecap:butt;stroke-linejoin:miter;stroke-miterlimit:4;stroke-opacity:1;stroke-dasharray:none;stroke-dashoffset:0;marker:none;visibility:visible;display:inline;overflow:visible;enable-background:accumulate" />
      <g
         transform="matrix(-0.01793718,-0.75742778,0.75742778,-0.01793718,265.22284,533.03563)"
         style="font-size:68.63417053px;font-style:normal;font-variant:normal;font-weight:normal;font-stretch:normal;text-align:start;line-height:110.00000238%;writing-mode:lr-tb;text-anchor:start;fill:#000000;fill-opacity:1;stroke:none;display:inline;filter:url(#filter4304);font-family:Bebas Neue;-inkscape-font-specification:Bebas Neue"
         id="text4204">
        <path
           d="m 190.62975,-38.454731 11.86281,-1.376004 c 7.49946,-0.869886 10.69864,-5.455731 9.81294,-13.091554 l -2.79946,-24.13468 c -0.8857,-7.635824 -5.04966,-11.367596 -12.54913,-10.497709 l -11.86281,1.376003 5.53565,47.723944 m 6.98161,-42.266425 c 2.3862,-0.276782 3.96026,0.784339 4.35567,4.193189 l 2.87853,24.81645 c 0.3954,3.40885 -0.89397,4.80211 -3.28017,5.078892 l -4.22697,0.4903 -3.95404,-34.088531 4.22698,-0.4903"
           style="line-height:110.00000238%;fill:#000000;font-family:Bebas Neue;-inkscape-font-specification:Bebas Neue"
           id="path3896" />
        <path
           d="m 225.31433,-82.661824 13.03841,-0.233542 -0.12292,-6.862316 -20.58695,0.36875 0.86042,48.036215 20.58695,-0.368751 -0.12292,-6.862317 -13.0384,0.233543 -0.25198,-14.067749 10.3621,-0.185604 -0.12292,-6.862317 -10.3621,0.185605 -0.23969,-13.381517"
           style="line-height:110.00000238%;fill:#000000;font-family:Bebas Neue;-inkscape-font-specification:Bebas Neue"
           id="path3898" />
        <path
           d="m 258.79339,-88.633407 -10.45122,-1.021613 -4.67405,47.816016 6.55763,0.641013 3.30522,-33.812755 2.29608,34.360286 7.1041,0.69443 8.54341,-33.783446 -3.35196,34.290915 7.1041,0.69443 4.67404,-47.816017 -10.45121,-1.021614 -8.44172,33.448581 -2.21442,-34.490226"
           style="line-height:110.00000238%;fill:#000000;font-family:Bebas Neue;-inkscape-font-specification:Bebas Neue"
           id="path3900" />
        <path
           d="m 295.35744,-72.235877 c 0.73794,-3.351425 2.49299,-4.30028 4.83898,-3.783726 2.346,0.516554 3.54022,2.114792 2.80228,5.466218 l -5.57879,25.336802 c -0.73793,3.351425 -2.49298,4.30028 -4.83897,3.783726 -2.346,-0.516554 -3.54022,-2.114792 -2.80228,-5.466218 l 5.57878,-25.336802 m -12.84862,23.244146 c -1.65297,7.507193 1.35717,12.667794 8.59625,14.261732 7.23907,1.593938 12.13833,-1.825134 13.7913,-9.332327 l 5.37216,-24.398403 c 1.65298,-7.507193 -1.35716,-12.667794 -8.59624,-14.261732 -7.23908,-1.593937 -12.13833,1.825134 -13.7913,9.332327 l -5.37217,24.398403"
           style="line-height:110.00000238%;fill:#000000;font-family:Bebas Neue;-inkscape-font-specification:Bebas Neue"
           id="path3902" />
        <path
           d="m 326.74695,-43.89933 -2.13349,6.523398 c -1.06674,3.261696 -2.88592,3.966543 -5.1691,3.219824 -2.28319,-0.74672 -3.33431,-2.390303 -2.26757,-5.651999 l 8.06458,-24.658446 c 1.06674,-3.261696 2.90726,-4.031777 5.19044,-3.285057 2.28319,0.74672 3.31298,2.455537 2.24624,5.717232 l -1.60012,4.892549 6.78433,2.218827 1.45078,-4.435911 c 2.3895,-7.306199 0.10182,-12.675936 -6.94344,-14.9801 -7.04526,-2.304164 -12.06381,0.676064 -14.45331,7.982262 l -7.76589,23.745171 c -2.38951,7.306199 -0.10183,12.675936 6.94343,14.9801 7.04527,2.304163 12.06381,-0.676064 14.45331,-7.982263 l 1.98415,-6.06676 -6.78434,-2.218827"
           style="line-height:110.00000238%;fill:#000000;font-family:Bebas Neue;-inkscape-font-specification:Bebas Neue"
           id="path3904" />
        <path
           d="m 353.78594,-13.489895 c 0.03,-1.937389 0.66022,-3.534808 1.60266,-5.669592 l 2.99364,-6.781084 c 2.02348,-4.583507 2.3624,-8.410209 -0.45339,-11.378867 3.71413,-0.08589 6.46105,-2.39939 8.45681,-6.920108 l 1.52454,-3.453331 c 2.99364,-6.781078 1.38614,-11.467069 -5.77167,-14.627024 l -10.42278,-4.601341 -19.40324,43.951475 6.90666,3.049082 7.89989,-17.894529 2.38594,1.053319 c 3.13939,1.385945 3.85547,3.502674 2.05374,7.583879 l -3.04908,6.90666 c -1.57998,3.578902 -1.63374,4.380449 -1.75595,5.676942 l 7.03223,3.104519 m 5.39234,-42.63438 c 2.44872,1.081037 2.9063,2.933595 1.52035,6.072983 l -1.9126,4.332359 c -1.55226,3.516115 -3.6209,3.953325 -6.1952,2.81685 l -2.69988,-1.191913 5.95957,-13.499382 3.32776,1.469103"
           style="line-height:110.00000238%;fill:#000000;font-family:Bebas Neue;-inkscape-font-specification:Bebas Neue"
           id="path3906" />
        <path
           d="m 395.79227,-45.033309 -9.6036,-5.465856 -30.44537,37.952451 6.02462,3.4288917 5.44492,-6.9304727 8.05271,4.583172 -3.17823,8.2205506 6.62112,3.76838577 17.08383,-45.55712237 m -9.33961,4.476912 -8.85666,22.915312 -6.32286,-3.598639 15.17952,-19.316673"
           style="line-height:110.00000238%;fill:#000000;font-family:Bebas Neue;-inkscape-font-specification:Bebas Neue"
           id="path3908" />
        <path
           d="m 408.86166,-37.007702 -3.95817,5.607085 11.1581,7.876755 -31.58882,19.8749911 -3.879,5.4949427 18.05481,12.7453032 3.95817,-5.6070845 -11.71881,-8.27257248 31.58881,-19.87499102 3.87901,-5.494942 -17.4941,-12.349487"
           style="line-height:110.00000238%;fill:#000000;font-family:Bebas Neue;-inkscape-font-specification:Bebas Neue"
           id="path3910" />
        <path
           d="m 402.00436,17.459877 5.84795,4.774974 30.3862,-37.214209 -5.84795,-4.774974 -30.3862,37.214209"
           style="line-height:110.00000238%;fill:#000000;font-family:Bebas Neue;-inkscape-font-specification:Bebas Neue"
           id="path3912" />
        <path
           d="m 457.35824,2.3274025 -8.01304,-7.6089435 -38.65664,29.546102 5.02681,4.773313 6.94772,-5.422891 6.71901,6.38017 -5.05645,7.21879 5.52451,5.245918 27.50808,-40.1324585 M 447.21768,4.4345276 433.12529,24.558057 427.84963,19.548442 447.21768,4.4345276"
           style="line-height:110.00000238%;fill:#000000;font-family:Bebas Neue;-inkscape-font-specification:Bebas Neue"
           id="path3914" />
        <path
           d="m 462.41374,50.779952 c 3.5976,-0.08258 4.90001,0.06953 5.83272,1.343103 1.7032,2.325652 0.23144,7.401882 2.42128,10.392006 1.54099,2.104161 3.70983,3.323174 9.58781,3.101833 l 0.88139,-5.069221 c -3.63815,0.02721 -4.90001,-0.06953 -5.83271,-1.343103 -1.70321,-2.325652 -0.23145,-7.401882 -2.42129,-10.392006 -1.54099,-2.104161 -3.93132,-3.160964 -9.8093,-2.939622 l -0.6599,4.90701"
           style="line-height:110.00000238%;fill:#000000;font-family:Bebas Neue;-inkscape-font-specification:Bebas Neue"
           id="path3916" />
        <path
           d="m 508.52183,81.331808 3.4908,7.079027 -36.93405,18.212895 3.33904,6.77125 36.93405,-18.212903 3.4908,7.079023 6.15568,-3.03548 -10.32065,-20.929295 -6.15567,3.035483"
           style="line-height:110.00000238%;fill:#000000;font-family:Bebas Neue;-inkscape-font-specification:Bebas Neue"
           id="path3918" />
        <path
           d="m 491.49229,145.44324 c 1.40181,-1.33765 2.98233,-2.00909 5.16486,-2.83495 l 6.93277,-2.62332 c 4.68603,-1.77316 7.65101,-4.21599 7.79148,-8.30523 2.66663,2.58675 6.24234,2.92154 10.86418,1.17267 l 3.53058,-1.33595 c 6.93275,-2.62331 9.14474,-7.05611 6.37569,-14.37402 l -4.03213,-10.65591 -44.93459,17.00295 2.67189,7.06115 18.2948,-6.92263 0.92302,2.43931 c 1.21449,3.20961 0.20826,5.2048 -3.96424,6.78364 l -7.06115,2.6719 c -3.65895,1.38452 -4.26791,1.90848 -5.27764,2.73086 l 2.72048,7.18953 m 34.16746,-26.06438 c 0.94731,2.5035 -0.052,4.12915 -3.2616,5.34364 l -4.42927,1.67601 c -3.59476,1.36023 -5.35748,0.19264 -6.35336,-2.43924 l -1.04447,-2.76026 13.80134,-5.22234 1.28736,3.40219"
           style="line-height:110.00000238%;fill:#000000;font-family:Bebas Neue;-inkscape-font-specification:Bebas Neue"
           id="path3920" />
        <path
           d="m 543.43402,153.28298 -2.83532,-10.68015 -48.40785,4.89784 1.77868,6.69997 8.75932,-0.97617 2.37745,8.9554 -8.09011,3.49696 1.95479,7.36333 44.46304,-19.75718 m -9.74023,-3.5212 -22.5497,9.75003 -1.86673,-7.03165 24.41643,-2.71838"
           style="line-height:110.00000238%;fill:#000000;font-family:Bebas Neue;-inkscape-font-specification:Bebas Neue"
           id="path3922" />
        <path
           d="m 535.4202,169.62074 c -13.5468,2.21584 -12.99361,17.0778 -22.7473,18.67321 -3.3867,0.55396 -4.84966,-0.73677 -5.23743,-3.10745 -0.38777,-2.37069 0.5877,-4.06027 3.9744,-4.61423 l 3.3867,-0.55396 -1.15224,-7.04434 -2.91256,0.4764 c -7.58621,1.24087 -11.30076,5.74306 -10.1042,13.05833 1.19655,7.31527 6.15198,10.39931 13.73818,9.15844 13.54679,-2.21584 12.99361,-17.0778 22.7473,-18.67321 3.3867,-0.55396 4.89523,0.59022 5.283,2.96091 0.38778,2.37069 -0.67759,3.93587 -4.06429,4.48983 l -1.96429,0.3213 1.15224,7.04434 1.49015,-0.24374 c 7.58621,-1.24087 11.31183,-5.67532 10.12636,-12.92286 -1.18548,-7.24753 -6.12982,-10.26384 -13.71602,-9.02297"
           style="line-height:110.00000238%;fill:#000000;font-family:Bebas Neue;-inkscape-font-specification:Bebas Neue"
           id="path3924" />
        <path
           d="m 552.11824,209.50587 -0.77874,-11.09143 -47.92594,3.36493 0.52878,7.53121 18.00646,-1.26424 0.24996,3.56021 c 0.52878,7.53121 4.96477,10.93513 12.63291,10.39674 l 6.23037,-0.43744 c 7.66814,-0.53838 11.58497,-4.52876 11.0562,-12.05998 m -6.84656,0.48071 c 0.16824,2.39629 -0.83588,3.77405 -4.25915,4.01441 l -7.18889,0.50473 c -3.42328,0.24036 -4.61007,-0.98358 -4.77831,-3.37988 l -0.24997,-3.56021 16.22635,-1.13926 0.24997,3.56021"
           style="line-height:110.00000238%;fill:#000000;font-family:Bebas Neue;-inkscape-font-specification:Bebas Neue"
           id="path3926" />
        <path
           d="m 552.53782,244.72565 0.30094,-11.046 -47.81675,-8.99261 -0.18879,6.92948 8.67779,1.54095 -0.25234,9.26218 -8.74882,1.06618 -0.20748,7.61556 48.23545,-6.37574 m -8.34673,-6.13213 -24.38655,2.97457 0.19813,-7.27252 24.18842,4.29795"
           style="line-height:110.00000238%;fill:#000000;font-family:Bebas Neue;-inkscape-font-specification:Bebas Neue"
           id="path3928" />
        <path
           d="m 500.87445,277.8252 c 1.86734,-0.51712 3.57761,-0.3626 5.89145,-0.0599 l 7.34986,0.96151 c 4.96796,0.64991 8.7351,-0.10321 10.79001,-3.64143 1.129,3.53943 4.12279,5.52312 9.0227,6.16412 l 3.74298,0.48966 c 7.34986,0.96152 11.39299,-1.9013 12.40792,-9.65948 l 1.47788,-11.29701 -47.63801,-6.23204 -0.97932,7.48598 19.39548,2.53732 -0.33831,2.58607 c -0.44515,3.40271 -2.27432,4.68624 -6.69784,4.10755 l -7.48598,-0.97932 c -3.87909,-0.50747 -4.6633,-0.33318 -5.9417,-0.0851 l -0.99712,7.62208 m 42.4262,-6.83997 c -0.34721,2.65411 -1.99576,3.61517 -5.39847,3.17003 l -4.69575,-0.6143 c -3.81104,-0.49856 -4.81344,-2.36018 -4.44843,-5.1504 l 0.38283,-2.92633 14.63167,1.91412 -0.47185,3.60688"
           style="line-height:110.00000238%;fill:#000000;font-family:Bebas Neue;-inkscape-font-specification:Bebas Neue"
           id="path3930" />
        <path
           d="m 538.41911,298.55556 -2.94723,12.70308 6.68583,1.55118 4.65353,-20.05749 -46.80082,-10.85824 -4.65353,20.05749 6.68583,1.55118 2.94724,-12.70308 13.70595,3.17991 -2.34228,10.09561 6.68584,1.55118 2.34227,-10.09561 13.03737,3.02479"
           style="line-height:110.00000238%;fill:#000000;font-family:Bebas Neue;-inkscape-font-specification:Bebas Neue"
           id="path3932" />
        <path
           d="m 488.93392,321.68346 -2.50411,7.34028 45.47077,15.51217 2.1717,-6.36591 -27.2175,-9.28514 29.72161,1.94486 3.05811,-8.96424 -45.47076,-15.51216 -2.19387,6.43086 32.93383,11.23524 -35.96978,-2.33596"
           style="line-height:110.00000238%;fill:#000000;font-family:Bebas Neue;-inkscape-font-specification:Bebas Neue"
           id="path3934" />
        <path
           d="m 528.1858,353.6473 -6.24047,-2.8571 -5.68563,12.41854 -25.35583,-27.38522 -6.11566,-2.79995 -9.19986,20.09431 6.24047,2.8571 5.97134,-13.04258 25.35583,27.38522 6.11566,2.79995 8.91415,-19.47027"
           style="line-height:110.00000238%;fill:#000000;font-family:Bebas Neue;-inkscape-font-specification:Bebas Neue"
           id="path3936" />
        <path
           d="m 506.67244,395.67612 5.55583,-9.55183 -37.66478,-30.80054 -3.48533,5.99214 6.87902,5.50979 -4.65862,8.0093 -8.19033,-3.25532 -3.83042,6.58543 45.39463,17.51103 m -4.38898,-9.38124 -22.8311,-9.07154 3.65787,-6.28878 19.17323,15.36032"
           style="line-height:110.00000238%;fill:#000000;font-family:Bebas Neue;-inkscape-font-specification:Bebas Neue"
           id="path3938" />
        <path
           d="m 460.71237,411.75915 c 0.91371,3.48062 1.06743,4.78284 0.0446,5.98519 -1.86785,2.19561 -7.14694,1.93978 -9.54846,4.76271 -1.68996,1.9865 -2.37341,4.37872 -0.79647,10.04555 l 5.13551,-0.31685 c -0.86924,-3.5329 -1.06743,-4.78284 -0.0446,-5.98519 1.86785,-2.19561 7.14693,-1.93978 9.54846,-4.76271 1.68996,-1.9865 2.1643,-4.55661 0.58736,-10.22344 l -4.9264,0.49474"
           style="line-height:110.00000238%;fill:#000000;font-family:Bebas Neue;-inkscape-font-specification:Bebas Neue"
           id="path3940" />
        <path
           d="m 413.76929,433.45173 -9.23405,7.57311 c -5.83761,4.78759 -6.04841,10.3751 -1.17377,16.31885 l 15.40737,18.78651 c 4.87464,5.94375 10.39533,6.8307 16.23294,2.0431 l 9.23404,-7.57311 -30.46653,-37.14846 m 16.98626,39.3276 c -1.85742,1.52333 -3.7553,1.48208 -5.93148,-1.17138 l -15.8426,-19.3172 c -2.17618,-2.65346 -1.84515,-4.52271 0.0123,-6.04603 l 3.2903,-2.69847 21.76181,26.53462 -3.2903,2.69846"
           style="line-height:110.00000238%;fill:#000000;font-family:Bebas Neue;-inkscape-font-specification:Bebas Neue"
           id="path3942" />
        <path
           d="m 391.80182,450.83322 -6.18271,4.33277 27.57222,39.34452 6.18271,-4.33278 -27.57222,-39.34451"
           style="line-height:110.00000238%;fill:#000000;font-family:Bebas Neue;-inkscape-font-specification:Bebas Neue"
           id="path3944" />
        <path
           d="m 361.00258,470.34792 c 1.56054,1.14853 2.49596,2.58862 3.68789,4.59481 l 3.78613,6.37261 c 2.55915,4.30741 5.47926,6.8037 9.53088,6.23271 -2.08497,3.07491 -1.79443,6.65449 0.72965,10.90289 l 1.92812,3.24532 c 3.78613,6.37261 8.53543,7.78213 15.26207,3.78566 l 9.79495,-5.81942 -24.53974,-41.30399 -6.49063,3.85624 9.99118,16.81663 -2.24222,1.33215 c -2.95028,1.75284 -5.08977,1.10795 -7.36846,-2.72742 l -3.85624,-6.49062 c -1.99824,-3.36332 -2.61989,-3.87216 -3.60494,-4.72392 l -6.60864,3.92635 m 31.59608,29.12826 c -2.30122,1.36721 -4.07557,0.66505 -5.8284,-2.28523 l -2.41892,-4.07139 c -1.96318,-3.30432 -1.11906,-5.24285 1.30017,-6.68017 l 2.53725,-1.50744 7.5372,12.68622 -3.1273,1.85801"
           style="line-height:110.00000238%;fill:#000000;font-family:Bebas Neue;-inkscape-font-specification:Bebas Neue"
           id="path3946" />
        <path
           d="m 357.20341,472.0451 -6.76235,3.35701 21.36279,43.03312 6.76235,-3.35701 -21.36279,-43.03312"
           style="line-height:110.00000238%;fill:#000000;font-family:Bebas Neue;-inkscape-font-specification:Bebas Neue"
           id="path3948" />
        <path
           d="m 363.29414,515.06394 -7.29591,3.01132 -15.71126,-38.0656 -6.97869,2.88039 15.71126,38.06561 -7.29591,3.01132 2.61854,6.34427 21.57051,-8.90305 -2.61854,-6.34426"
           style="line-height:110.00000238%;fill:#000000;font-family:Bebas Neue;-inkscape-font-specification:Bebas Neue"
           id="path3950" />
        <path
           d="m 337.21772,525.58971 -7.53743,2.3421 -12.21967,-39.32573 -7.20971,2.24027 12.21966,39.32573 -7.53743,2.34211 2.03661,6.55429 22.28459,-6.92448 -2.03662,-6.55429"
           style="line-height:110.00000238%;fill:#000000;font-family:Bebas Neue;-inkscape-font-specification:Bebas Neue"
           id="path3952" />
        <path
           d="m 299.4936,493.78551 -7.34639,1.74053 11.07613,46.74974 7.34639,-1.74054 -11.07613,-46.74973"
           style="line-height:110.00000238%;fill:#000000;font-family:Bebas Neue;-inkscape-font-specification:Bebas Neue"
           id="path3954" />
        <path
           d="m 263.95598,518.3057 -0.83803,-6.81206 c -0.41901,-3.40603 0.9288,-4.81657 3.31302,-5.10988 2.38422,-0.29331 4.03372,0.7485 4.45274,4.15453 l 3.16773,25.7496 c 0.41901,3.40603 -0.92042,4.88469 -3.30464,5.178 -2.38422,0.2933 -4.0421,-0.81662 -4.46111,-4.22265 l -0.62852,-5.10905 -7.08455,0.87155 0.56986,4.6322 c 0.93859,7.6295 5.28969,11.51994 12.64671,10.61487 7.35702,-0.90507 10.63545,-5.73409 9.69686,-13.36359 l -3.05041,-24.79591 c -0.93859,-7.62951 -5.28969,-11.51994 -12.64671,-10.61487 -7.35702,0.90506 -10.63545,5.73408 -9.69686,13.36359 l 0.77936,6.33522 7.08455,-0.87155"
           style="line-height:110.00000238%;fill:#000000;font-family:Bebas Neue;-inkscape-font-specification:Bebas Neue"
           id="path3956" />
        <path
           d="m 250.02441,501.52665 -7.54028,0.3782 2.40668,47.9836 7.54028,-0.37819 -2.40668,-47.98361"
           style="line-height:110.00000238%;fill:#000000;font-family:Bebas Neue;-inkscape-font-specification:Bebas Neue"
           id="path3958" />
        <path
           d="m 230.20988,550.13663 7.61604,0.18919 -6.21714,-48.21318 -11.25253,-0.27952 -8.60327,47.84503 6.92992,0.17215 6.73668,-39.03486 4.7903,39.32119"
           style="line-height:110.00000238%;fill:#000000;font-family:Bebas Neue;-inkscape-font-specification:Bebas Neue"
           id="path3960" />
        <path
           d="m 209.44359,501.08116 -7.51199,-0.75428 -4.79992,47.80355 7.51198,0.75427 4.79993,-47.80354"
           style="line-height:110.00000238%;fill:#000000;font-family:Bebas Neue;-inkscape-font-specification:Bebas Neue"
           id="path3962" />
        <path
           d="m 196.50043,499.77009 -19.69318,-3.32882 -1.14393,6.76742 12.24903,2.0705 -6.86355,40.6045 7.44416,1.25832 8.00747,-47.37192"
           style="line-height:110.00000238%;fill:#000000;font-family:Bebas Neue;-inkscape-font-specification:Bebas Neue"
           id="path3964" />
        <path
           d="m 173.56673,495.52973 -7.34267,-1.75617 -11.17562,46.72605 7.34267,1.75617 11.17562,-46.72605"
           style="line-height:110.00000238%;fill:#000000;font-family:Bebas Neue;-inkscape-font-specification:Bebas Neue"
           id="path3966" />
      </g>
      <path
         inkscape:connector-curvature="0"
         d="m 449.46124,542.60726 c -104.73433,8.17159 -196.25039,-69.95544 -204.40735,-174.5023 -8.15686,-104.54569 70.13418,-195.92232 174.86848,-204.09392 104.73432,-8.17159 196.25046,69.95637 204.40733,174.50207 8.15702,104.54768 -70.13417,195.92254 -174.86846,204.09415 l 0,0 0,0 z"
         id="path4210"
         style="fill:#ffffff;stroke:#ffffff;stroke-width:2.29707432;stroke-miterlimit:4;stroke-opacity:1;stroke-dasharray:none;display:inline"
         inkscape:export-filename="/i/perso2/ToDO/pirates/rect3169.png"
         inkscape:export-xdpi="37.5"
         inkscape:export-ydpi="37.5" />
      <path
         inkscape:connector-curvature="0"
         style="fill:#ffffff;stroke:#000000;stroke-width:20.06567955;stroke-miterlimit:4;stroke-opacity:1;stroke-dasharray:none"
         id="path4212"
         d="m 447.86282,520.38925 c -91.88216,7.16891 -172.17864,-61.50454 -179.34748,-153.38667 -7.16878,-91.88145 61.5047,-172.17874 153.38687,-179.34765 91.88215,-7.16879 172.1786,61.50557 179.34739,153.38702 7.16889,91.88292 -61.50462,172.17851 -153.38678,179.3473 l 0,0 z"
         inkscape:export-filename="foo.png"
         inkscape:export-xdpi="566.22858"
         inkscape:export-ydpi="566.22858" />
      <path
         d="m 330.4631,278.46283 c 22.24957,-6.87866 125.76383,-26.4804 113.0712,58.72903 -5.43049,37.61804 -43.20242,50.6308 -60.19596,61.3121 -65.61561,41.24221 11.41221,95.8414 11.41221,95.8414 0,0 -46.13065,-69.0241 16.73549,-84.06827 25.30031,-9.93326 141.7387,-10.11039 145.14299,-81.55428 8.19778,-131.69337 -214.68897,-94.01529 -226.16593,-50.25998 l 0,0 z"
         id="path4214"
         sodipodi:nodetypes="ccscccc"
         inkscape:export-filename="foo.png"
         inkscape:export-xdpi="566.22858"
         inkscape:export-ydpi="566.22858"
         inkscape:connector-curvature="0" />
      <path
         transform="matrix(0.99697011,-0.07778566,0.07778566,0.99697011,0,0)"
         style=""
         d="m 337.90512,262.43811 18.12495,0 0,186.94887 -18.12495,0 z"
         id="rect4216" />
      <path
         style="fill:none;stroke:#663300;stroke-width:2;stroke-opacity:1;marker:none;visibility:visible;display:inline;overflow:visible;enable-background:accumulate"
         d="M 487.91646,98.698708 C 628.4456,127.3792 719.22127,264.70872 690.5408,405.23788 661.86033,545.76694 524.53079,636.54269 384.00165,607.86214 243.47251,579.18168 152.69684,441.85213 181.37733,301.32303 210.05782,160.79391 347.38732,70.018217 487.91646,98.698708 z"
         id="path4220"
         inkscape:connector-curvature="0" />
      <path
         id="path4218"
         d="m 629.72957,453.42591 -381.99996,32.40624 3.59372,50.24995 c 11.13935,11.27687 23.34259,21.54373 36.49999,30.68754 L 617.88584,538.7696 c 5.83125,-5.70654 11.3965,-11.71069 16.68748,-17.96864 l -4.84375,-67.37505 z"
         style="fill:#000000;fill-opacity:1;fill-rule:evenodd;stroke:none;stroke-width:2;marker:none;visibility:visible;display:inline;overflow:visible;enable-background:accumulate"
         inkscape:connector-curvature="0" />
      <g
         transform="matrix(0.9969701,-0.07778569,0.07778569,0.9969701,0,0)"
         style="font-size:74.92230988px;font-style:normal;font-variant:normal;font-weight:normal;font-stretch:normal;text-align:start;line-height:110.00000238%;writing-mode:lr-tb;text-anchor:start;fill:#ff6600;fill-opacity:1;stroke:none;display:inline;font-family:Bebas Neue;-inkscape-font-specification:Bebas Neue"
         id="text4222">
        <path
           d="m 243.83996,516.84625 -12.13741,0 0,52.44562 8.24145,0 0,-19.70457 3.89596,0 c 8.24145,0 12.28726,-4.57027 12.28726,-12.96156 l 0,-6.81793 c 0,-8.39129 -4.04581,-12.96156 -12.28726,-12.96156 m 0,7.49223 c 2.62228,0 4.04581,1.19876 4.04581,4.94488 l 0,7.86684 c 0,3.74611 -1.42353,4.94487 -4.04581,4.94487 l -3.89596,0 0,-17.75659 3.89596,0"
           style="line-height:110.00000238%;fill:#ff6600;font-family:Bebas Neue;-inkscape-font-specification:Bebas Neue"
           id="path3868" />
        <path
           d="m 277.20146,516.84625 -12.06249,0 -8.3913,52.44562 7.56716,0 1.42352,-9.51513 10.11451,0 1.42353,9.51513 8.31637,0 -8.3913,-52.44562 m -6.44331,9.29037 3.97088,26.5225 -7.94177,0 3.97089,-26.5225"
           style="line-height:110.00000238%;fill:#ff6600;font-family:Bebas Neue;-inkscape-font-specification:Bebas Neue"
           id="path3870" />
        <path
           d="m 314.98104,569.29187 c -0.82414,-1.94798 -0.89907,-3.82104 -0.89907,-6.3684 l 0,-8.09161 c 0,-5.46932 -1.3486,-9.44021 -5.46933,-11.16342 3.67119,-1.72321 5.39441,-5.24457 5.39441,-10.63897 l 0,-4.12072 c 0,-8.09161 -3.6712,-12.0625 -12.21234,-12.0625 l -12.4371,0 0,52.44562 8.24145,0 0,-21.35286 2.84705,0 c 3.74611,0 5.39441,1.79814 5.39441,6.66809 l 0,8.24145 c 0,4.27057 0.29969,5.09472 0.74922,6.44332 l 8.3913,0 m -13.41109,-44.95339 c 2.92196,0 4.19565,1.6483 4.19565,5.39441 l 0,5.16964 c 0,4.19565 -1.87306,5.54425 -4.94488,5.54425 l -3.22166,0 0,-16.1083 3.97089,0"
           style="line-height:110.00000238%;fill:#ff6600;font-family:Bebas Neue;-inkscape-font-specification:Bebas Neue"
           id="path3872" />
        <path
           d="m 317.10462,524.33848 8.61607,0 0,44.95339 8.24145,0 0,-44.95339 8.61607,0 0,-7.49223 -25.47359,0 0,7.49223"
           style="line-height:110.00000238%;fill:#ff6600;font-family:Bebas Neue;-inkscape-font-specification:Bebas Neue"
           id="path3874" />
        <path
           d="m 346.13467,569.29187 8.24146,0 0,-52.44562 -8.24146,0 0,52.44562"
           style="line-height:110.00000238%;fill:#ff6600;font-family:Bebas Neue;-inkscape-font-specification:Bebas Neue"
           id="path3876" />
        <path
           d="m 357.93142,524.33848 8.61607,0 0,44.95339 8.24145,0 0,-44.95339 8.61607,0 0,-7.49223 -25.47359,0 0,7.49223"
           style="line-height:110.00000238%;fill:#ff6600;font-family:Bebas Neue;-inkscape-font-specification:Bebas Neue"
           id="path3878" />
        <path
           d="m 394.52863,528.90875 c 0,-3.74612 1.64829,-5.16964 4.27057,-5.16964 2.62228,0 4.27057,1.42352 4.27057,5.16964 l 0,28.32063 c 0,3.74611 -1.64829,5.16964 -4.27057,5.16964 -2.62228,0 -4.27057,-1.42353 -4.27057,-5.16964 l 0,-28.32063 m -8.24145,27.79617 c 0,8.39129 4.42042,13.18633 12.51202,13.18633 8.0916,0 12.51203,-4.79504 12.51203,-13.18633 l 0,-27.27172 c 0,-8.39129 -4.42043,-13.18633 -12.51203,-13.18633 -8.0916,0 -12.51202,4.79504 -12.51202,13.18633 l 0,27.27172"
           style="line-height:110.00000238%;fill:#ff6600;font-family:Bebas Neue;-inkscape-font-specification:Bebas Neue"
           id="path3880" />
        <path
           d="m 440.3647,516.84625 -12.13742,0 0,52.44562 8.24146,0 0,-19.70457 3.89596,0 c 8.24144,0 12.28726,-4.57027 12.28726,-12.96156 l 0,-6.81793 c 0,-8.39129 -4.04582,-12.96156 -12.28726,-12.96156 m 0,7.49223 c 2.62228,0 4.0458,1.19876 4.0458,4.94488 l 0,7.86684 c 0,3.74611 -1.42352,4.94487 -4.0458,4.94487 l -3.89596,0 0,-17.75659 3.89596,0"
           style="fill:#ffffff;font-family:Bebas Neue;-inkscape-font-specification:Bebas Neue"
           id="path3882" />
        <path
           d="m 456.46949,569.29187 8.24145,0 0,-52.44562 -8.24145,0 0,52.44562"
           style="fill:#ffffff;font-family:Bebas Neue;-inkscape-font-specification:Bebas Neue"
           id="path3884" />
        <path
           d="m 496.28718,569.29187 c -0.82415,-1.94798 -0.89907,-3.82104 -0.89907,-6.3684 l 0,-8.09161 c 0,-5.46932 -1.34861,-9.44021 -5.46933,-11.16342 3.67119,-1.72321 5.39441,-5.24457 5.39441,-10.63897 l 0,-4.12072 c 0,-8.09161 -3.6712,-12.0625 -12.21234,-12.0625 l -12.4371,0 0,52.44562 8.24145,0 0,-21.35286 2.84705,0 c 3.74611,0 5.39441,1.79814 5.39441,6.66809 l 0,8.24145 c 0,4.27057 0.29969,5.09472 0.74922,6.44332 l 8.3913,0 m -13.4111,-44.95339 c 2.92197,0 4.19565,1.6483 4.19565,5.39441 l 0,5.16964 c 0,4.19565 -1.87306,5.54425 -4.94487,5.54425 l -3.22166,0 0,-16.1083 3.97088,0"
           style="fill:#ffffff;font-family:Bebas Neue;-inkscape-font-specification:Bebas Neue"
           id="path3886" />
        <path
           d="m 519.08931,516.84625 -12.0625,0 -8.39129,52.44562 7.56715,0 1.42352,-9.51513 10.11452,0 1.42352,9.51513 8.31638,0 -8.3913,-52.44562 m -6.44332,9.29037 3.97088,26.5225 -7.94176,0 3.97088,-26.5225"
           style="fill:#ffffff;font-family:Bebas Neue;-inkscape-font-specification:Bebas Neue"
           id="path3888" />
        <path
           d="m 526.06761,524.33848 8.61607,0 0,44.95339 8.24145,0 0,-44.95339 8.61607,0 0,-7.49223 -25.47359,0 0,7.49223"
           style="fill:#ffffff;font-family:Bebas Neue;-inkscape-font-specification:Bebas Neue"
           id="path3890" />
        <path
           d="m 570.5984,516.84625 -12.06249,0 -8.3913,52.44562 7.56715,0 1.42353,-9.51513 10.11451,0 1.42352,9.51513 8.31638,0 -8.3913,-52.44562 m -6.44332,9.29037 3.97088,26.5225 -7.94176,0 3.97088,-26.5225"
           style="fill:#ffffff;font-family:Bebas Neue;-inkscape-font-specification:Bebas Neue"
           id="path3892" />
      </g>
    </g>
  </g>
</svg>
